  0
SECTION
  2
HEADER
  9
$ACADVER
  1
AC1015
  0
ENDSEC
  0
SECTION
  2
ENTITIES
  0
CIRCLE
  8
VIA
 10
-270.0000
 20
-180.0000
 40
0.5000
  0
CIRCLE
  8
VIA
 10
-210.0000
 20
-180.0000
 40
0.5000
  0
CIRCLE
  8
VIA
 10
-150.0000
 20
-180.0000
 40
0.5000
  0
CIRCLE
  8
VIA
 10
-90.0000
 20
-180.0000
 40
0.5000
  0
CIRCLE
  8
VIA
 10
-30.0000
 20
-180.0000
 40
0.5000
  0
CIRCLE
  8
VIA
 10
30.0000
 20
-180.0000
 40
0.5000
  0
CIRCLE
  8
VIA
 10
90.0000
 20
-180.0000
 40
0.5000
  0
CIRCLE
  8
VIA
 10
150.0000
 20
-180.0000
 40
0.5000
  0
CIRCLE
  8
VIA
 10
210.0000
 20
-180.0000
 40
0.5000
  0
CIRCLE
  8
VIA
 10
270.0000
 20
-180.0000
 40
0.5000
  0
CIRCLE
  8
VIA
 10
-270.0000
 20
-140.0000
 40
0.5000
  0
CIRCLE
  8
VIA
 10
-210.0000
 20
-140.0000
 40
0.5000
  0
CIRCLE
  8
VIA
 10
-150.0000
 20
-140.0000
 40
0.5000
  0
CIRCLE
  8
VIA
 10
-90.0000
 20
-140.0000
 40
0.5000
  0
CIRCLE
  8
VIA
 10
-30.0000
 20
-140.0000
 40
0.5000
  0
CIRCLE
  8
VIA
 10
30.0000
 20
-140.0000
 40
0.5000
  0
CIRCLE
  8
VIA
 10
90.0000
 20
-140.0000
 40
0.5000
  0
CIRCLE
  8
VIA
 10
150.0000
 20
-140.0000
 40
0.5000
  0
CIRCLE
  8
VIA
 10
210.0000
 20
-140.0000
 40
0.5000
  0
CIRCLE
  8
VIA
 10
270.0000
 20
-140.0000
 40
0.5000
  0
CIRCLE
  8
VIA
 10
-270.0000
 20
-100.0000
 40
0.5000
  0
CIRCLE
  8
VIA
 10
-210.0000
 20
-100.0000
 40
0.5000
  0
CIRCLE
  8
VIA
 10
-150.0000
 20
-100.0000
 40
0.5000
  0
CIRCLE
  8
VIA
 10
-90.0000
 20
-100.0000
 40
0.5000
  0
CIRCLE
  8
VIA
 10
-30.0000
 20
-100.0000
 40
0.5000
  0
CIRCLE
  8
VIA
 10
30.0000
 20
-100.0000
 40
0.5000
  0
CIRCLE
  8
VIA
 10
90.0000
 20
-100.0000
 40
0.5000
  0
CIRCLE
  8
VIA
 10
150.0000
 20
-100.0000
 40
0.5000
  0
CIRCLE
  8
VIA
 10
210.0000
 20
-100.0000
 40
0.5000
  0
CIRCLE
  8
VIA
 10
270.0000
 20
-100.0000
 40
0.5000
  0
CIRCLE
  8
VIA
 10
-270.0000
 20
-60.0000
 40
0.5000
  0
CIRCLE
  8
VIA
 10
-210.0000
 20
-60.0000
 40
0.5000
  0
CIRCLE
  8
VIA
 10
-150.0000
 20
-60.0000
 40
0.5000
  0
CIRCLE
  8
VIA
 10
-90.0000
 20
-60.0000
 40
0.5000
  0
CIRCLE
  8
VIA
 10
-30.0000
 20
-60.0000
 40
0.5000
  0
CIRCLE
  8
VIA
 10
30.0000
 20
-60.0000
 40
0.5000
  0
CIRCLE
  8
VIA
 10
90.0000
 20
-60.0000
 40
0.5000
  0
CIRCLE
  8
VIA
 10
150.0000
 20
-60.0000
 40
0.5000
  0
CIRCLE
  8
VIA
 10
210.0000
 20
-60.0000
 40
0.5000
  0
CIRCLE
  8
VIA
 10
270.0000
 20
-60.0000
 40
0.5000
  0
CIRCLE
  8
VIA
 10
-270.0000
 20
-20.0000
 40
0.5000
  0
CIRCLE
  8
VIA
 10
-210.0000
 20
-20.0000
 40
0.5000
  0
CIRCLE
  8
VIA
 10
-150.0000
 20
-20.0000
 40
0.5000
  0
CIRCLE
  8
VIA
 10
-90.0000
 20
-20.0000
 40
0.5000
  0
CIRCLE
  8
VIA
 10
-30.0000
 20
-20.0000
 40
0.5000
  0
CIRCLE
  8
VIA
 10
30.0000
 20
-20.0000
 40
0.5000
  0
CIRCLE
  8
VIA
 10
90.0000
 20
-20.0000
 40
0.5000
  0
CIRCLE
  8
VIA
 10
150.0000
 20
-20.0000
 40
0.5000
  0
CIRCLE
  8
VIA
 10
210.0000
 20
-20.0000
 40
0.5000
  0
CIRCLE
  8
VIA
 10
270.0000
 20
-20.0000
 40
0.5000
  0
CIRCLE
  8
VIA
 10
-270.0000
 20
20.0000
 40
0.5000
  0
CIRCLE
  8
VIA
 10
-210.0000
 20
20.0000
 40
0.5000
  0
CIRCLE
  8
VIA
 10
-150.0000
 20
20.0000
 40
0.5000
  0
CIRCLE
  8
VIA
 10
-90.0000
 20
20.0000
 40
0.5000
  0
CIRCLE
  8
VIA
 10
-30.0000
 20
20.0000
 40
0.5000
  0
CIRCLE
  8
VIA
 10
30.0000
 20
20.0000
 40
0.5000
  0
CIRCLE
  8
VIA
 10
90.0000
 20
20.0000
 40
0.5000
  0
CIRCLE
  8
VIA
 10
150.0000
 20
20.0000
 40
0.5000
  0
CIRCLE
  8
VIA
 10
210.0000
 20
20.0000
 40
0.5000
  0
CIRCLE
  8
VIA
 10
270.0000
 20
20.0000
 40
0.5000
  0
CIRCLE
  8
VIA
 10
-270.0000
 20
60.0000
 40
0.5000
  0
CIRCLE
  8
VIA
 10
-210.0000
 20
60.0000
 40
0.5000
  0
CIRCLE
  8
VIA
 10
-150.0000
 20
60.0000
 40
0.5000
  0
CIRCLE
  8
VIA
 10
-90.0000
 20
60.0000
 40
0.5000
  0
CIRCLE
  8
VIA
 10
-30.0000
 20
60.0000
 40
0.5000
  0
CIRCLE
  8
VIA
 10
30.0000
 20
60.0000
 40
0.5000
  0
CIRCLE
  8
VIA
 10
90.0000
 20
60.0000
 40
0.5000
  0
CIRCLE
  8
VIA
 10
150.0000
 20
60.0000
 40
0.5000
  0
CIRCLE
  8
VIA
 10
210.0000
 20
60.0000
 40
0.5000
  0
CIRCLE
  8
VIA
 10
270.0000
 20
60.0000
 40
0.5000
  0
CIRCLE
  8
VIA
 10
-270.0000
 20
100.0000
 40
0.5000
  0
CIRCLE
  8
VIA
 10
-210.0000
 20
100.0000
 40
0.5000
  0
CIRCLE
  8
VIA
 10
-150.0000
 20
100.0000
 40
0.5000
  0
CIRCLE
  8
VIA
 10
-90.0000
 20
100.0000
 40
0.5000
  0
CIRCLE
  8
VIA
 10
-30.0000
 20
100.0000
 40
0.5000
  0
CIRCLE
  8
VIA
 10
30.0000
 20
100.0000
 40
0.5000
  0
CIRCLE
  8
VIA
 10
90.0000
 20
100.0000
 40
0.5000
  0
CIRCLE
  8
VIA
 10
150.0000
 20
100.0000
 40
0.5000
  0
CIRCLE
  8
VIA
 10
210.0000
 20
100.0000
 40
0.5000
  0
CIRCLE
  8
VIA
 10
270.0000
 20
100.0000
 40
0.5000
  0
CIRCLE
  8
VIA
 10
-270.0000
 20
140.0000
 40
0.5000
  0
CIRCLE
  8
VIA
 10
-210.0000
 20
140.0000
 40
0.5000
  0
CIRCLE
  8
VIA
 10
-150.0000
 20
140.0000
 40
0.5000
  0
CIRCLE
  8
VIA
 10
-90.0000
 20
140.0000
 40
0.5000
  0
CIRCLE
  8
VIA
 10
-30.0000
 20
140.0000
 40
0.5000
  0
CIRCLE
  8
VIA
 10
30.0000
 20
140.0000
 40
0.5000
  0
CIRCLE
  8
VIA
 10
90.0000
 20
140.0000
 40
0.5000
  0
CIRCLE
  8
VIA
 10
150.0000
 20
140.0000
 40
0.5000
  0
CIRCLE
  8
VIA
 10
210.0000
 20
140.0000
 40
0.5000
  0
CIRCLE
  8
VIA
 10
270.0000
 20
140.0000
 40
0.5000
  0
CIRCLE
  8
VIA
 10
-270.0000
 20
180.0000
 40
0.5000
  0
CIRCLE
  8
VIA
 10
-210.0000
 20
180.0000
 40
0.5000
  0
CIRCLE
  8
VIA
 10
-150.0000
 20
180.0000
 40
0.5000
  0
CIRCLE
  8
VIA
 10
-90.0000
 20
180.0000
 40
0.5000
  0
CIRCLE
  8
VIA
 10
-30.0000
 20
180.0000
 40
0.5000
  0
CIRCLE
  8
VIA
 10
30.0000
 20
180.0000
 40
0.5000
  0
CIRCLE
  8
VIA
 10
90.0000
 20
180.0000
 40
0.5000
  0
CIRCLE
  8
VIA
 10
150.0000
 20
180.0000
 40
0.5000
  0
CIRCLE
  8
VIA
 10
210.0000
 20
180.0000
 40
0.5000
  0
CIRCLE
  8
VIA
 10
270.0000
 20
180.0000
 40
0.5000
  0
ENDSEC
  0
EOF
