  0
SECTION
  2
HEADER
  9
$ACADVER
  1
AC1015
  0
ENDSEC
  0
SECTION
  2
ENTITIES
  0
CIRCLE
  8
VIA
 10
-280.6250
 20
-183.7500
 40
0.5000
  0
CIRCLE
  8
VIA
 10
-261.8750
 20
-183.7500
 40
0.5000
  0
CIRCLE
  8
VIA
 10
-243.1250
 20
-183.7500
 40
0.5000
  0
CIRCLE
  8
VIA
 10
-224.3750
 20
-183.7500
 40
0.5000
  0
CIRCLE
  8
VIA
 10
-205.6250
 20
-183.7500
 40
0.5000
  0
CIRCLE
  8
VIA
 10
-186.8750
 20
-183.7500
 40
0.5000
  0
CIRCLE
  8
VIA
 10
-168.1250
 20
-183.7500
 40
0.5000
  0
CIRCLE
  8
VIA
 10
-149.3750
 20
-183.7500
 40
0.5000
  0
CIRCLE
  8
VIA
 10
-130.6250
 20
-183.7500
 40
0.5000
  0
CIRCLE
  8
VIA
 10
-111.8750
 20
-183.7500
 40
0.5000
  0
CIRCLE
  8
VIA
 10
-93.1250
 20
-183.7500
 40
0.5000
  0
CIRCLE
  8
VIA
 10
-74.3750
 20
-183.7500
 40
0.5000
  0
CIRCLE
  8
VIA
 10
-55.6250
 20
-183.7500
 40
0.5000
  0
CIRCLE
  8
VIA
 10
-36.8750
 20
-183.7500
 40
0.5000
  0
CIRCLE
  8
VIA
 10
-18.1250
 20
-183.7500
 40
0.5000
  0
CIRCLE
  8
VIA
 10
0.6250
 20
-183.7500
 40
0.5000
  0
CIRCLE
  8
VIA
 10
19.3750
 20
-183.7500
 40
0.5000
  0
CIRCLE
  8
VIA
 10
38.1250
 20
-183.7500
 40
0.5000
  0
CIRCLE
  8
VIA
 10
56.8750
 20
-183.7500
 40
0.5000
  0
CIRCLE
  8
VIA
 10
75.6250
 20
-183.7500
 40
0.5000
  0
CIRCLE
  8
VIA
 10
94.3750
 20
-183.7500
 40
0.5000
  0
CIRCLE
  8
VIA
 10
113.1250
 20
-183.7500
 40
0.5000
  0
CIRCLE
  8
VIA
 10
131.8750
 20
-183.7500
 40
0.5000
  0
CIRCLE
  8
VIA
 10
150.6250
 20
-183.7500
 40
0.5000
  0
CIRCLE
  8
VIA
 10
169.3750
 20
-183.7500
 40
0.5000
  0
CIRCLE
  8
VIA
 10
188.1250
 20
-183.7500
 40
0.5000
  0
CIRCLE
  8
VIA
 10
206.8750
 20
-183.7500
 40
0.5000
  0
CIRCLE
  8
VIA
 10
225.6250
 20
-183.7500
 40
0.5000
  0
CIRCLE
  8
VIA
 10
244.3750
 20
-183.7500
 40
0.5000
  0
CIRCLE
  8
VIA
 10
263.1250
 20
-183.7500
 40
0.5000
  0
CIRCLE
  8
VIA
 10
281.8750
 20
-183.7500
 40
0.5000
  0
CIRCLE
  8
VIA
 10
300.6250
 20
-183.7500
 40
0.5000
  0
CIRCLE
  8
VIA
 10
-280.6250
 20
-171.2500
 40
0.5000
  0
CIRCLE
  8
VIA
 10
-261.8750
 20
-171.2500
 40
0.5000
  0
CIRCLE
  8
VIA
 10
-243.1250
 20
-171.2500
 40
0.5000
  0
CIRCLE
  8
VIA
 10
-224.3750
 20
-171.2500
 40
0.5000
  0
CIRCLE
  8
VIA
 10
-205.6250
 20
-171.2500
 40
0.5000
  0
CIRCLE
  8
VIA
 10
-186.8750
 20
-171.2500
 40
0.5000
  0
CIRCLE
  8
VIA
 10
-168.1250
 20
-171.2500
 40
0.5000
  0
CIRCLE
  8
VIA
 10
-149.3750
 20
-171.2500
 40
0.5000
  0
CIRCLE
  8
VIA
 10
-130.6250
 20
-171.2500
 40
0.5000
  0
CIRCLE
  8
VIA
 10
-111.8750
 20
-171.2500
 40
0.5000
  0
CIRCLE
  8
VIA
 10
-93.1250
 20
-171.2500
 40
0.5000
  0
CIRCLE
  8
VIA
 10
-74.3750
 20
-171.2500
 40
0.5000
  0
CIRCLE
  8
VIA
 10
-55.6250
 20
-171.2500
 40
0.5000
  0
CIRCLE
  8
VIA
 10
-36.8750
 20
-171.2500
 40
0.5000
  0
CIRCLE
  8
VIA
 10
-18.1250
 20
-171.2500
 40
0.5000
  0
CIRCLE
  8
VIA
 10
0.6250
 20
-171.2500
 40
0.5000
  0
CIRCLE
  8
VIA
 10
19.3750
 20
-171.2500
 40
0.5000
  0
CIRCLE
  8
VIA
 10
38.1250
 20
-171.2500
 40
0.5000
  0
CIRCLE
  8
VIA
 10
56.8750
 20
-171.2500
 40
0.5000
  0
CIRCLE
  8
VIA
 10
75.6250
 20
-171.2500
 40
0.5000
  0
CIRCLE
  8
VIA
 10
94.3750
 20
-171.2500
 40
0.5000
  0
CIRCLE
  8
VIA
 10
113.1250
 20
-171.2500
 40
0.5000
  0
CIRCLE
  8
VIA
 10
131.8750
 20
-171.2500
 40
0.5000
  0
CIRCLE
  8
VIA
 10
150.6250
 20
-171.2500
 40
0.5000
  0
CIRCLE
  8
VIA
 10
169.3750
 20
-171.2500
 40
0.5000
  0
CIRCLE
  8
VIA
 10
188.1250
 20
-171.2500
 40
0.5000
  0
CIRCLE
  8
VIA
 10
206.8750
 20
-171.2500
 40
0.5000
  0
CIRCLE
  8
VIA
 10
225.6250
 20
-171.2500
 40
0.5000
  0
CIRCLE
  8
VIA
 10
244.3750
 20
-171.2500
 40
0.5000
  0
CIRCLE
  8
VIA
 10
263.1250
 20
-171.2500
 40
0.5000
  0
CIRCLE
  8
VIA
 10
281.8750
 20
-171.2500
 40
0.5000
  0
CIRCLE
  8
VIA
 10
300.6250
 20
-171.2500
 40
0.5000
  0
CIRCLE
  8
VIA
 10
-280.6250
 20
-158.7500
 40
0.5000
  0
CIRCLE
  8
VIA
 10
-261.8750
 20
-158.7500
 40
0.5000
  0
CIRCLE
  8
VIA
 10
-243.1250
 20
-158.7500
 40
0.5000
  0
CIRCLE
  8
VIA
 10
-224.3750
 20
-158.7500
 40
0.5000
  0
CIRCLE
  8
VIA
 10
-205.6250
 20
-158.7500
 40
0.5000
  0
CIRCLE
  8
VIA
 10
-186.8750
 20
-158.7500
 40
0.5000
  0
CIRCLE
  8
VIA
 10
-168.1250
 20
-158.7500
 40
0.5000
  0
CIRCLE
  8
VIA
 10
-149.3750
 20
-158.7500
 40
0.5000
  0
CIRCLE
  8
VIA
 10
-130.6250
 20
-158.7500
 40
0.5000
  0
CIRCLE
  8
VIA
 10
-111.8750
 20
-158.7500
 40
0.5000
  0
CIRCLE
  8
VIA
 10
-93.1250
 20
-158.7500
 40
0.5000
  0
CIRCLE
  8
VIA
 10
-74.3750
 20
-158.7500
 40
0.5000
  0
CIRCLE
  8
VIA
 10
-55.6250
 20
-158.7500
 40
0.5000
  0
CIRCLE
  8
VIA
 10
-36.8750
 20
-158.7500
 40
0.5000
  0
CIRCLE
  8
VIA
 10
-18.1250
 20
-158.7500
 40
0.5000
  0
CIRCLE
  8
VIA
 10
0.6250
 20
-158.7500
 40
0.5000
  0
CIRCLE
  8
VIA
 10
19.3750
 20
-158.7500
 40
0.5000
  0
CIRCLE
  8
VIA
 10
38.1250
 20
-158.7500
 40
0.5000
  0
CIRCLE
  8
VIA
 10
56.8750
 20
-158.7500
 40
0.5000
  0
CIRCLE
  8
VIA
 10
75.6250
 20
-158.7500
 40
0.5000
  0
CIRCLE
  8
VIA
 10
94.3750
 20
-158.7500
 40
0.5000
  0
CIRCLE
  8
VIA
 10
113.1250
 20
-158.7500
 40
0.5000
  0
CIRCLE
  8
VIA
 10
131.8750
 20
-158.7500
 40
0.5000
  0
CIRCLE
  8
VIA
 10
150.6250
 20
-158.7500
 40
0.5000
  0
CIRCLE
  8
VIA
 10
169.3750
 20
-158.7500
 40
0.5000
  0
CIRCLE
  8
VIA
 10
188.1250
 20
-158.7500
 40
0.5000
  0
CIRCLE
  8
VIA
 10
206.8750
 20
-158.7500
 40
0.5000
  0
CIRCLE
  8
VIA
 10
225.6250
 20
-158.7500
 40
0.5000
  0
CIRCLE
  8
VIA
 10
244.3750
 20
-158.7500
 40
0.5000
  0
CIRCLE
  8
VIA
 10
263.1250
 20
-158.7500
 40
0.5000
  0
CIRCLE
  8
VIA
 10
281.8750
 20
-158.7500
 40
0.5000
  0
CIRCLE
  8
VIA
 10
300.6250
 20
-158.7500
 40
0.5000
  0
CIRCLE
  8
VIA
 10
-280.6250
 20
-146.2500
 40
0.5000
  0
CIRCLE
  8
VIA
 10
-261.8750
 20
-146.2500
 40
0.5000
  0
CIRCLE
  8
VIA
 10
-243.1250
 20
-146.2500
 40
0.5000
  0
CIRCLE
  8
VIA
 10
-224.3750
 20
-146.2500
 40
0.5000
  0
CIRCLE
  8
VIA
 10
-205.6250
 20
-146.2500
 40
0.5000
  0
CIRCLE
  8
VIA
 10
-186.8750
 20
-146.2500
 40
0.5000
  0
CIRCLE
  8
VIA
 10
-168.1250
 20
-146.2500
 40
0.5000
  0
CIRCLE
  8
VIA
 10
-149.3750
 20
-146.2500
 40
0.5000
  0
CIRCLE
  8
VIA
 10
-130.6250
 20
-146.2500
 40
0.5000
  0
CIRCLE
  8
VIA
 10
-111.8750
 20
-146.2500
 40
0.5000
  0
CIRCLE
  8
VIA
 10
-93.1250
 20
-146.2500
 40
0.5000
  0
CIRCLE
  8
VIA
 10
-74.3750
 20
-146.2500
 40
0.5000
  0
CIRCLE
  8
VIA
 10
-55.6250
 20
-146.2500
 40
0.5000
  0
CIRCLE
  8
VIA
 10
-36.8750
 20
-146.2500
 40
0.5000
  0
CIRCLE
  8
VIA
 10
-18.1250
 20
-146.2500
 40
0.5000
  0
CIRCLE
  8
VIA
 10
0.6250
 20
-146.2500
 40
0.5000
  0
CIRCLE
  8
VIA
 10
19.3750
 20
-146.2500
 40
0.5000
  0
CIRCLE
  8
VIA
 10
38.1250
 20
-146.2500
 40
0.5000
  0
CIRCLE
  8
VIA
 10
56.8750
 20
-146.2500
 40
0.5000
  0
CIRCLE
  8
VIA
 10
75.6250
 20
-146.2500
 40
0.5000
  0
CIRCLE
  8
VIA
 10
94.3750
 20
-146.2500
 40
0.5000
  0
CIRCLE
  8
VIA
 10
113.1250
 20
-146.2500
 40
0.5000
  0
CIRCLE
  8
VIA
 10
131.8750
 20
-146.2500
 40
0.5000
  0
CIRCLE
  8
VIA
 10
150.6250
 20
-146.2500
 40
0.5000
  0
CIRCLE
  8
VIA
 10
169.3750
 20
-146.2500
 40
0.5000
  0
CIRCLE
  8
VIA
 10
188.1250
 20
-146.2500
 40
0.5000
  0
CIRCLE
  8
VIA
 10
206.8750
 20
-146.2500
 40
0.5000
  0
CIRCLE
  8
VIA
 10
225.6250
 20
-146.2500
 40
0.5000
  0
CIRCLE
  8
VIA
 10
244.3750
 20
-146.2500
 40
0.5000
  0
CIRCLE
  8
VIA
 10
263.1250
 20
-146.2500
 40
0.5000
  0
CIRCLE
  8
VIA
 10
281.8750
 20
-146.2500
 40
0.5000
  0
CIRCLE
  8
VIA
 10
300.6250
 20
-146.2500
 40
0.5000
  0
CIRCLE
  8
VIA
 10
-280.6250
 20
-133.7500
 40
0.5000
  0
CIRCLE
  8
VIA
 10
-261.8750
 20
-133.7500
 40
0.5000
  0
CIRCLE
  8
VIA
 10
-243.1250
 20
-133.7500
 40
0.5000
  0
CIRCLE
  8
VIA
 10
-224.3750
 20
-133.7500
 40
0.5000
  0
CIRCLE
  8
VIA
 10
-205.6250
 20
-133.7500
 40
0.5000
  0
CIRCLE
  8
VIA
 10
-186.8750
 20
-133.7500
 40
0.5000
  0
CIRCLE
  8
VIA
 10
-168.1250
 20
-133.7500
 40
0.5000
  0
CIRCLE
  8
VIA
 10
-149.3750
 20
-133.7500
 40
0.5000
  0
CIRCLE
  8
VIA
 10
-130.6250
 20
-133.7500
 40
0.5000
  0
CIRCLE
  8
VIA
 10
-111.8750
 20
-133.7500
 40
0.5000
  0
CIRCLE
  8
VIA
 10
-93.1250
 20
-133.7500
 40
0.5000
  0
CIRCLE
  8
VIA
 10
-74.3750
 20
-133.7500
 40
0.5000
  0
CIRCLE
  8
VIA
 10
-55.6250
 20
-133.7500
 40
0.5000
  0
CIRCLE
  8
VIA
 10
-36.8750
 20
-133.7500
 40
0.5000
  0
CIRCLE
  8
VIA
 10
-18.1250
 20
-133.7500
 40
0.5000
  0
CIRCLE
  8
VIA
 10
0.6250
 20
-133.7500
 40
0.5000
  0
CIRCLE
  8
VIA
 10
19.3750
 20
-133.7500
 40
0.5000
  0
CIRCLE
  8
VIA
 10
38.1250
 20
-133.7500
 40
0.5000
  0
CIRCLE
  8
VIA
 10
56.8750
 20
-133.7500
 40
0.5000
  0
CIRCLE
  8
VIA
 10
75.6250
 20
-133.7500
 40
0.5000
  0
CIRCLE
  8
VIA
 10
94.3750
 20
-133.7500
 40
0.5000
  0
CIRCLE
  8
VIA
 10
113.1250
 20
-133.7500
 40
0.5000
  0
CIRCLE
  8
VIA
 10
131.8750
 20
-133.7500
 40
0.5000
  0
CIRCLE
  8
VIA
 10
150.6250
 20
-133.7500
 40
0.5000
  0
CIRCLE
  8
VIA
 10
169.3750
 20
-133.7500
 40
0.5000
  0
CIRCLE
  8
VIA
 10
188.1250
 20
-133.7500
 40
0.5000
  0
CIRCLE
  8
VIA
 10
206.8750
 20
-133.7500
 40
0.5000
  0
CIRCLE
  8
VIA
 10
225.6250
 20
-133.7500
 40
0.5000
  0
CIRCLE
  8
VIA
 10
244.3750
 20
-133.7500
 40
0.5000
  0
CIRCLE
  8
VIA
 10
263.1250
 20
-133.7500
 40
0.5000
  0
CIRCLE
  8
VIA
 10
281.8750
 20
-133.7500
 40
0.5000
  0
CIRCLE
  8
VIA
 10
300.6250
 20
-133.7500
 40
0.5000
  0
CIRCLE
  8
VIA
 10
-280.6250
 20
-121.2500
 40
0.5000
  0
CIRCLE
  8
VIA
 10
-261.8750
 20
-121.2500
 40
0.5000
  0
CIRCLE
  8
VIA
 10
-243.1250
 20
-121.2500
 40
0.5000
  0
CIRCLE
  8
VIA
 10
-224.3750
 20
-121.2500
 40
0.5000
  0
CIRCLE
  8
VIA
 10
-205.6250
 20
-121.2500
 40
0.5000
  0
CIRCLE
  8
VIA
 10
-186.8750
 20
-121.2500
 40
0.5000
  0
CIRCLE
  8
VIA
 10
-168.1250
 20
-121.2500
 40
0.5000
  0
CIRCLE
  8
VIA
 10
-149.3750
 20
-121.2500
 40
0.5000
  0
CIRCLE
  8
VIA
 10
-130.6250
 20
-121.2500
 40
0.5000
  0
CIRCLE
  8
VIA
 10
-111.8750
 20
-121.2500
 40
0.5000
  0
CIRCLE
  8
VIA
 10
-93.1250
 20
-121.2500
 40
0.5000
  0
CIRCLE
  8
VIA
 10
-74.3750
 20
-121.2500
 40
0.5000
  0
CIRCLE
  8
VIA
 10
-55.6250
 20
-121.2500
 40
0.5000
  0
CIRCLE
  8
VIA
 10
-36.8750
 20
-121.2500
 40
0.5000
  0
CIRCLE
  8
VIA
 10
-18.1250
 20
-121.2500
 40
0.5000
  0
CIRCLE
  8
VIA
 10
0.6250
 20
-121.2500
 40
0.5000
  0
CIRCLE
  8
VIA
 10
19.3750
 20
-121.2500
 40
0.5000
  0
CIRCLE
  8
VIA
 10
38.1250
 20
-121.2500
 40
0.5000
  0
CIRCLE
  8
VIA
 10
56.8750
 20
-121.2500
 40
0.5000
  0
CIRCLE
  8
VIA
 10
75.6250
 20
-121.2500
 40
0.5000
  0
CIRCLE
  8
VIA
 10
94.3750
 20
-121.2500
 40
0.5000
  0
CIRCLE
  8
VIA
 10
113.1250
 20
-121.2500
 40
0.5000
  0
CIRCLE
  8
VIA
 10
131.8750
 20
-121.2500
 40
0.5000
  0
CIRCLE
  8
VIA
 10
150.6250
 20
-121.2500
 40
0.5000
  0
CIRCLE
  8
VIA
 10
169.3750
 20
-121.2500
 40
0.5000
  0
CIRCLE
  8
VIA
 10
188.1250
 20
-121.2500
 40
0.5000
  0
CIRCLE
  8
VIA
 10
206.8750
 20
-121.2500
 40
0.5000
  0
CIRCLE
  8
VIA
 10
225.6250
 20
-121.2500
 40
0.5000
  0
CIRCLE
  8
VIA
 10
244.3750
 20
-121.2500
 40
0.5000
  0
CIRCLE
  8
VIA
 10
263.1250
 20
-121.2500
 40
0.5000
  0
CIRCLE
  8
VIA
 10
281.8750
 20
-121.2500
 40
0.5000
  0
CIRCLE
  8
VIA
 10
300.6250
 20
-121.2500
 40
0.5000
  0
CIRCLE
  8
VIA
 10
-280.6250
 20
-108.7500
 40
0.5000
  0
CIRCLE
  8
VIA
 10
-261.8750
 20
-108.7500
 40
0.5000
  0
CIRCLE
  8
VIA
 10
-243.1250
 20
-108.7500
 40
0.5000
  0
CIRCLE
  8
VIA
 10
-224.3750
 20
-108.7500
 40
0.5000
  0
CIRCLE
  8
VIA
 10
-205.6250
 20
-108.7500
 40
0.5000
  0
CIRCLE
  8
VIA
 10
-186.8750
 20
-108.7500
 40
0.5000
  0
CIRCLE
  8
VIA
 10
-168.1250
 20
-108.7500
 40
0.5000
  0
CIRCLE
  8
VIA
 10
-149.3750
 20
-108.7500
 40
0.5000
  0
CIRCLE
  8
VIA
 10
-130.6250
 20
-108.7500
 40
0.5000
  0
CIRCLE
  8
VIA
 10
-111.8750
 20
-108.7500
 40
0.5000
  0
CIRCLE
  8
VIA
 10
-93.1250
 20
-108.7500
 40
0.5000
  0
CIRCLE
  8
VIA
 10
-74.3750
 20
-108.7500
 40
0.5000
  0
CIRCLE
  8
VIA
 10
-55.6250
 20
-108.7500
 40
0.5000
  0
CIRCLE
  8
VIA
 10
-36.8750
 20
-108.7500
 40
0.5000
  0
CIRCLE
  8
VIA
 10
-18.1250
 20
-108.7500
 40
0.5000
  0
CIRCLE
  8
VIA
 10
0.6250
 20
-108.7500
 40
0.5000
  0
CIRCLE
  8
VIA
 10
19.3750
 20
-108.7500
 40
0.5000
  0
CIRCLE
  8
VIA
 10
38.1250
 20
-108.7500
 40
0.5000
  0
CIRCLE
  8
VIA
 10
56.8750
 20
-108.7500
 40
0.5000
  0
CIRCLE
  8
VIA
 10
75.6250
 20
-108.7500
 40
0.5000
  0
CIRCLE
  8
VIA
 10
94.3750
 20
-108.7500
 40
0.5000
  0
CIRCLE
  8
VIA
 10
113.1250
 20
-108.7500
 40
0.5000
  0
CIRCLE
  8
VIA
 10
131.8750
 20
-108.7500
 40
0.5000
  0
CIRCLE
  8
VIA
 10
150.6250
 20
-108.7500
 40
0.5000
  0
CIRCLE
  8
VIA
 10
169.3750
 20
-108.7500
 40
0.5000
  0
CIRCLE
  8
VIA
 10
188.1250
 20
-108.7500
 40
0.5000
  0
CIRCLE
  8
VIA
 10
206.8750
 20
-108.7500
 40
0.5000
  0
CIRCLE
  8
VIA
 10
225.6250
 20
-108.7500
 40
0.5000
  0
CIRCLE
  8
VIA
 10
244.3750
 20
-108.7500
 40
0.5000
  0
CIRCLE
  8
VIA
 10
263.1250
 20
-108.7500
 40
0.5000
  0
CIRCLE
  8
VIA
 10
281.8750
 20
-108.7500
 40
0.5000
  0
CIRCLE
  8
VIA
 10
300.6250
 20
-108.7500
 40
0.5000
  0
CIRCLE
  8
VIA
 10
-280.6250
 20
-96.2500
 40
0.5000
  0
CIRCLE
  8
VIA
 10
-261.8750
 20
-96.2500
 40
0.5000
  0
CIRCLE
  8
VIA
 10
-243.1250
 20
-96.2500
 40
0.5000
  0
CIRCLE
  8
VIA
 10
-224.3750
 20
-96.2500
 40
0.5000
  0
CIRCLE
  8
VIA
 10
-205.6250
 20
-96.2500
 40
0.5000
  0
CIRCLE
  8
VIA
 10
-186.8750
 20
-96.2500
 40
0.5000
  0
CIRCLE
  8
VIA
 10
-168.1250
 20
-96.2500
 40
0.5000
  0
CIRCLE
  8
VIA
 10
-149.3750
 20
-96.2500
 40
0.5000
  0
CIRCLE
  8
VIA
 10
-130.6250
 20
-96.2500
 40
0.5000
  0
CIRCLE
  8
VIA
 10
-111.8750
 20
-96.2500
 40
0.5000
  0
CIRCLE
  8
VIA
 10
-93.1250
 20
-96.2500
 40
0.5000
  0
CIRCLE
  8
VIA
 10
-74.3750
 20
-96.2500
 40
0.5000
  0
CIRCLE
  8
VIA
 10
-55.6250
 20
-96.2500
 40
0.5000
  0
CIRCLE
  8
VIA
 10
-36.8750
 20
-96.2500
 40
0.5000
  0
CIRCLE
  8
VIA
 10
-18.1250
 20
-96.2500
 40
0.5000
  0
CIRCLE
  8
VIA
 10
0.6250
 20
-96.2500
 40
0.5000
  0
CIRCLE
  8
VIA
 10
19.3750
 20
-96.2500
 40
0.5000
  0
CIRCLE
  8
VIA
 10
38.1250
 20
-96.2500
 40
0.5000
  0
CIRCLE
  8
VIA
 10
56.8750
 20
-96.2500
 40
0.5000
  0
CIRCLE
  8
VIA
 10
75.6250
 20
-96.2500
 40
0.5000
  0
CIRCLE
  8
VIA
 10
94.3750
 20
-96.2500
 40
0.5000
  0
CIRCLE
  8
VIA
 10
113.1250
 20
-96.2500
 40
0.5000
  0
CIRCLE
  8
VIA
 10
131.8750
 20
-96.2500
 40
0.5000
  0
CIRCLE
  8
VIA
 10
150.6250
 20
-96.2500
 40
0.5000
  0
CIRCLE
  8
VIA
 10
169.3750
 20
-96.2500
 40
0.5000
  0
CIRCLE
  8
VIA
 10
188.1250
 20
-96.2500
 40
0.5000
  0
CIRCLE
  8
VIA
 10
206.8750
 20
-96.2500
 40
0.5000
  0
CIRCLE
  8
VIA
 10
225.6250
 20
-96.2500
 40
0.5000
  0
CIRCLE
  8
VIA
 10
244.3750
 20
-96.2500
 40
0.5000
  0
CIRCLE
  8
VIA
 10
263.1250
 20
-96.2500
 40
0.5000
  0
CIRCLE
  8
VIA
 10
281.8750
 20
-96.2500
 40
0.5000
  0
CIRCLE
  8
VIA
 10
300.6250
 20
-96.2500
 40
0.5000
  0
CIRCLE
  8
VIA
 10
-280.6250
 20
-83.7500
 40
0.5000
  0
CIRCLE
  8
VIA
 10
-261.8750
 20
-83.7500
 40
0.5000
  0
CIRCLE
  8
VIA
 10
-243.1250
 20
-83.7500
 40
0.5000
  0
CIRCLE
  8
VIA
 10
-224.3750
 20
-83.7500
 40
0.5000
  0
CIRCLE
  8
VIA
 10
-205.6250
 20
-83.7500
 40
0.5000
  0
CIRCLE
  8
VIA
 10
-186.8750
 20
-83.7500
 40
0.5000
  0
CIRCLE
  8
VIA
 10
-168.1250
 20
-83.7500
 40
0.5000
  0
CIRCLE
  8
VIA
 10
-149.3750
 20
-83.7500
 40
0.5000
  0
CIRCLE
  8
VIA
 10
-130.6250
 20
-83.7500
 40
0.5000
  0
CIRCLE
  8
VIA
 10
-111.8750
 20
-83.7500
 40
0.5000
  0
CIRCLE
  8
VIA
 10
-93.1250
 20
-83.7500
 40
0.5000
  0
CIRCLE
  8
VIA
 10
-74.3750
 20
-83.7500
 40
0.5000
  0
CIRCLE
  8
VIA
 10
-55.6250
 20
-83.7500
 40
0.5000
  0
CIRCLE
  8
VIA
 10
-36.8750
 20
-83.7500
 40
0.5000
  0
CIRCLE
  8
VIA
 10
-18.1250
 20
-83.7500
 40
0.5000
  0
CIRCLE
  8
VIA
 10
0.6250
 20
-83.7500
 40
0.5000
  0
CIRCLE
  8
VIA
 10
19.3750
 20
-83.7500
 40
0.5000
  0
CIRCLE
  8
VIA
 10
38.1250
 20
-83.7500
 40
0.5000
  0
CIRCLE
  8
VIA
 10
56.8750
 20
-83.7500
 40
0.5000
  0
CIRCLE
  8
VIA
 10
75.6250
 20
-83.7500
 40
0.5000
  0
CIRCLE
  8
VIA
 10
94.3750
 20
-83.7500
 40
0.5000
  0
CIRCLE
  8
VIA
 10
113.1250
 20
-83.7500
 40
0.5000
  0
CIRCLE
  8
VIA
 10
131.8750
 20
-83.7500
 40
0.5000
  0
CIRCLE
  8
VIA
 10
150.6250
 20
-83.7500
 40
0.5000
  0
CIRCLE
  8
VIA
 10
169.3750
 20
-83.7500
 40
0.5000
  0
CIRCLE
  8
VIA
 10
188.1250
 20
-83.7500
 40
0.5000
  0
CIRCLE
  8
VIA
 10
206.8750
 20
-83.7500
 40
0.5000
  0
CIRCLE
  8
VIA
 10
225.6250
 20
-83.7500
 40
0.5000
  0
CIRCLE
  8
VIA
 10
244.3750
 20
-83.7500
 40
0.5000
  0
CIRCLE
  8
VIA
 10
263.1250
 20
-83.7500
 40
0.5000
  0
CIRCLE
  8
VIA
 10
281.8750
 20
-83.7500
 40
0.5000
  0
CIRCLE
  8
VIA
 10
300.6250
 20
-83.7500
 40
0.5000
  0
CIRCLE
  8
VIA
 10
-280.6250
 20
-71.2500
 40
0.5000
  0
CIRCLE
  8
VIA
 10
-261.8750
 20
-71.2500
 40
0.5000
  0
CIRCLE
  8
VIA
 10
-243.1250
 20
-71.2500
 40
0.5000
  0
CIRCLE
  8
VIA
 10
-224.3750
 20
-71.2500
 40
0.5000
  0
CIRCLE
  8
VIA
 10
-205.6250
 20
-71.2500
 40
0.5000
  0
CIRCLE
  8
VIA
 10
-186.8750
 20
-71.2500
 40
0.5000
  0
CIRCLE
  8
VIA
 10
-168.1250
 20
-71.2500
 40
0.5000
  0
CIRCLE
  8
VIA
 10
-149.3750
 20
-71.2500
 40
0.5000
  0
CIRCLE
  8
VIA
 10
-130.6250
 20
-71.2500
 40
0.5000
  0
CIRCLE
  8
VIA
 10
-111.8750
 20
-71.2500
 40
0.5000
  0
CIRCLE
  8
VIA
 10
-93.1250
 20
-71.2500
 40
0.5000
  0
CIRCLE
  8
VIA
 10
-74.3750
 20
-71.2500
 40
0.5000
  0
CIRCLE
  8
VIA
 10
-55.6250
 20
-71.2500
 40
0.5000
  0
CIRCLE
  8
VIA
 10
-36.8750
 20
-71.2500
 40
0.5000
  0
CIRCLE
  8
VIA
 10
-18.1250
 20
-71.2500
 40
0.5000
  0
CIRCLE
  8
VIA
 10
0.6250
 20
-71.2500
 40
0.5000
  0
CIRCLE
  8
VIA
 10
19.3750
 20
-71.2500
 40
0.5000
  0
CIRCLE
  8
VIA
 10
38.1250
 20
-71.2500
 40
0.5000
  0
CIRCLE
  8
VIA
 10
56.8750
 20
-71.2500
 40
0.5000
  0
CIRCLE
  8
VIA
 10
75.6250
 20
-71.2500
 40
0.5000
  0
CIRCLE
  8
VIA
 10
94.3750
 20
-71.2500
 40
0.5000
  0
CIRCLE
  8
VIA
 10
113.1250
 20
-71.2500
 40
0.5000
  0
CIRCLE
  8
VIA
 10
131.8750
 20
-71.2500
 40
0.5000
  0
CIRCLE
  8
VIA
 10
150.6250
 20
-71.2500
 40
0.5000
  0
CIRCLE
  8
VIA
 10
169.3750
 20
-71.2500
 40
0.5000
  0
CIRCLE
  8
VIA
 10
188.1250
 20
-71.2500
 40
0.5000
  0
CIRCLE
  8
VIA
 10
206.8750
 20
-71.2500
 40
0.5000
  0
CIRCLE
  8
VIA
 10
225.6250
 20
-71.2500
 40
0.5000
  0
CIRCLE
  8
VIA
 10
244.3750
 20
-71.2500
 40
0.5000
  0
CIRCLE
  8
VIA
 10
263.1250
 20
-71.2500
 40
0.5000
  0
CIRCLE
  8
VIA
 10
281.8750
 20
-71.2500
 40
0.5000
  0
CIRCLE
  8
VIA
 10
300.6250
 20
-71.2500
 40
0.5000
  0
CIRCLE
  8
VIA
 10
-280.6250
 20
-58.7500
 40
0.5000
  0
CIRCLE
  8
VIA
 10
-261.8750
 20
-58.7500
 40
0.5000
  0
CIRCLE
  8
VIA
 10
-243.1250
 20
-58.7500
 40
0.5000
  0
CIRCLE
  8
VIA
 10
-224.3750
 20
-58.7500
 40
0.5000
  0
CIRCLE
  8
VIA
 10
-205.6250
 20
-58.7500
 40
0.5000
  0
CIRCLE
  8
VIA
 10
-186.8750
 20
-58.7500
 40
0.5000
  0
CIRCLE
  8
VIA
 10
-168.1250
 20
-58.7500
 40
0.5000
  0
CIRCLE
  8
VIA
 10
-149.3750
 20
-58.7500
 40
0.5000
  0
CIRCLE
  8
VIA
 10
-130.6250
 20
-58.7500
 40
0.5000
  0
CIRCLE
  8
VIA
 10
-111.8750
 20
-58.7500
 40
0.5000
  0
CIRCLE
  8
VIA
 10
-93.1250
 20
-58.7500
 40
0.5000
  0
CIRCLE
  8
VIA
 10
-74.3750
 20
-58.7500
 40
0.5000
  0
CIRCLE
  8
VIA
 10
-55.6250
 20
-58.7500
 40
0.5000
  0
CIRCLE
  8
VIA
 10
-36.8750
 20
-58.7500
 40
0.5000
  0
CIRCLE
  8
VIA
 10
-18.1250
 20
-58.7500
 40
0.5000
  0
CIRCLE
  8
VIA
 10
0.6250
 20
-58.7500
 40
0.5000
  0
CIRCLE
  8
VIA
 10
19.3750
 20
-58.7500
 40
0.5000
  0
CIRCLE
  8
VIA
 10
38.1250
 20
-58.7500
 40
0.5000
  0
CIRCLE
  8
VIA
 10
56.8750
 20
-58.7500
 40
0.5000
  0
CIRCLE
  8
VIA
 10
75.6250
 20
-58.7500
 40
0.5000
  0
CIRCLE
  8
VIA
 10
94.3750
 20
-58.7500
 40
0.5000
  0
CIRCLE
  8
VIA
 10
113.1250
 20
-58.7500
 40
0.5000
  0
CIRCLE
  8
VIA
 10
131.8750
 20
-58.7500
 40
0.5000
  0
CIRCLE
  8
VIA
 10
150.6250
 20
-58.7500
 40
0.5000
  0
CIRCLE
  8
VIA
 10
169.3750
 20
-58.7500
 40
0.5000
  0
CIRCLE
  8
VIA
 10
188.1250
 20
-58.7500
 40
0.5000
  0
CIRCLE
  8
VIA
 10
206.8750
 20
-58.7500
 40
0.5000
  0
CIRCLE
  8
VIA
 10
225.6250
 20
-58.7500
 40
0.5000
  0
CIRCLE
  8
VIA
 10
244.3750
 20
-58.7500
 40
0.5000
  0
CIRCLE
  8
VIA
 10
263.1250
 20
-58.7500
 40
0.5000
  0
CIRCLE
  8
VIA
 10
281.8750
 20
-58.7500
 40
0.5000
  0
CIRCLE
  8
VIA
 10
300.6250
 20
-58.7500
 40
0.5000
  0
CIRCLE
  8
VIA
 10
-280.6250
 20
-46.2500
 40
0.5000
  0
CIRCLE
  8
VIA
 10
-261.8750
 20
-46.2500
 40
0.5000
  0
CIRCLE
  8
VIA
 10
-243.1250
 20
-46.2500
 40
0.5000
  0
CIRCLE
  8
VIA
 10
-224.3750
 20
-46.2500
 40
0.5000
  0
CIRCLE
  8
VIA
 10
-205.6250
 20
-46.2500
 40
0.5000
  0
CIRCLE
  8
VIA
 10
-186.8750
 20
-46.2500
 40
0.5000
  0
CIRCLE
  8
VIA
 10
-168.1250
 20
-46.2500
 40
0.5000
  0
CIRCLE
  8
VIA
 10
-149.3750
 20
-46.2500
 40
0.5000
  0
CIRCLE
  8
VIA
 10
-130.6250
 20
-46.2500
 40
0.5000
  0
CIRCLE
  8
VIA
 10
-111.8750
 20
-46.2500
 40
0.5000
  0
CIRCLE
  8
VIA
 10
-93.1250
 20
-46.2500
 40
0.5000
  0
CIRCLE
  8
VIA
 10
-74.3750
 20
-46.2500
 40
0.5000
  0
CIRCLE
  8
VIA
 10
-55.6250
 20
-46.2500
 40
0.5000
  0
CIRCLE
  8
VIA
 10
-36.8750
 20
-46.2500
 40
0.5000
  0
CIRCLE
  8
VIA
 10
-18.1250
 20
-46.2500
 40
0.5000
  0
CIRCLE
  8
VIA
 10
0.6250
 20
-46.2500
 40
0.5000
  0
CIRCLE
  8
VIA
 10
19.3750
 20
-46.2500
 40
0.5000
  0
CIRCLE
  8
VIA
 10
38.1250
 20
-46.2500
 40
0.5000
  0
CIRCLE
  8
VIA
 10
56.8750
 20
-46.2500
 40
0.5000
  0
CIRCLE
  8
VIA
 10
75.6250
 20
-46.2500
 40
0.5000
  0
CIRCLE
  8
VIA
 10
94.3750
 20
-46.2500
 40
0.5000
  0
CIRCLE
  8
VIA
 10
113.1250
 20
-46.2500
 40
0.5000
  0
CIRCLE
  8
VIA
 10
131.8750
 20
-46.2500
 40
0.5000
  0
CIRCLE
  8
VIA
 10
150.6250
 20
-46.2500
 40
0.5000
  0
CIRCLE
  8
VIA
 10
169.3750
 20
-46.2500
 40
0.5000
  0
CIRCLE
  8
VIA
 10
188.1250
 20
-46.2500
 40
0.5000
  0
CIRCLE
  8
VIA
 10
206.8750
 20
-46.2500
 40
0.5000
  0
CIRCLE
  8
VIA
 10
225.6250
 20
-46.2500
 40
0.5000
  0
CIRCLE
  8
VIA
 10
244.3750
 20
-46.2500
 40
0.5000
  0
CIRCLE
  8
VIA
 10
263.1250
 20
-46.2500
 40
0.5000
  0
CIRCLE
  8
VIA
 10
281.8750
 20
-46.2500
 40
0.5000
  0
CIRCLE
  8
VIA
 10
300.6250
 20
-46.2500
 40
0.5000
  0
CIRCLE
  8
VIA
 10
-280.6250
 20
-33.7500
 40
0.5000
  0
CIRCLE
  8
VIA
 10
-261.8750
 20
-33.7500
 40
0.5000
  0
CIRCLE
  8
VIA
 10
-243.1250
 20
-33.7500
 40
0.5000
  0
CIRCLE
  8
VIA
 10
-224.3750
 20
-33.7500
 40
0.5000
  0
CIRCLE
  8
VIA
 10
-205.6250
 20
-33.7500
 40
0.5000
  0
CIRCLE
  8
VIA
 10
-186.8750
 20
-33.7500
 40
0.5000
  0
CIRCLE
  8
VIA
 10
-168.1250
 20
-33.7500
 40
0.5000
  0
CIRCLE
  8
VIA
 10
-149.3750
 20
-33.7500
 40
0.5000
  0
CIRCLE
  8
VIA
 10
-130.6250
 20
-33.7500
 40
0.5000
  0
CIRCLE
  8
VIA
 10
-111.8750
 20
-33.7500
 40
0.5000
  0
CIRCLE
  8
VIA
 10
-93.1250
 20
-33.7500
 40
0.5000
  0
CIRCLE
  8
VIA
 10
-74.3750
 20
-33.7500
 40
0.5000
  0
CIRCLE
  8
VIA
 10
-55.6250
 20
-33.7500
 40
0.5000
  0
CIRCLE
  8
VIA
 10
-36.8750
 20
-33.7500
 40
0.5000
  0
CIRCLE
  8
VIA
 10
-18.1250
 20
-33.7500
 40
0.5000
  0
CIRCLE
  8
VIA
 10
0.6250
 20
-33.7500
 40
0.5000
  0
CIRCLE
  8
VIA
 10
19.3750
 20
-33.7500
 40
0.5000
  0
CIRCLE
  8
VIA
 10
38.1250
 20
-33.7500
 40
0.5000
  0
CIRCLE
  8
VIA
 10
56.8750
 20
-33.7500
 40
0.5000
  0
CIRCLE
  8
VIA
 10
75.6250
 20
-33.7500
 40
0.5000
  0
CIRCLE
  8
VIA
 10
94.3750
 20
-33.7500
 40
0.5000
  0
CIRCLE
  8
VIA
 10
113.1250
 20
-33.7500
 40
0.5000
  0
CIRCLE
  8
VIA
 10
131.8750
 20
-33.7500
 40
0.5000
  0
CIRCLE
  8
VIA
 10
150.6250
 20
-33.7500
 40
0.5000
  0
CIRCLE
  8
VIA
 10
169.3750
 20
-33.7500
 40
0.5000
  0
CIRCLE
  8
VIA
 10
188.1250
 20
-33.7500
 40
0.5000
  0
CIRCLE
  8
VIA
 10
206.8750
 20
-33.7500
 40
0.5000
  0
CIRCLE
  8
VIA
 10
225.6250
 20
-33.7500
 40
0.5000
  0
CIRCLE
  8
VIA
 10
244.3750
 20
-33.7500
 40
0.5000
  0
CIRCLE
  8
VIA
 10
263.1250
 20
-33.7500
 40
0.5000
  0
CIRCLE
  8
VIA
 10
281.8750
 20
-33.7500
 40
0.5000
  0
CIRCLE
  8
VIA
 10
300.6250
 20
-33.7500
 40
0.5000
  0
CIRCLE
  8
VIA
 10
-280.6250
 20
-21.2500
 40
0.5000
  0
CIRCLE
  8
VIA
 10
-261.8750
 20
-21.2500
 40
0.5000
  0
CIRCLE
  8
VIA
 10
-243.1250
 20
-21.2500
 40
0.5000
  0
CIRCLE
  8
VIA
 10
-224.3750
 20
-21.2500
 40
0.5000
  0
CIRCLE
  8
VIA
 10
-205.6250
 20
-21.2500
 40
0.5000
  0
CIRCLE
  8
VIA
 10
-186.8750
 20
-21.2500
 40
0.5000
  0
CIRCLE
  8
VIA
 10
-168.1250
 20
-21.2500
 40
0.5000
  0
CIRCLE
  8
VIA
 10
-149.3750
 20
-21.2500
 40
0.5000
  0
CIRCLE
  8
VIA
 10
-130.6250
 20
-21.2500
 40
0.5000
  0
CIRCLE
  8
VIA
 10
-111.8750
 20
-21.2500
 40
0.5000
  0
CIRCLE
  8
VIA
 10
-93.1250
 20
-21.2500
 40
0.5000
  0
CIRCLE
  8
VIA
 10
-74.3750
 20
-21.2500
 40
0.5000
  0
CIRCLE
  8
VIA
 10
-55.6250
 20
-21.2500
 40
0.5000
  0
CIRCLE
  8
VIA
 10
-36.8750
 20
-21.2500
 40
0.5000
  0
CIRCLE
  8
VIA
 10
-18.1250
 20
-21.2500
 40
0.5000
  0
CIRCLE
  8
VIA
 10
0.6250
 20
-21.2500
 40
0.5000
  0
CIRCLE
  8
VIA
 10
19.3750
 20
-21.2500
 40
0.5000
  0
CIRCLE
  8
VIA
 10
38.1250
 20
-21.2500
 40
0.5000
  0
CIRCLE
  8
VIA
 10
56.8750
 20
-21.2500
 40
0.5000
  0
CIRCLE
  8
VIA
 10
75.6250
 20
-21.2500
 40
0.5000
  0
CIRCLE
  8
VIA
 10
94.3750
 20
-21.2500
 40
0.5000
  0
CIRCLE
  8
VIA
 10
113.1250
 20
-21.2500
 40
0.5000
  0
CIRCLE
  8
VIA
 10
131.8750
 20
-21.2500
 40
0.5000
  0
CIRCLE
  8
VIA
 10
150.6250
 20
-21.2500
 40
0.5000
  0
CIRCLE
  8
VIA
 10
169.3750
 20
-21.2500
 40
0.5000
  0
CIRCLE
  8
VIA
 10
188.1250
 20
-21.2500
 40
0.5000
  0
CIRCLE
  8
VIA
 10
206.8750
 20
-21.2500
 40
0.5000
  0
CIRCLE
  8
VIA
 10
225.6250
 20
-21.2500
 40
0.5000
  0
CIRCLE
  8
VIA
 10
244.3750
 20
-21.2500
 40
0.5000
  0
CIRCLE
  8
VIA
 10
263.1250
 20
-21.2500
 40
0.5000
  0
CIRCLE
  8
VIA
 10
281.8750
 20
-21.2500
 40
0.5000
  0
CIRCLE
  8
VIA
 10
300.6250
 20
-21.2500
 40
0.5000
  0
CIRCLE
  8
VIA
 10
-280.6250
 20
-8.7500
 40
0.5000
  0
CIRCLE
  8
VIA
 10
-261.8750
 20
-8.7500
 40
0.5000
  0
CIRCLE
  8
VIA
 10
-243.1250
 20
-8.7500
 40
0.5000
  0
CIRCLE
  8
VIA
 10
-224.3750
 20
-8.7500
 40
0.5000
  0
CIRCLE
  8
VIA
 10
-205.6250
 20
-8.7500
 40
0.5000
  0
CIRCLE
  8
VIA
 10
-186.8750
 20
-8.7500
 40
0.5000
  0
CIRCLE
  8
VIA
 10
-168.1250
 20
-8.7500
 40
0.5000
  0
CIRCLE
  8
VIA
 10
-149.3750
 20
-8.7500
 40
0.5000
  0
CIRCLE
  8
VIA
 10
-130.6250
 20
-8.7500
 40
0.5000
  0
CIRCLE
  8
VIA
 10
-111.8750
 20
-8.7500
 40
0.5000
  0
CIRCLE
  8
VIA
 10
-93.1250
 20
-8.7500
 40
0.5000
  0
CIRCLE
  8
VIA
 10
-74.3750
 20
-8.7500
 40
0.5000
  0
CIRCLE
  8
VIA
 10
-55.6250
 20
-8.7500
 40
0.5000
  0
CIRCLE
  8
VIA
 10
-36.8750
 20
-8.7500
 40
0.5000
  0
CIRCLE
  8
VIA
 10
-18.1250
 20
-8.7500
 40
0.5000
  0
CIRCLE
  8
VIA
 10
0.6250
 20
-8.7500
 40
0.5000
  0
CIRCLE
  8
VIA
 10
19.3750
 20
-8.7500
 40
0.5000
  0
CIRCLE
  8
VIA
 10
38.1250
 20
-8.7500
 40
0.5000
  0
CIRCLE
  8
VIA
 10
56.8750
 20
-8.7500
 40
0.5000
  0
CIRCLE
  8
VIA
 10
75.6250
 20
-8.7500
 40
0.5000
  0
CIRCLE
  8
VIA
 10
94.3750
 20
-8.7500
 40
0.5000
  0
CIRCLE
  8
VIA
 10
113.1250
 20
-8.7500
 40
0.5000
  0
CIRCLE
  8
VIA
 10
131.8750
 20
-8.7500
 40
0.5000
  0
CIRCLE
  8
VIA
 10
150.6250
 20
-8.7500
 40
0.5000
  0
CIRCLE
  8
VIA
 10
169.3750
 20
-8.7500
 40
0.5000
  0
CIRCLE
  8
VIA
 10
188.1250
 20
-8.7500
 40
0.5000
  0
CIRCLE
  8
VIA
 10
206.8750
 20
-8.7500
 40
0.5000
  0
CIRCLE
  8
VIA
 10
225.6250
 20
-8.7500
 40
0.5000
  0
CIRCLE
  8
VIA
 10
244.3750
 20
-8.7500
 40
0.5000
  0
CIRCLE
  8
VIA
 10
263.1250
 20
-8.7500
 40
0.5000
  0
CIRCLE
  8
VIA
 10
281.8750
 20
-8.7500
 40
0.5000
  0
CIRCLE
  8
VIA
 10
300.6250
 20
-8.7500
 40
0.5000
  0
CIRCLE
  8
VIA
 10
-280.6250
 20
3.7500
 40
0.5000
  0
CIRCLE
  8
VIA
 10
-261.8750
 20
3.7500
 40
0.5000
  0
CIRCLE
  8
VIA
 10
-243.1250
 20
3.7500
 40
0.5000
  0
CIRCLE
  8
VIA
 10
-224.3750
 20
3.7500
 40
0.5000
  0
CIRCLE
  8
VIA
 10
-205.6250
 20
3.7500
 40
0.5000
  0
CIRCLE
  8
VIA
 10
-186.8750
 20
3.7500
 40
0.5000
  0
CIRCLE
  8
VIA
 10
-168.1250
 20
3.7500
 40
0.5000
  0
CIRCLE
  8
VIA
 10
-149.3750
 20
3.7500
 40
0.5000
  0
CIRCLE
  8
VIA
 10
-130.6250
 20
3.7500
 40
0.5000
  0
CIRCLE
  8
VIA
 10
-111.8750
 20
3.7500
 40
0.5000
  0
CIRCLE
  8
VIA
 10
-93.1250
 20
3.7500
 40
0.5000
  0
CIRCLE
  8
VIA
 10
-74.3750
 20
3.7500
 40
0.5000
  0
CIRCLE
  8
VIA
 10
-55.6250
 20
3.7500
 40
0.5000
  0
CIRCLE
  8
VIA
 10
-36.8750
 20
3.7500
 40
0.5000
  0
CIRCLE
  8
VIA
 10
-18.1250
 20
3.7500
 40
0.5000
  0
CIRCLE
  8
VIA
 10
0.6250
 20
3.7500
 40
0.5000
  0
CIRCLE
  8
VIA
 10
19.3750
 20
3.7500
 40
0.5000
  0
CIRCLE
  8
VIA
 10
38.1250
 20
3.7500
 40
0.5000
  0
CIRCLE
  8
VIA
 10
56.8750
 20
3.7500
 40
0.5000
  0
CIRCLE
  8
VIA
 10
75.6250
 20
3.7500
 40
0.5000
  0
CIRCLE
  8
VIA
 10
94.3750
 20
3.7500
 40
0.5000
  0
CIRCLE
  8
VIA
 10
113.1250
 20
3.7500
 40
0.5000
  0
CIRCLE
  8
VIA
 10
131.8750
 20
3.7500
 40
0.5000
  0
CIRCLE
  8
VIA
 10
150.6250
 20
3.7500
 40
0.5000
  0
CIRCLE
  8
VIA
 10
169.3750
 20
3.7500
 40
0.5000
  0
CIRCLE
  8
VIA
 10
188.1250
 20
3.7500
 40
0.5000
  0
CIRCLE
  8
VIA
 10
206.8750
 20
3.7500
 40
0.5000
  0
CIRCLE
  8
VIA
 10
225.6250
 20
3.7500
 40
0.5000
  0
CIRCLE
  8
VIA
 10
244.3750
 20
3.7500
 40
0.5000
  0
CIRCLE
  8
VIA
 10
263.1250
 20
3.7500
 40
0.5000
  0
CIRCLE
  8
VIA
 10
281.8750
 20
3.7500
 40
0.5000
  0
CIRCLE
  8
VIA
 10
300.6250
 20
3.7500
 40
0.5000
  0
CIRCLE
  8
VIA
 10
-280.6250
 20
16.2500
 40
0.5000
  0
CIRCLE
  8
VIA
 10
-261.8750
 20
16.2500
 40
0.5000
  0
CIRCLE
  8
VIA
 10
-243.1250
 20
16.2500
 40
0.5000
  0
CIRCLE
  8
VIA
 10
-224.3750
 20
16.2500
 40
0.5000
  0
CIRCLE
  8
VIA
 10
-205.6250
 20
16.2500
 40
0.5000
  0
CIRCLE
  8
VIA
 10
-186.8750
 20
16.2500
 40
0.5000
  0
CIRCLE
  8
VIA
 10
-168.1250
 20
16.2500
 40
0.5000
  0
CIRCLE
  8
VIA
 10
-149.3750
 20
16.2500
 40
0.5000
  0
CIRCLE
  8
VIA
 10
-130.6250
 20
16.2500
 40
0.5000
  0
CIRCLE
  8
VIA
 10
-111.8750
 20
16.2500
 40
0.5000
  0
CIRCLE
  8
VIA
 10
-93.1250
 20
16.2500
 40
0.5000
  0
CIRCLE
  8
VIA
 10
-74.3750
 20
16.2500
 40
0.5000
  0
CIRCLE
  8
VIA
 10
-55.6250
 20
16.2500
 40
0.5000
  0
CIRCLE
  8
VIA
 10
-36.8750
 20
16.2500
 40
0.5000
  0
CIRCLE
  8
VIA
 10
-18.1250
 20
16.2500
 40
0.5000
  0
CIRCLE
  8
VIA
 10
0.6250
 20
16.2500
 40
0.5000
  0
CIRCLE
  8
VIA
 10
19.3750
 20
16.2500
 40
0.5000
  0
CIRCLE
  8
VIA
 10
38.1250
 20
16.2500
 40
0.5000
  0
CIRCLE
  8
VIA
 10
56.8750
 20
16.2500
 40
0.5000
  0
CIRCLE
  8
VIA
 10
75.6250
 20
16.2500
 40
0.5000
  0
CIRCLE
  8
VIA
 10
94.3750
 20
16.2500
 40
0.5000
  0
CIRCLE
  8
VIA
 10
113.1250
 20
16.2500
 40
0.5000
  0
CIRCLE
  8
VIA
 10
131.8750
 20
16.2500
 40
0.5000
  0
CIRCLE
  8
VIA
 10
150.6250
 20
16.2500
 40
0.5000
  0
CIRCLE
  8
VIA
 10
169.3750
 20
16.2500
 40
0.5000
  0
CIRCLE
  8
VIA
 10
188.1250
 20
16.2500
 40
0.5000
  0
CIRCLE
  8
VIA
 10
206.8750
 20
16.2500
 40
0.5000
  0
CIRCLE
  8
VIA
 10
225.6250
 20
16.2500
 40
0.5000
  0
CIRCLE
  8
VIA
 10
244.3750
 20
16.2500
 40
0.5000
  0
CIRCLE
  8
VIA
 10
263.1250
 20
16.2500
 40
0.5000
  0
CIRCLE
  8
VIA
 10
281.8750
 20
16.2500
 40
0.5000
  0
CIRCLE
  8
VIA
 10
300.6250
 20
16.2500
 40
0.5000
  0
CIRCLE
  8
VIA
 10
-280.6250
 20
28.7500
 40
0.5000
  0
CIRCLE
  8
VIA
 10
-261.8750
 20
28.7500
 40
0.5000
  0
CIRCLE
  8
VIA
 10
-243.1250
 20
28.7500
 40
0.5000
  0
CIRCLE
  8
VIA
 10
-224.3750
 20
28.7500
 40
0.5000
  0
CIRCLE
  8
VIA
 10
-205.6250
 20
28.7500
 40
0.5000
  0
CIRCLE
  8
VIA
 10
-186.8750
 20
28.7500
 40
0.5000
  0
CIRCLE
  8
VIA
 10
-168.1250
 20
28.7500
 40
0.5000
  0
CIRCLE
  8
VIA
 10
-149.3750
 20
28.7500
 40
0.5000
  0
CIRCLE
  8
VIA
 10
-130.6250
 20
28.7500
 40
0.5000
  0
CIRCLE
  8
VIA
 10
-111.8750
 20
28.7500
 40
0.5000
  0
CIRCLE
  8
VIA
 10
-93.1250
 20
28.7500
 40
0.5000
  0
CIRCLE
  8
VIA
 10
-74.3750
 20
28.7500
 40
0.5000
  0
CIRCLE
  8
VIA
 10
-55.6250
 20
28.7500
 40
0.5000
  0
CIRCLE
  8
VIA
 10
-36.8750
 20
28.7500
 40
0.5000
  0
CIRCLE
  8
VIA
 10
-18.1250
 20
28.7500
 40
0.5000
  0
CIRCLE
  8
VIA
 10
0.6250
 20
28.7500
 40
0.5000
  0
CIRCLE
  8
VIA
 10
19.3750
 20
28.7500
 40
0.5000
  0
CIRCLE
  8
VIA
 10
38.1250
 20
28.7500
 40
0.5000
  0
CIRCLE
  8
VIA
 10
56.8750
 20
28.7500
 40
0.5000
  0
CIRCLE
  8
VIA
 10
75.6250
 20
28.7500
 40
0.5000
  0
CIRCLE
  8
VIA
 10
94.3750
 20
28.7500
 40
0.5000
  0
CIRCLE
  8
VIA
 10
113.1250
 20
28.7500
 40
0.5000
  0
CIRCLE
  8
VIA
 10
131.8750
 20
28.7500
 40
0.5000
  0
CIRCLE
  8
VIA
 10
150.6250
 20
28.7500
 40
0.5000
  0
CIRCLE
  8
VIA
 10
169.3750
 20
28.7500
 40
0.5000
  0
CIRCLE
  8
VIA
 10
188.1250
 20
28.7500
 40
0.5000
  0
CIRCLE
  8
VIA
 10
206.8750
 20
28.7500
 40
0.5000
  0
CIRCLE
  8
VIA
 10
225.6250
 20
28.7500
 40
0.5000
  0
CIRCLE
  8
VIA
 10
244.3750
 20
28.7500
 40
0.5000
  0
CIRCLE
  8
VIA
 10
263.1250
 20
28.7500
 40
0.5000
  0
CIRCLE
  8
VIA
 10
281.8750
 20
28.7500
 40
0.5000
  0
CIRCLE
  8
VIA
 10
300.6250
 20
28.7500
 40
0.5000
  0
CIRCLE
  8
VIA
 10
-280.6250
 20
41.2500
 40
0.5000
  0
CIRCLE
  8
VIA
 10
-261.8750
 20
41.2500
 40
0.5000
  0
CIRCLE
  8
VIA
 10
-243.1250
 20
41.2500
 40
0.5000
  0
CIRCLE
  8
VIA
 10
-224.3750
 20
41.2500
 40
0.5000
  0
CIRCLE
  8
VIA
 10
-205.6250
 20
41.2500
 40
0.5000
  0
CIRCLE
  8
VIA
 10
-186.8750
 20
41.2500
 40
0.5000
  0
CIRCLE
  8
VIA
 10
-168.1250
 20
41.2500
 40
0.5000
  0
CIRCLE
  8
VIA
 10
-149.3750
 20
41.2500
 40
0.5000
  0
CIRCLE
  8
VIA
 10
-130.6250
 20
41.2500
 40
0.5000
  0
CIRCLE
  8
VIA
 10
-111.8750
 20
41.2500
 40
0.5000
  0
CIRCLE
  8
VIA
 10
-93.1250
 20
41.2500
 40
0.5000
  0
CIRCLE
  8
VIA
 10
-74.3750
 20
41.2500
 40
0.5000
  0
CIRCLE
  8
VIA
 10
-55.6250
 20
41.2500
 40
0.5000
  0
CIRCLE
  8
VIA
 10
-36.8750
 20
41.2500
 40
0.5000
  0
CIRCLE
  8
VIA
 10
-18.1250
 20
41.2500
 40
0.5000
  0
CIRCLE
  8
VIA
 10
0.6250
 20
41.2500
 40
0.5000
  0
CIRCLE
  8
VIA
 10
19.3750
 20
41.2500
 40
0.5000
  0
CIRCLE
  8
VIA
 10
38.1250
 20
41.2500
 40
0.5000
  0
CIRCLE
  8
VIA
 10
56.8750
 20
41.2500
 40
0.5000
  0
CIRCLE
  8
VIA
 10
75.6250
 20
41.2500
 40
0.5000
  0
CIRCLE
  8
VIA
 10
94.3750
 20
41.2500
 40
0.5000
  0
CIRCLE
  8
VIA
 10
113.1250
 20
41.2500
 40
0.5000
  0
CIRCLE
  8
VIA
 10
131.8750
 20
41.2500
 40
0.5000
  0
CIRCLE
  8
VIA
 10
150.6250
 20
41.2500
 40
0.5000
  0
CIRCLE
  8
VIA
 10
169.3750
 20
41.2500
 40
0.5000
  0
CIRCLE
  8
VIA
 10
188.1250
 20
41.2500
 40
0.5000
  0
CIRCLE
  8
VIA
 10
206.8750
 20
41.2500
 40
0.5000
  0
CIRCLE
  8
VIA
 10
225.6250
 20
41.2500
 40
0.5000
  0
CIRCLE
  8
VIA
 10
244.3750
 20
41.2500
 40
0.5000
  0
CIRCLE
  8
VIA
 10
263.1250
 20
41.2500
 40
0.5000
  0
CIRCLE
  8
VIA
 10
281.8750
 20
41.2500
 40
0.5000
  0
CIRCLE
  8
VIA
 10
300.6250
 20
41.2500
 40
0.5000
  0
CIRCLE
  8
VIA
 10
-280.6250
 20
53.7500
 40
0.5000
  0
CIRCLE
  8
VIA
 10
-261.8750
 20
53.7500
 40
0.5000
  0
CIRCLE
  8
VIA
 10
-243.1250
 20
53.7500
 40
0.5000
  0
CIRCLE
  8
VIA
 10
-224.3750
 20
53.7500
 40
0.5000
  0
CIRCLE
  8
VIA
 10
-205.6250
 20
53.7500
 40
0.5000
  0
CIRCLE
  8
VIA
 10
-186.8750
 20
53.7500
 40
0.5000
  0
CIRCLE
  8
VIA
 10
-168.1250
 20
53.7500
 40
0.5000
  0
CIRCLE
  8
VIA
 10
-149.3750
 20
53.7500
 40
0.5000
  0
CIRCLE
  8
VIA
 10
-130.6250
 20
53.7500
 40
0.5000
  0
CIRCLE
  8
VIA
 10
-111.8750
 20
53.7500
 40
0.5000
  0
CIRCLE
  8
VIA
 10
-93.1250
 20
53.7500
 40
0.5000
  0
CIRCLE
  8
VIA
 10
-74.3750
 20
53.7500
 40
0.5000
  0
CIRCLE
  8
VIA
 10
-55.6250
 20
53.7500
 40
0.5000
  0
CIRCLE
  8
VIA
 10
-36.8750
 20
53.7500
 40
0.5000
  0
CIRCLE
  8
VIA
 10
-18.1250
 20
53.7500
 40
0.5000
  0
CIRCLE
  8
VIA
 10
0.6250
 20
53.7500
 40
0.5000
  0
CIRCLE
  8
VIA
 10
19.3750
 20
53.7500
 40
0.5000
  0
CIRCLE
  8
VIA
 10
38.1250
 20
53.7500
 40
0.5000
  0
CIRCLE
  8
VIA
 10
56.8750
 20
53.7500
 40
0.5000
  0
CIRCLE
  8
VIA
 10
75.6250
 20
53.7500
 40
0.5000
  0
CIRCLE
  8
VIA
 10
94.3750
 20
53.7500
 40
0.5000
  0
CIRCLE
  8
VIA
 10
113.1250
 20
53.7500
 40
0.5000
  0
CIRCLE
  8
VIA
 10
131.8750
 20
53.7500
 40
0.5000
  0
CIRCLE
  8
VIA
 10
150.6250
 20
53.7500
 40
0.5000
  0
CIRCLE
  8
VIA
 10
169.3750
 20
53.7500
 40
0.5000
  0
CIRCLE
  8
VIA
 10
188.1250
 20
53.7500
 40
0.5000
  0
CIRCLE
  8
VIA
 10
206.8750
 20
53.7500
 40
0.5000
  0
CIRCLE
  8
VIA
 10
225.6250
 20
53.7500
 40
0.5000
  0
CIRCLE
  8
VIA
 10
244.3750
 20
53.7500
 40
0.5000
  0
CIRCLE
  8
VIA
 10
263.1250
 20
53.7500
 40
0.5000
  0
CIRCLE
  8
VIA
 10
281.8750
 20
53.7500
 40
0.5000
  0
CIRCLE
  8
VIA
 10
300.6250
 20
53.7500
 40
0.5000
  0
CIRCLE
  8
VIA
 10
-280.6250
 20
66.2500
 40
0.5000
  0
CIRCLE
  8
VIA
 10
-261.8750
 20
66.2500
 40
0.5000
  0
CIRCLE
  8
VIA
 10
-243.1250
 20
66.2500
 40
0.5000
  0
CIRCLE
  8
VIA
 10
-224.3750
 20
66.2500
 40
0.5000
  0
CIRCLE
  8
VIA
 10
-205.6250
 20
66.2500
 40
0.5000
  0
CIRCLE
  8
VIA
 10
-186.8750
 20
66.2500
 40
0.5000
  0
CIRCLE
  8
VIA
 10
-168.1250
 20
66.2500
 40
0.5000
  0
CIRCLE
  8
VIA
 10
-149.3750
 20
66.2500
 40
0.5000
  0
CIRCLE
  8
VIA
 10
-130.6250
 20
66.2500
 40
0.5000
  0
CIRCLE
  8
VIA
 10
-111.8750
 20
66.2500
 40
0.5000
  0
CIRCLE
  8
VIA
 10
-93.1250
 20
66.2500
 40
0.5000
  0
CIRCLE
  8
VIA
 10
-74.3750
 20
66.2500
 40
0.5000
  0
CIRCLE
  8
VIA
 10
-55.6250
 20
66.2500
 40
0.5000
  0
CIRCLE
  8
VIA
 10
-36.8750
 20
66.2500
 40
0.5000
  0
CIRCLE
  8
VIA
 10
-18.1250
 20
66.2500
 40
0.5000
  0
CIRCLE
  8
VIA
 10
0.6250
 20
66.2500
 40
0.5000
  0
CIRCLE
  8
VIA
 10
19.3750
 20
66.2500
 40
0.5000
  0
CIRCLE
  8
VIA
 10
38.1250
 20
66.2500
 40
0.5000
  0
CIRCLE
  8
VIA
 10
56.8750
 20
66.2500
 40
0.5000
  0
CIRCLE
  8
VIA
 10
75.6250
 20
66.2500
 40
0.5000
  0
CIRCLE
  8
VIA
 10
94.3750
 20
66.2500
 40
0.5000
  0
CIRCLE
  8
VIA
 10
113.1250
 20
66.2500
 40
0.5000
  0
CIRCLE
  8
VIA
 10
131.8750
 20
66.2500
 40
0.5000
  0
CIRCLE
  8
VIA
 10
150.6250
 20
66.2500
 40
0.5000
  0
CIRCLE
  8
VIA
 10
169.3750
 20
66.2500
 40
0.5000
  0
CIRCLE
  8
VIA
 10
188.1250
 20
66.2500
 40
0.5000
  0
CIRCLE
  8
VIA
 10
206.8750
 20
66.2500
 40
0.5000
  0
CIRCLE
  8
VIA
 10
225.6250
 20
66.2500
 40
0.5000
  0
CIRCLE
  8
VIA
 10
244.3750
 20
66.2500
 40
0.5000
  0
CIRCLE
  8
VIA
 10
263.1250
 20
66.2500
 40
0.5000
  0
CIRCLE
  8
VIA
 10
281.8750
 20
66.2500
 40
0.5000
  0
CIRCLE
  8
VIA
 10
300.6250
 20
66.2500
 40
0.5000
  0
CIRCLE
  8
VIA
 10
-280.6250
 20
78.7500
 40
0.5000
  0
CIRCLE
  8
VIA
 10
-261.8750
 20
78.7500
 40
0.5000
  0
CIRCLE
  8
VIA
 10
-243.1250
 20
78.7500
 40
0.5000
  0
CIRCLE
  8
VIA
 10
-224.3750
 20
78.7500
 40
0.5000
  0
CIRCLE
  8
VIA
 10
-205.6250
 20
78.7500
 40
0.5000
  0
CIRCLE
  8
VIA
 10
-186.8750
 20
78.7500
 40
0.5000
  0
CIRCLE
  8
VIA
 10
-168.1250
 20
78.7500
 40
0.5000
  0
CIRCLE
  8
VIA
 10
-149.3750
 20
78.7500
 40
0.5000
  0
CIRCLE
  8
VIA
 10
-130.6250
 20
78.7500
 40
0.5000
  0
CIRCLE
  8
VIA
 10
-111.8750
 20
78.7500
 40
0.5000
  0
CIRCLE
  8
VIA
 10
-93.1250
 20
78.7500
 40
0.5000
  0
CIRCLE
  8
VIA
 10
-74.3750
 20
78.7500
 40
0.5000
  0
CIRCLE
  8
VIA
 10
-55.6250
 20
78.7500
 40
0.5000
  0
CIRCLE
  8
VIA
 10
-36.8750
 20
78.7500
 40
0.5000
  0
CIRCLE
  8
VIA
 10
-18.1250
 20
78.7500
 40
0.5000
  0
CIRCLE
  8
VIA
 10
0.6250
 20
78.7500
 40
0.5000
  0
CIRCLE
  8
VIA
 10
19.3750
 20
78.7500
 40
0.5000
  0
CIRCLE
  8
VIA
 10
38.1250
 20
78.7500
 40
0.5000
  0
CIRCLE
  8
VIA
 10
56.8750
 20
78.7500
 40
0.5000
  0
CIRCLE
  8
VIA
 10
75.6250
 20
78.7500
 40
0.5000
  0
CIRCLE
  8
VIA
 10
94.3750
 20
78.7500
 40
0.5000
  0
CIRCLE
  8
VIA
 10
113.1250
 20
78.7500
 40
0.5000
  0
CIRCLE
  8
VIA
 10
131.8750
 20
78.7500
 40
0.5000
  0
CIRCLE
  8
VIA
 10
150.6250
 20
78.7500
 40
0.5000
  0
CIRCLE
  8
VIA
 10
169.3750
 20
78.7500
 40
0.5000
  0
CIRCLE
  8
VIA
 10
188.1250
 20
78.7500
 40
0.5000
  0
CIRCLE
  8
VIA
 10
206.8750
 20
78.7500
 40
0.5000
  0
CIRCLE
  8
VIA
 10
225.6250
 20
78.7500
 40
0.5000
  0
CIRCLE
  8
VIA
 10
244.3750
 20
78.7500
 40
0.5000
  0
CIRCLE
  8
VIA
 10
263.1250
 20
78.7500
 40
0.5000
  0
CIRCLE
  8
VIA
 10
281.8750
 20
78.7500
 40
0.5000
  0
CIRCLE
  8
VIA
 10
300.6250
 20
78.7500
 40
0.5000
  0
CIRCLE
  8
VIA
 10
-280.6250
 20
91.2500
 40
0.5000
  0
CIRCLE
  8
VIA
 10
-261.8750
 20
91.2500
 40
0.5000
  0
CIRCLE
  8
VIA
 10
-243.1250
 20
91.2500
 40
0.5000
  0
CIRCLE
  8
VIA
 10
-224.3750
 20
91.2500
 40
0.5000
  0
CIRCLE
  8
VIA
 10
-205.6250
 20
91.2500
 40
0.5000
  0
CIRCLE
  8
VIA
 10
-186.8750
 20
91.2500
 40
0.5000
  0
CIRCLE
  8
VIA
 10
-168.1250
 20
91.2500
 40
0.5000
  0
CIRCLE
  8
VIA
 10
-149.3750
 20
91.2500
 40
0.5000
  0
CIRCLE
  8
VIA
 10
-130.6250
 20
91.2500
 40
0.5000
  0
CIRCLE
  8
VIA
 10
-111.8750
 20
91.2500
 40
0.5000
  0
CIRCLE
  8
VIA
 10
-93.1250
 20
91.2500
 40
0.5000
  0
CIRCLE
  8
VIA
 10
-74.3750
 20
91.2500
 40
0.5000
  0
CIRCLE
  8
VIA
 10
-55.6250
 20
91.2500
 40
0.5000
  0
CIRCLE
  8
VIA
 10
-36.8750
 20
91.2500
 40
0.5000
  0
CIRCLE
  8
VIA
 10
-18.1250
 20
91.2500
 40
0.5000
  0
CIRCLE
  8
VIA
 10
0.6250
 20
91.2500
 40
0.5000
  0
CIRCLE
  8
VIA
 10
19.3750
 20
91.2500
 40
0.5000
  0
CIRCLE
  8
VIA
 10
38.1250
 20
91.2500
 40
0.5000
  0
CIRCLE
  8
VIA
 10
56.8750
 20
91.2500
 40
0.5000
  0
CIRCLE
  8
VIA
 10
75.6250
 20
91.2500
 40
0.5000
  0
CIRCLE
  8
VIA
 10
94.3750
 20
91.2500
 40
0.5000
  0
CIRCLE
  8
VIA
 10
113.1250
 20
91.2500
 40
0.5000
  0
CIRCLE
  8
VIA
 10
131.8750
 20
91.2500
 40
0.5000
  0
CIRCLE
  8
VIA
 10
150.6250
 20
91.2500
 40
0.5000
  0
CIRCLE
  8
VIA
 10
169.3750
 20
91.2500
 40
0.5000
  0
CIRCLE
  8
VIA
 10
188.1250
 20
91.2500
 40
0.5000
  0
CIRCLE
  8
VIA
 10
206.8750
 20
91.2500
 40
0.5000
  0
CIRCLE
  8
VIA
 10
225.6250
 20
91.2500
 40
0.5000
  0
CIRCLE
  8
VIA
 10
244.3750
 20
91.2500
 40
0.5000
  0
CIRCLE
  8
VIA
 10
263.1250
 20
91.2500
 40
0.5000
  0
CIRCLE
  8
VIA
 10
281.8750
 20
91.2500
 40
0.5000
  0
CIRCLE
  8
VIA
 10
300.6250
 20
91.2500
 40
0.5000
  0
CIRCLE
  8
VIA
 10
-280.6250
 20
103.7500
 40
0.5000
  0
CIRCLE
  8
VIA
 10
-261.8750
 20
103.7500
 40
0.5000
  0
CIRCLE
  8
VIA
 10
-243.1250
 20
103.7500
 40
0.5000
  0
CIRCLE
  8
VIA
 10
-224.3750
 20
103.7500
 40
0.5000
  0
CIRCLE
  8
VIA
 10
-205.6250
 20
103.7500
 40
0.5000
  0
CIRCLE
  8
VIA
 10
-186.8750
 20
103.7500
 40
0.5000
  0
CIRCLE
  8
VIA
 10
-168.1250
 20
103.7500
 40
0.5000
  0
CIRCLE
  8
VIA
 10
-149.3750
 20
103.7500
 40
0.5000
  0
CIRCLE
  8
VIA
 10
-130.6250
 20
103.7500
 40
0.5000
  0
CIRCLE
  8
VIA
 10
-111.8750
 20
103.7500
 40
0.5000
  0
CIRCLE
  8
VIA
 10
-93.1250
 20
103.7500
 40
0.5000
  0
CIRCLE
  8
VIA
 10
-74.3750
 20
103.7500
 40
0.5000
  0
CIRCLE
  8
VIA
 10
-55.6250
 20
103.7500
 40
0.5000
  0
CIRCLE
  8
VIA
 10
-36.8750
 20
103.7500
 40
0.5000
  0
CIRCLE
  8
VIA
 10
-18.1250
 20
103.7500
 40
0.5000
  0
CIRCLE
  8
VIA
 10
0.6250
 20
103.7500
 40
0.5000
  0
CIRCLE
  8
VIA
 10
19.3750
 20
103.7500
 40
0.5000
  0
CIRCLE
  8
VIA
 10
38.1250
 20
103.7500
 40
0.5000
  0
CIRCLE
  8
VIA
 10
56.8750
 20
103.7500
 40
0.5000
  0
CIRCLE
  8
VIA
 10
75.6250
 20
103.7500
 40
0.5000
  0
CIRCLE
  8
VIA
 10
94.3750
 20
103.7500
 40
0.5000
  0
CIRCLE
  8
VIA
 10
113.1250
 20
103.7500
 40
0.5000
  0
CIRCLE
  8
VIA
 10
131.8750
 20
103.7500
 40
0.5000
  0
CIRCLE
  8
VIA
 10
150.6250
 20
103.7500
 40
0.5000
  0
CIRCLE
  8
VIA
 10
169.3750
 20
103.7500
 40
0.5000
  0
CIRCLE
  8
VIA
 10
188.1250
 20
103.7500
 40
0.5000
  0
CIRCLE
  8
VIA
 10
206.8750
 20
103.7500
 40
0.5000
  0
CIRCLE
  8
VIA
 10
225.6250
 20
103.7500
 40
0.5000
  0
CIRCLE
  8
VIA
 10
244.3750
 20
103.7500
 40
0.5000
  0
CIRCLE
  8
VIA
 10
263.1250
 20
103.7500
 40
0.5000
  0
CIRCLE
  8
VIA
 10
281.8750
 20
103.7500
 40
0.5000
  0
CIRCLE
  8
VIA
 10
300.6250
 20
103.7500
 40
0.5000
  0
CIRCLE
  8
VIA
 10
-280.6250
 20
116.2500
 40
0.5000
  0
CIRCLE
  8
VIA
 10
-261.8750
 20
116.2500
 40
0.5000
  0
CIRCLE
  8
VIA
 10
-243.1250
 20
116.2500
 40
0.5000
  0
CIRCLE
  8
VIA
 10
-224.3750
 20
116.2500
 40
0.5000
  0
CIRCLE
  8
VIA
 10
-205.6250
 20
116.2500
 40
0.5000
  0
CIRCLE
  8
VIA
 10
-186.8750
 20
116.2500
 40
0.5000
  0
CIRCLE
  8
VIA
 10
-168.1250
 20
116.2500
 40
0.5000
  0
CIRCLE
  8
VIA
 10
-149.3750
 20
116.2500
 40
0.5000
  0
CIRCLE
  8
VIA
 10
-130.6250
 20
116.2500
 40
0.5000
  0
CIRCLE
  8
VIA
 10
-111.8750
 20
116.2500
 40
0.5000
  0
CIRCLE
  8
VIA
 10
-93.1250
 20
116.2500
 40
0.5000
  0
CIRCLE
  8
VIA
 10
-74.3750
 20
116.2500
 40
0.5000
  0
CIRCLE
  8
VIA
 10
-55.6250
 20
116.2500
 40
0.5000
  0
CIRCLE
  8
VIA
 10
-36.8750
 20
116.2500
 40
0.5000
  0
CIRCLE
  8
VIA
 10
-18.1250
 20
116.2500
 40
0.5000
  0
CIRCLE
  8
VIA
 10
0.6250
 20
116.2500
 40
0.5000
  0
CIRCLE
  8
VIA
 10
19.3750
 20
116.2500
 40
0.5000
  0
CIRCLE
  8
VIA
 10
38.1250
 20
116.2500
 40
0.5000
  0
CIRCLE
  8
VIA
 10
56.8750
 20
116.2500
 40
0.5000
  0
CIRCLE
  8
VIA
 10
75.6250
 20
116.2500
 40
0.5000
  0
CIRCLE
  8
VIA
 10
94.3750
 20
116.2500
 40
0.5000
  0
CIRCLE
  8
VIA
 10
113.1250
 20
116.2500
 40
0.5000
  0
CIRCLE
  8
VIA
 10
131.8750
 20
116.2500
 40
0.5000
  0
CIRCLE
  8
VIA
 10
150.6250
 20
116.2500
 40
0.5000
  0
CIRCLE
  8
VIA
 10
169.3750
 20
116.2500
 40
0.5000
  0
CIRCLE
  8
VIA
 10
188.1250
 20
116.2500
 40
0.5000
  0
CIRCLE
  8
VIA
 10
206.8750
 20
116.2500
 40
0.5000
  0
CIRCLE
  8
VIA
 10
225.6250
 20
116.2500
 40
0.5000
  0
CIRCLE
  8
VIA
 10
244.3750
 20
116.2500
 40
0.5000
  0
CIRCLE
  8
VIA
 10
263.1250
 20
116.2500
 40
0.5000
  0
CIRCLE
  8
VIA
 10
281.8750
 20
116.2500
 40
0.5000
  0
CIRCLE
  8
VIA
 10
300.6250
 20
116.2500
 40
0.5000
  0
CIRCLE
  8
VIA
 10
-280.6250
 20
128.7500
 40
0.5000
  0
CIRCLE
  8
VIA
 10
-261.8750
 20
128.7500
 40
0.5000
  0
CIRCLE
  8
VIA
 10
-243.1250
 20
128.7500
 40
0.5000
  0
CIRCLE
  8
VIA
 10
-224.3750
 20
128.7500
 40
0.5000
  0
CIRCLE
  8
VIA
 10
-205.6250
 20
128.7500
 40
0.5000
  0
CIRCLE
  8
VIA
 10
-186.8750
 20
128.7500
 40
0.5000
  0
CIRCLE
  8
VIA
 10
-168.1250
 20
128.7500
 40
0.5000
  0
CIRCLE
  8
VIA
 10
-149.3750
 20
128.7500
 40
0.5000
  0
CIRCLE
  8
VIA
 10
-130.6250
 20
128.7500
 40
0.5000
  0
CIRCLE
  8
VIA
 10
-111.8750
 20
128.7500
 40
0.5000
  0
CIRCLE
  8
VIA
 10
-93.1250
 20
128.7500
 40
0.5000
  0
CIRCLE
  8
VIA
 10
-74.3750
 20
128.7500
 40
0.5000
  0
CIRCLE
  8
VIA
 10
-55.6250
 20
128.7500
 40
0.5000
  0
CIRCLE
  8
VIA
 10
-36.8750
 20
128.7500
 40
0.5000
  0
CIRCLE
  8
VIA
 10
-18.1250
 20
128.7500
 40
0.5000
  0
CIRCLE
  8
VIA
 10
0.6250
 20
128.7500
 40
0.5000
  0
CIRCLE
  8
VIA
 10
19.3750
 20
128.7500
 40
0.5000
  0
CIRCLE
  8
VIA
 10
38.1250
 20
128.7500
 40
0.5000
  0
CIRCLE
  8
VIA
 10
56.8750
 20
128.7500
 40
0.5000
  0
CIRCLE
  8
VIA
 10
75.6250
 20
128.7500
 40
0.5000
  0
CIRCLE
  8
VIA
 10
94.3750
 20
128.7500
 40
0.5000
  0
CIRCLE
  8
VIA
 10
113.1250
 20
128.7500
 40
0.5000
  0
CIRCLE
  8
VIA
 10
131.8750
 20
128.7500
 40
0.5000
  0
CIRCLE
  8
VIA
 10
150.6250
 20
128.7500
 40
0.5000
  0
CIRCLE
  8
VIA
 10
169.3750
 20
128.7500
 40
0.5000
  0
CIRCLE
  8
VIA
 10
188.1250
 20
128.7500
 40
0.5000
  0
CIRCLE
  8
VIA
 10
206.8750
 20
128.7500
 40
0.5000
  0
CIRCLE
  8
VIA
 10
225.6250
 20
128.7500
 40
0.5000
  0
CIRCLE
  8
VIA
 10
244.3750
 20
128.7500
 40
0.5000
  0
CIRCLE
  8
VIA
 10
263.1250
 20
128.7500
 40
0.5000
  0
CIRCLE
  8
VIA
 10
281.8750
 20
128.7500
 40
0.5000
  0
CIRCLE
  8
VIA
 10
300.6250
 20
128.7500
 40
0.5000
  0
CIRCLE
  8
VIA
 10
-280.6250
 20
141.2500
 40
0.5000
  0
CIRCLE
  8
VIA
 10
-261.8750
 20
141.2500
 40
0.5000
  0
CIRCLE
  8
VIA
 10
-243.1250
 20
141.2500
 40
0.5000
  0
CIRCLE
  8
VIA
 10
-224.3750
 20
141.2500
 40
0.5000
  0
CIRCLE
  8
VIA
 10
-205.6250
 20
141.2500
 40
0.5000
  0
CIRCLE
  8
VIA
 10
-186.8750
 20
141.2500
 40
0.5000
  0
CIRCLE
  8
VIA
 10
-168.1250
 20
141.2500
 40
0.5000
  0
CIRCLE
  8
VIA
 10
-149.3750
 20
141.2500
 40
0.5000
  0
CIRCLE
  8
VIA
 10
-130.6250
 20
141.2500
 40
0.5000
  0
CIRCLE
  8
VIA
 10
-111.8750
 20
141.2500
 40
0.5000
  0
CIRCLE
  8
VIA
 10
-93.1250
 20
141.2500
 40
0.5000
  0
CIRCLE
  8
VIA
 10
-74.3750
 20
141.2500
 40
0.5000
  0
CIRCLE
  8
VIA
 10
-55.6250
 20
141.2500
 40
0.5000
  0
CIRCLE
  8
VIA
 10
-36.8750
 20
141.2500
 40
0.5000
  0
CIRCLE
  8
VIA
 10
-18.1250
 20
141.2500
 40
0.5000
  0
CIRCLE
  8
VIA
 10
0.6250
 20
141.2500
 40
0.5000
  0
CIRCLE
  8
VIA
 10
19.3750
 20
141.2500
 40
0.5000
  0
CIRCLE
  8
VIA
 10
38.1250
 20
141.2500
 40
0.5000
  0
CIRCLE
  8
VIA
 10
56.8750
 20
141.2500
 40
0.5000
  0
CIRCLE
  8
VIA
 10
75.6250
 20
141.2500
 40
0.5000
  0
CIRCLE
  8
VIA
 10
94.3750
 20
141.2500
 40
0.5000
  0
CIRCLE
  8
VIA
 10
113.1250
 20
141.2500
 40
0.5000
  0
CIRCLE
  8
VIA
 10
131.8750
 20
141.2500
 40
0.5000
  0
CIRCLE
  8
VIA
 10
150.6250
 20
141.2500
 40
0.5000
  0
CIRCLE
  8
VIA
 10
169.3750
 20
141.2500
 40
0.5000
  0
CIRCLE
  8
VIA
 10
188.1250
 20
141.2500
 40
0.5000
  0
CIRCLE
  8
VIA
 10
206.8750
 20
141.2500
 40
0.5000
  0
CIRCLE
  8
VIA
 10
225.6250
 20
141.2500
 40
0.5000
  0
CIRCLE
  8
VIA
 10
244.3750
 20
141.2500
 40
0.5000
  0
CIRCLE
  8
VIA
 10
263.1250
 20
141.2500
 40
0.5000
  0
CIRCLE
  8
VIA
 10
281.8750
 20
141.2500
 40
0.5000
  0
CIRCLE
  8
VIA
 10
300.6250
 20
141.2500
 40
0.5000
  0
CIRCLE
  8
VIA
 10
-280.6250
 20
153.7500
 40
0.5000
  0
CIRCLE
  8
VIA
 10
-261.8750
 20
153.7500
 40
0.5000
  0
CIRCLE
  8
VIA
 10
-243.1250
 20
153.7500
 40
0.5000
  0
CIRCLE
  8
VIA
 10
-224.3750
 20
153.7500
 40
0.5000
  0
CIRCLE
  8
VIA
 10
-205.6250
 20
153.7500
 40
0.5000
  0
CIRCLE
  8
VIA
 10
-186.8750
 20
153.7500
 40
0.5000
  0
CIRCLE
  8
VIA
 10
-168.1250
 20
153.7500
 40
0.5000
  0
CIRCLE
  8
VIA
 10
-149.3750
 20
153.7500
 40
0.5000
  0
CIRCLE
  8
VIA
 10
-130.6250
 20
153.7500
 40
0.5000
  0
CIRCLE
  8
VIA
 10
-111.8750
 20
153.7500
 40
0.5000
  0
CIRCLE
  8
VIA
 10
-93.1250
 20
153.7500
 40
0.5000
  0
CIRCLE
  8
VIA
 10
-74.3750
 20
153.7500
 40
0.5000
  0
CIRCLE
  8
VIA
 10
-55.6250
 20
153.7500
 40
0.5000
  0
CIRCLE
  8
VIA
 10
-36.8750
 20
153.7500
 40
0.5000
  0
CIRCLE
  8
VIA
 10
-18.1250
 20
153.7500
 40
0.5000
  0
CIRCLE
  8
VIA
 10
0.6250
 20
153.7500
 40
0.5000
  0
CIRCLE
  8
VIA
 10
19.3750
 20
153.7500
 40
0.5000
  0
CIRCLE
  8
VIA
 10
38.1250
 20
153.7500
 40
0.5000
  0
CIRCLE
  8
VIA
 10
56.8750
 20
153.7500
 40
0.5000
  0
CIRCLE
  8
VIA
 10
75.6250
 20
153.7500
 40
0.5000
  0
CIRCLE
  8
VIA
 10
94.3750
 20
153.7500
 40
0.5000
  0
CIRCLE
  8
VIA
 10
113.1250
 20
153.7500
 40
0.5000
  0
CIRCLE
  8
VIA
 10
131.8750
 20
153.7500
 40
0.5000
  0
CIRCLE
  8
VIA
 10
150.6250
 20
153.7500
 40
0.5000
  0
CIRCLE
  8
VIA
 10
169.3750
 20
153.7500
 40
0.5000
  0
CIRCLE
  8
VIA
 10
188.1250
 20
153.7500
 40
0.5000
  0
CIRCLE
  8
VIA
 10
206.8750
 20
153.7500
 40
0.5000
  0
CIRCLE
  8
VIA
 10
225.6250
 20
153.7500
 40
0.5000
  0
CIRCLE
  8
VIA
 10
244.3750
 20
153.7500
 40
0.5000
  0
CIRCLE
  8
VIA
 10
263.1250
 20
153.7500
 40
0.5000
  0
CIRCLE
  8
VIA
 10
281.8750
 20
153.7500
 40
0.5000
  0
CIRCLE
  8
VIA
 10
300.6250
 20
153.7500
 40
0.5000
  0
CIRCLE
  8
VIA
 10
-280.6250
 20
166.2500
 40
0.5000
  0
CIRCLE
  8
VIA
 10
-261.8750
 20
166.2500
 40
0.5000
  0
CIRCLE
  8
VIA
 10
-243.1250
 20
166.2500
 40
0.5000
  0
CIRCLE
  8
VIA
 10
-224.3750
 20
166.2500
 40
0.5000
  0
CIRCLE
  8
VIA
 10
-205.6250
 20
166.2500
 40
0.5000
  0
CIRCLE
  8
VIA
 10
-186.8750
 20
166.2500
 40
0.5000
  0
CIRCLE
  8
VIA
 10
-168.1250
 20
166.2500
 40
0.5000
  0
CIRCLE
  8
VIA
 10
-149.3750
 20
166.2500
 40
0.5000
  0
CIRCLE
  8
VIA
 10
-130.6250
 20
166.2500
 40
0.5000
  0
CIRCLE
  8
VIA
 10
-111.8750
 20
166.2500
 40
0.5000
  0
CIRCLE
  8
VIA
 10
-93.1250
 20
166.2500
 40
0.5000
  0
CIRCLE
  8
VIA
 10
-74.3750
 20
166.2500
 40
0.5000
  0
CIRCLE
  8
VIA
 10
-55.6250
 20
166.2500
 40
0.5000
  0
CIRCLE
  8
VIA
 10
-36.8750
 20
166.2500
 40
0.5000
  0
CIRCLE
  8
VIA
 10
-18.1250
 20
166.2500
 40
0.5000
  0
CIRCLE
  8
VIA
 10
0.6250
 20
166.2500
 40
0.5000
  0
CIRCLE
  8
VIA
 10
19.3750
 20
166.2500
 40
0.5000
  0
CIRCLE
  8
VIA
 10
38.1250
 20
166.2500
 40
0.5000
  0
CIRCLE
  8
VIA
 10
56.8750
 20
166.2500
 40
0.5000
  0
CIRCLE
  8
VIA
 10
75.6250
 20
166.2500
 40
0.5000
  0
CIRCLE
  8
VIA
 10
94.3750
 20
166.2500
 40
0.5000
  0
CIRCLE
  8
VIA
 10
113.1250
 20
166.2500
 40
0.5000
  0
CIRCLE
  8
VIA
 10
131.8750
 20
166.2500
 40
0.5000
  0
CIRCLE
  8
VIA
 10
150.6250
 20
166.2500
 40
0.5000
  0
CIRCLE
  8
VIA
 10
169.3750
 20
166.2500
 40
0.5000
  0
CIRCLE
  8
VIA
 10
188.1250
 20
166.2500
 40
0.5000
  0
CIRCLE
  8
VIA
 10
206.8750
 20
166.2500
 40
0.5000
  0
CIRCLE
  8
VIA
 10
225.6250
 20
166.2500
 40
0.5000
  0
CIRCLE
  8
VIA
 10
244.3750
 20
166.2500
 40
0.5000
  0
CIRCLE
  8
VIA
 10
263.1250
 20
166.2500
 40
0.5000
  0
CIRCLE
  8
VIA
 10
281.8750
 20
166.2500
 40
0.5000
  0
CIRCLE
  8
VIA
 10
300.6250
 20
166.2500
 40
0.5000
  0
CIRCLE
  8
VIA
 10
-280.6250
 20
178.7500
 40
0.5000
  0
CIRCLE
  8
VIA
 10
-261.8750
 20
178.7500
 40
0.5000
  0
CIRCLE
  8
VIA
 10
-243.1250
 20
178.7500
 40
0.5000
  0
CIRCLE
  8
VIA
 10
-224.3750
 20
178.7500
 40
0.5000
  0
CIRCLE
  8
VIA
 10
-205.6250
 20
178.7500
 40
0.5000
  0
CIRCLE
  8
VIA
 10
-186.8750
 20
178.7500
 40
0.5000
  0
CIRCLE
  8
VIA
 10
-168.1250
 20
178.7500
 40
0.5000
  0
CIRCLE
  8
VIA
 10
-149.3750
 20
178.7500
 40
0.5000
  0
CIRCLE
  8
VIA
 10
-130.6250
 20
178.7500
 40
0.5000
  0
CIRCLE
  8
VIA
 10
-111.8750
 20
178.7500
 40
0.5000
  0
CIRCLE
  8
VIA
 10
-93.1250
 20
178.7500
 40
0.5000
  0
CIRCLE
  8
VIA
 10
-74.3750
 20
178.7500
 40
0.5000
  0
CIRCLE
  8
VIA
 10
-55.6250
 20
178.7500
 40
0.5000
  0
CIRCLE
  8
VIA
 10
-36.8750
 20
178.7500
 40
0.5000
  0
CIRCLE
  8
VIA
 10
-18.1250
 20
178.7500
 40
0.5000
  0
CIRCLE
  8
VIA
 10
0.6250
 20
178.7500
 40
0.5000
  0
CIRCLE
  8
VIA
 10
19.3750
 20
178.7500
 40
0.5000
  0
CIRCLE
  8
VIA
 10
38.1250
 20
178.7500
 40
0.5000
  0
CIRCLE
  8
VIA
 10
56.8750
 20
178.7500
 40
0.5000
  0
CIRCLE
  8
VIA
 10
75.6250
 20
178.7500
 40
0.5000
  0
CIRCLE
  8
VIA
 10
94.3750
 20
178.7500
 40
0.5000
  0
CIRCLE
  8
VIA
 10
113.1250
 20
178.7500
 40
0.5000
  0
CIRCLE
  8
VIA
 10
131.8750
 20
178.7500
 40
0.5000
  0
CIRCLE
  8
VIA
 10
150.6250
 20
178.7500
 40
0.5000
  0
CIRCLE
  8
VIA
 10
169.3750
 20
178.7500
 40
0.5000
  0
CIRCLE
  8
VIA
 10
188.1250
 20
178.7500
 40
0.5000
  0
CIRCLE
  8
VIA
 10
206.8750
 20
178.7500
 40
0.5000
  0
CIRCLE
  8
VIA
 10
225.6250
 20
178.7500
 40
0.5000
  0
CIRCLE
  8
VIA
 10
244.3750
 20
178.7500
 40
0.5000
  0
CIRCLE
  8
VIA
 10
263.1250
 20
178.7500
 40
0.5000
  0
CIRCLE
  8
VIA
 10
281.8750
 20
178.7500
 40
0.5000
  0
CIRCLE
  8
VIA
 10
300.6250
 20
178.7500
 40
0.5000
  0
CIRCLE
  8
VIA
 10
-280.6250
 20
191.2500
 40
0.5000
  0
CIRCLE
  8
VIA
 10
-261.8750
 20
191.2500
 40
0.5000
  0
CIRCLE
  8
VIA
 10
-243.1250
 20
191.2500
 40
0.5000
  0
CIRCLE
  8
VIA
 10
-224.3750
 20
191.2500
 40
0.5000
  0
CIRCLE
  8
VIA
 10
-205.6250
 20
191.2500
 40
0.5000
  0
CIRCLE
  8
VIA
 10
-186.8750
 20
191.2500
 40
0.5000
  0
CIRCLE
  8
VIA
 10
-168.1250
 20
191.2500
 40
0.5000
  0
CIRCLE
  8
VIA
 10
-149.3750
 20
191.2500
 40
0.5000
  0
CIRCLE
  8
VIA
 10
-130.6250
 20
191.2500
 40
0.5000
  0
CIRCLE
  8
VIA
 10
-111.8750
 20
191.2500
 40
0.5000
  0
CIRCLE
  8
VIA
 10
-93.1250
 20
191.2500
 40
0.5000
  0
CIRCLE
  8
VIA
 10
-74.3750
 20
191.2500
 40
0.5000
  0
CIRCLE
  8
VIA
 10
-55.6250
 20
191.2500
 40
0.5000
  0
CIRCLE
  8
VIA
 10
-36.8750
 20
191.2500
 40
0.5000
  0
CIRCLE
  8
VIA
 10
-18.1250
 20
191.2500
 40
0.5000
  0
CIRCLE
  8
VIA
 10
0.6250
 20
191.2500
 40
0.5000
  0
CIRCLE
  8
VIA
 10
19.3750
 20
191.2500
 40
0.5000
  0
CIRCLE
  8
VIA
 10
38.1250
 20
191.2500
 40
0.5000
  0
CIRCLE
  8
VIA
 10
56.8750
 20
191.2500
 40
0.5000
  0
CIRCLE
  8
VIA
 10
75.6250
 20
191.2500
 40
0.5000
  0
CIRCLE
  8
VIA
 10
94.3750
 20
191.2500
 40
0.5000
  0
CIRCLE
  8
VIA
 10
113.1250
 20
191.2500
 40
0.5000
  0
CIRCLE
  8
VIA
 10
131.8750
 20
191.2500
 40
0.5000
  0
CIRCLE
  8
VIA
 10
150.6250
 20
191.2500
 40
0.5000
  0
CIRCLE
  8
VIA
 10
169.3750
 20
191.2500
 40
0.5000
  0
CIRCLE
  8
VIA
 10
188.1250
 20
191.2500
 40
0.5000
  0
CIRCLE
  8
VIA
 10
206.8750
 20
191.2500
 40
0.5000
  0
CIRCLE
  8
VIA
 10
225.6250
 20
191.2500
 40
0.5000
  0
CIRCLE
  8
VIA
 10
244.3750
 20
191.2500
 40
0.5000
  0
CIRCLE
  8
VIA
 10
263.1250
 20
191.2500
 40
0.5000
  0
CIRCLE
  8
VIA
 10
281.8750
 20
191.2500
 40
0.5000
  0
CIRCLE
  8
VIA
 10
300.6250
 20
191.2500
 40
0.5000
  0
CIRCLE
  8
VIA
 10
-280.6250
 20
203.7500
 40
0.5000
  0
CIRCLE
  8
VIA
 10
-261.8750
 20
203.7500
 40
0.5000
  0
CIRCLE
  8
VIA
 10
-243.1250
 20
203.7500
 40
0.5000
  0
CIRCLE
  8
VIA
 10
-224.3750
 20
203.7500
 40
0.5000
  0
CIRCLE
  8
VIA
 10
-205.6250
 20
203.7500
 40
0.5000
  0
CIRCLE
  8
VIA
 10
-186.8750
 20
203.7500
 40
0.5000
  0
CIRCLE
  8
VIA
 10
-168.1250
 20
203.7500
 40
0.5000
  0
CIRCLE
  8
VIA
 10
-149.3750
 20
203.7500
 40
0.5000
  0
CIRCLE
  8
VIA
 10
-130.6250
 20
203.7500
 40
0.5000
  0
CIRCLE
  8
VIA
 10
-111.8750
 20
203.7500
 40
0.5000
  0
CIRCLE
  8
VIA
 10
-93.1250
 20
203.7500
 40
0.5000
  0
CIRCLE
  8
VIA
 10
-74.3750
 20
203.7500
 40
0.5000
  0
CIRCLE
  8
VIA
 10
-55.6250
 20
203.7500
 40
0.5000
  0
CIRCLE
  8
VIA
 10
-36.8750
 20
203.7500
 40
0.5000
  0
CIRCLE
  8
VIA
 10
-18.1250
 20
203.7500
 40
0.5000
  0
CIRCLE
  8
VIA
 10
0.6250
 20
203.7500
 40
0.5000
  0
CIRCLE
  8
VIA
 10
19.3750
 20
203.7500
 40
0.5000
  0
CIRCLE
  8
VIA
 10
38.1250
 20
203.7500
 40
0.5000
  0
CIRCLE
  8
VIA
 10
56.8750
 20
203.7500
 40
0.5000
  0
CIRCLE
  8
VIA
 10
75.6250
 20
203.7500
 40
0.5000
  0
CIRCLE
  8
VIA
 10
94.3750
 20
203.7500
 40
0.5000
  0
CIRCLE
  8
VIA
 10
113.1250
 20
203.7500
 40
0.5000
  0
CIRCLE
  8
VIA
 10
131.8750
 20
203.7500
 40
0.5000
  0
CIRCLE
  8
VIA
 10
150.6250
 20
203.7500
 40
0.5000
  0
CIRCLE
  8
VIA
 10
169.3750
 20
203.7500
 40
0.5000
  0
CIRCLE
  8
VIA
 10
188.1250
 20
203.7500
 40
0.5000
  0
CIRCLE
  8
VIA
 10
206.8750
 20
203.7500
 40
0.5000
  0
CIRCLE
  8
VIA
 10
225.6250
 20
203.7500
 40
0.5000
  0
CIRCLE
  8
VIA
 10
244.3750
 20
203.7500
 40
0.5000
  0
CIRCLE
  8
VIA
 10
263.1250
 20
203.7500
 40
0.5000
  0
CIRCLE
  8
VIA
 10
281.8750
 20
203.7500
 40
0.5000
  0
CIRCLE
  8
VIA
 10
300.6250
 20
203.7500
 40
0.5000
  0
ENDSEC
  0
EOF
