0
SECTION
2
ENTITIES
0
LWPOLYLINE
8
0
90
8
70
1
10
8.0
20
0.0
10
72.0
20
0.0
42
0.414214
10
80.0
20
8.0
10
80.0
20
52.0
42
0.414214
10
72.0
20
60.0
10
8.0
20
60.0
42
0.414214
10
0.0
20
52.0
10
0.0
20
8.0
42
0.414214
0
CIRCLE
8
0
10
25.0
20
36.0
40
9.0
0
CIRCLE
8
0
10
25.0
20
36.0
40
4.0
0
ARC
8
0
10
55.0
20
36.0
40
10.0
50
200.0
51
340.0
0
ARC
8
0
10
55.0
20
36.0
40
6.0
50
20.0
51
160.0
0
LWPOLYLINE
8
0
90
21
70
0
10
10.0
20
12.0
10
13.0
20
17.0
10
16.0
20
12.0
10
19.0
20
17.0
10
22.0
20
12.0
10
25.0
20
17.0
10
28.0
20
12.0
10
31.0
20
17.0
10
34.0
20
12.0
10
37.0
20
17.0
10
40.0
20
12.0
10
43.0
20
17.0
10
46.0
20
12.0
10
49.0
20
17.0
10
52.0
20
12.0
10
55.0
20
17.0
10
58.0
20
12.0
10
61.0
20
17.0
10
64.0
20
12.0
10
67.0
20
17.0
10
70.0
20
12.0
0
LINE
8
0
10
44.0
20
50.0
11
50.0
21
44.0
0
LINE
8
0
10
50.0
20
50.0
11
44.0
21
44.0
0
LWPOLYLINE
8
0
90
10
70
1
10
55.0
20
50.5
10
56.2
20
47.8
10
59.0
20
47.5
10
56.9
20
45.5
10
57.5
20
42.7
10
55.0
20
44.2
10
52.5
20
42.7
10
53.1
20
45.5
10
51.0
20
47.5
10
53.8
20
47.8
0
ENDSEC
0
EOF
