999
PCB drill sample with oversized holes (r=20mm) - generated by gen-drill-bighole-sample.ps1
0
SECTION
2
ENTITIES
0
CIRCLE
8
BIGHOLE
10
60.0000
20
155.0000
40
20.0000
0
CIRCLE
8
BIGHOLE
10
150.0000
20
155.0000
40
20.0000
0
CIRCLE
8
BIGHOLE
10
240.0000
20
155.0000
40
20.0000
0
CIRCLE
8
MOUNT
10
10.0000
20
10.0000
40
1.6000
0
CIRCLE
8
MOUNT
10
290.0000
20
10.0000
40
1.6000
0
CIRCLE
8
MOUNT
10
10.0000
20
190.0000
40
1.6000
0
CIRCLE
8
MOUNT
10
290.0000
20
190.0000
40
1.6000
0
CIRCLE
8
PWR
10
268.0000
20
20.0000
40
1.0000
0
CIRCLE
8
PWR
10
268.0000
20
26.0000
40
1.0000
0
CIRCLE
8
PWR
10
274.0000
20
20.0000
40
1.0000
0
CIRCLE
8
PWR
10
274.0000
20
26.0000
40
1.0000
0
CIRCLE
8
CONN
10
20.0000
20
15.0000
40
0.5000
0
CIRCLE
8
CONN
10
20.0000
20
17.5400
40
0.5000
0
CIRCLE
8
CONN
10
22.5400
20
15.0000
40
0.5000
0
CIRCLE
8
CONN
10
22.5400
20
17.5400
40
0.5000
0
CIRCLE
8
CONN
10
25.0800
20
15.0000
40
0.5000
0
CIRCLE
8
CONN
10
25.0800
20
17.5400
40
0.5000
0
CIRCLE
8
CONN
10
27.6200
20
15.0000
40
0.5000
0
CIRCLE
8
CONN
10
27.6200
20
17.5400
40
0.5000
0
CIRCLE
8
CONN
10
30.1600
20
15.0000
40
0.5000
0
CIRCLE
8
CONN
10
30.1600
20
17.5400
40
0.5000
0
CIRCLE
8
CONN
10
32.7000
20
15.0000
40
0.5000
0
CIRCLE
8
CONN
10
32.7000
20
17.5400
40
0.5000
0
CIRCLE
8
CONN
10
35.2400
20
15.0000
40
0.5000
0
CIRCLE
8
CONN
10
35.2400
20
17.5400
40
0.5000
0
CIRCLE
8
CONN
10
37.7800
20
15.0000
40
0.5000
0
CIRCLE
8
CONN
10
37.7800
20
17.5400
40
0.5000
0
CIRCLE
8
CONN
10
40.3200
20
15.0000
40
0.5000
0
CIRCLE
8
CONN
10
40.3200
20
17.5400
40
0.5000
0
CIRCLE
8
CONN
10
42.8600
20
15.0000
40
0.5000
0
CIRCLE
8
CONN
10
42.8600
20
17.5400
40
0.5000
0
CIRCLE
8
CONN
10
45.4000
20
15.0000
40
0.5000
0
CIRCLE
8
CONN
10
45.4000
20
17.5400
40
0.5000
0
CIRCLE
8
CONN
10
47.9400
20
15.0000
40
0.5000
0
CIRCLE
8
CONN
10
47.9400
20
17.5400
40
0.5000
0
CIRCLE
8
CONN
10
50.4800
20
15.0000
40
0.5000
0
CIRCLE
8
CONN
10
50.4800
20
17.5400
40
0.5000
0
CIRCLE
8
CONN
10
53.0200
20
15.0000
40
0.5000
0
CIRCLE
8
CONN
10
53.0200
20
17.5400
40
0.5000
0
CIRCLE
8
CONN
10
55.5600
20
15.0000
40
0.5000
0
CIRCLE
8
CONN
10
55.5600
20
17.5400
40
0.5000
0
CIRCLE
8
CONN
10
58.1000
20
15.0000
40
0.5000
0
CIRCLE
8
CONN
10
58.1000
20
17.5400
40
0.5000
0
CIRCLE
8
CONN
10
60.6400
20
15.0000
40
0.5000
0
CIRCLE
8
CONN
10
60.6400
20
17.5400
40
0.5000
0
CIRCLE
8
CONN
10
63.1800
20
15.0000
40
0.5000
0
CIRCLE
8
CONN
10
63.1800
20
17.5400
40
0.5000
0
CIRCLE
8
CONN
10
65.7200
20
15.0000
40
0.5000
0
CIRCLE
8
CONN
10
65.7200
20
17.5400
40
0.5000
0
CIRCLE
8
CONN
10
68.2600
20
15.0000
40
0.5000
0
CIRCLE
8
CONN
10
68.2600
20
17.5400
40
0.5000
0
CIRCLE
8
IC
10
90.0000
20
15.0000
40
0.4000
0
CIRCLE
8
IC
10
90.0000
20
22.6200
40
0.4000
0
CIRCLE
8
IC
10
92.5400
20
15.0000
40
0.4000
0
CIRCLE
8
IC
10
92.5400
20
22.6200
40
0.4000
0
CIRCLE
8
IC
10
95.0800
20
15.0000
40
0.4000
0
CIRCLE
8
IC
10
95.0800
20
22.6200
40
0.4000
0
CIRCLE
8
IC
10
97.6200
20
15.0000
40
0.4000
0
CIRCLE
8
IC
10
97.6200
20
22.6200
40
0.4000
0
CIRCLE
8
IC
10
100.1600
20
15.0000
40
0.4000
0
CIRCLE
8
IC
10
100.1600
20
22.6200
40
0.4000
0
CIRCLE
8
IC
10
102.7000
20
15.0000
40
0.4000
0
CIRCLE
8
IC
10
102.7000
20
22.6200
40
0.4000
0
CIRCLE
8
IC
10
105.2400
20
15.0000
40
0.4000
0
CIRCLE
8
IC
10
105.2400
20
22.6200
40
0.4000
0
CIRCLE
8
IC
10
107.7800
20
15.0000
40
0.4000
0
CIRCLE
8
IC
10
107.7800
20
22.6200
40
0.4000
0
CIRCLE
8
IC
10
140.0000
20
15.0000
40
0.4000
0
CIRCLE
8
IC
10
140.0000
20
22.6200
40
0.4000
0
CIRCLE
8
IC
10
142.5400
20
15.0000
40
0.4000
0
CIRCLE
8
IC
10
142.5400
20
22.6200
40
0.4000
0
CIRCLE
8
IC
10
145.0800
20
15.0000
40
0.4000
0
CIRCLE
8
IC
10
145.0800
20
22.6200
40
0.4000
0
CIRCLE
8
IC
10
147.6200
20
15.0000
40
0.4000
0
CIRCLE
8
IC
10
147.6200
20
22.6200
40
0.4000
0
CIRCLE
8
IC
10
150.1600
20
15.0000
40
0.4000
0
CIRCLE
8
IC
10
150.1600
20
22.6200
40
0.4000
0
CIRCLE
8
IC
10
152.7000
20
15.0000
40
0.4000
0
CIRCLE
8
IC
10
152.7000
20
22.6200
40
0.4000
0
CIRCLE
8
IC
10
155.2400
20
15.0000
40
0.4000
0
CIRCLE
8
IC
10
155.2400
20
22.6200
40
0.4000
0
CIRCLE
8
IC
10
157.7800
20
15.0000
40
0.4000
0
CIRCLE
8
IC
10
157.7800
20
22.6200
40
0.4000
0
CIRCLE
8
IC
10
90.0000
20
33.0000
40
0.4000
0
CIRCLE
8
IC
10
90.0000
20
40.6200
40
0.4000
0
CIRCLE
8
IC
10
92.5400
20
33.0000
40
0.4000
0
CIRCLE
8
IC
10
92.5400
20
40.6200
40
0.4000
0
CIRCLE
8
IC
10
95.0800
20
33.0000
40
0.4000
0
CIRCLE
8
IC
10
95.0800
20
40.6200
40
0.4000
0
CIRCLE
8
IC
10
97.6200
20
33.0000
40
0.4000
0
CIRCLE
8
IC
10
97.6200
20
40.6200
40
0.4000
0
CIRCLE
8
IC
10
100.1600
20
33.0000
40
0.4000
0
CIRCLE
8
IC
10
100.1600
20
40.6200
40
0.4000
0
CIRCLE
8
IC
10
102.7000
20
33.0000
40
0.4000
0
CIRCLE
8
IC
10
102.7000
20
40.6200
40
0.4000
0
CIRCLE
8
IC
10
105.2400
20
33.0000
40
0.4000
0
CIRCLE
8
IC
10
105.2400
20
40.6200
40
0.4000
0
CIRCLE
8
IC
10
107.7800
20
33.0000
40
0.4000
0
CIRCLE
8
IC
10
107.7800
20
40.6200
40
0.4000
0
CIRCLE
8
IC
10
140.0000
20
33.0000
40
0.4000
0
CIRCLE
8
IC
10
140.0000
20
40.6200
40
0.4000
0
CIRCLE
8
IC
10
142.5400
20
33.0000
40
0.4000
0
CIRCLE
8
IC
10
142.5400
20
40.6200
40
0.4000
0
CIRCLE
8
IC
10
145.0800
20
33.0000
40
0.4000
0
CIRCLE
8
IC
10
145.0800
20
40.6200
40
0.4000
0
CIRCLE
8
IC
10
147.6200
20
33.0000
40
0.4000
0
CIRCLE
8
IC
10
147.6200
20
40.6200
40
0.4000
0
CIRCLE
8
IC
10
150.1600
20
33.0000
40
0.4000
0
CIRCLE
8
IC
10
150.1600
20
40.6200
40
0.4000
0
CIRCLE
8
IC
10
152.7000
20
33.0000
40
0.4000
0
CIRCLE
8
IC
10
152.7000
20
40.6200
40
0.4000
0
CIRCLE
8
IC
10
155.2400
20
33.0000
40
0.4000
0
CIRCLE
8
IC
10
155.2400
20
40.6200
40
0.4000
0
CIRCLE
8
IC
10
157.7800
20
33.0000
40
0.4000
0
CIRCLE
8
IC
10
157.7800
20
40.6200
40
0.4000
0
CIRCLE
8
PTH
10
20.0000
20
55.0000
40
0.3000
0
CIRCLE
8
PTH
10
20.0000
20
62.6200
40
0.3000
0
CIRCLE
8
PTH
10
23.0000
20
55.0000
40
0.3000
0
CIRCLE
8
PTH
10
23.0000
20
62.6200
40
0.3000
0
CIRCLE
8
PTH
10
26.0000
20
55.0000
40
0.3000
0
CIRCLE
8
PTH
10
26.0000
20
62.6200
40
0.3000
0
CIRCLE
8
PTH
10
29.0000
20
55.0000
40
0.3000
0
CIRCLE
8
PTH
10
29.0000
20
62.6200
40
0.3000
0
CIRCLE
8
PTH
10
32.0000
20
55.0000
40
0.3000
0
CIRCLE
8
PTH
10
32.0000
20
62.6200
40
0.3000
0
CIRCLE
8
PTH
10
35.0000
20
55.0000
40
0.3000
0
CIRCLE
8
PTH
10
35.0000
20
62.6200
40
0.3000
0
CIRCLE
8
PTH
10
38.0000
20
55.0000
40
0.3000
0
CIRCLE
8
PTH
10
38.0000
20
62.6200
40
0.3000
0
CIRCLE
8
PTH
10
41.0000
20
55.0000
40
0.3000
0
CIRCLE
8
PTH
10
41.0000
20
62.6200
40
0.3000
0
CIRCLE
8
PTH
10
44.0000
20
55.0000
40
0.3000
0
CIRCLE
8
PTH
10
44.0000
20
62.6200
40
0.3000
0
CIRCLE
8
PTH
10
47.0000
20
55.0000
40
0.3000
0
CIRCLE
8
PTH
10
47.0000
20
62.6200
40
0.3000
0
CIRCLE
8
PTH
10
50.0000
20
55.0000
40
0.3000
0
CIRCLE
8
PTH
10
50.0000
20
62.6200
40
0.3000
0
CIRCLE
8
PTH
10
53.0000
20
55.0000
40
0.3000
0
CIRCLE
8
PTH
10
53.0000
20
62.6200
40
0.3000
0
CIRCLE
8
PTH
10
56.0000
20
55.0000
40
0.3000
0
CIRCLE
8
PTH
10
56.0000
20
62.6200
40
0.3000
0
CIRCLE
8
PTH
10
59.0000
20
55.0000
40
0.3000
0
CIRCLE
8
PTH
10
59.0000
20
62.6200
40
0.3000
0
CIRCLE
8
PTH
10
62.0000
20
55.0000
40
0.3000
0
CIRCLE
8
PTH
10
62.0000
20
62.6200
40
0.3000
0
CIRCLE
8
PTH
10
65.0000
20
55.0000
40
0.3000
0
CIRCLE
8
PTH
10
65.0000
20
62.6200
40
0.3000
0
CIRCLE
8
PTH
10
68.0000
20
55.0000
40
0.3000
0
CIRCLE
8
PTH
10
68.0000
20
62.6200
40
0.3000
0
CIRCLE
8
PTH
10
71.0000
20
55.0000
40
0.3000
0
CIRCLE
8
PTH
10
71.0000
20
62.6200
40
0.3000
0
CIRCLE
8
PTH
10
74.0000
20
55.0000
40
0.3000
0
CIRCLE
8
PTH
10
74.0000
20
62.6200
40
0.3000
0
CIRCLE
8
PTH
10
77.0000
20
55.0000
40
0.3000
0
CIRCLE
8
PTH
10
77.0000
20
62.6200
40
0.3000
0
CIRCLE
8
VIA
10
20.5040
20
5.8101
40
0.1500
0
CIRCLE
8
VIA
10
28.3334
20
6.0103
40
0.1500
0
CIRCLE
8
VIA
10
35.2774
20
6.2090
40
0.1500
0
CIRCLE
8
VIA
10
42.7107
20
5.8059
40
0.1500
0
CIRCLE
8
VIA
10
50.3122
20
5.8562
40
0.1500
0
CIRCLE
8
VIA
10
57.5971
20
5.8082
40
0.1500
0
CIRCLE
8
VIA
10
65.0909
20
5.6283
40
0.1500
0
CIRCLE
8
VIA
10
72.7128
20
6.0618
40
0.1500
0
CIRCLE
8
VIA
10
79.7641
20
5.7218
40
0.1500
0
CIRCLE
8
VIA
10
86.9029
20
6.1641
40
0.1500
0
CIRCLE
8
VIA
10
94.8683
20
6.0320
40
0.1500
0
CIRCLE
8
VIA
10
101.6353
20
6.1689
40
0.1500
0
CIRCLE
8
VIA
10
109.1028
20
6.3250
40
0.1500
0
CIRCLE
8
VIA
10
116.9233
20
6.0131
40
0.1500
0
CIRCLE
8
VIA
10
123.9029
20
5.6332
40
0.1500
0
CIRCLE
8
VIA
10
131.3850
20
6.0665
40
0.1500
0
CIRCLE
8
VIA
10
139.1799
20
5.6032
40
0.1500
0
CIRCLE
8
VIA
10
146.3363
20
6.2441
40
0.1500
0
CIRCLE
8
VIA
10
153.8910
20
5.9077
40
0.1500
0
CIRCLE
8
VIA
10
160.7962
20
5.6211
40
0.1500
0
CIRCLE
8
VIA
10
168.1023
20
6.2253
40
0.1500
0
CIRCLE
8
VIA
10
175.9473
20
5.6921
40
0.1500
0
CIRCLE
8
VIA
10
183.0307
20
6.2179
40
0.1500
0
CIRCLE
8
VIA
10
190.4471
20
6.1185
40
0.1500
0
CIRCLE
8
VIA
10
197.7149
20
5.6356
40
0.1500
0
CIRCLE
8
VIA
10
205.4683
20
6.0127
40
0.1500
0
CIRCLE
8
VIA
10
212.4099
20
5.9363
40
0.1500
0
CIRCLE
8
VIA
10
220.3191
20
6.1028
40
0.1500
0
CIRCLE
8
VIA
10
227.3132
20
5.6106
40
0.1500
0
CIRCLE
8
VIA
10
234.8152
20
5.8140
40
0.1500
0
CIRCLE
8
VIA
10
241.9626
20
6.1745
40
0.1500
0
CIRCLE
8
VIA
10
249.3491
20
5.9713
40
0.1500
0
CIRCLE
8
VIA
10
256.6865
20
6.2382
40
0.1500
0
CIRCLE
8
VIA
10
264.4129
20
6.0108
40
0.1500
0
CIRCLE
8
VIA
10
271.8458
20
5.6072
40
0.1500
0
CIRCLE
8
VIA
10
279.4938
20
5.6103
40
0.1500
0
CIRCLE
8
VIA
10
6.3308
20
18.8765
40
0.1500
0
CIRCLE
8
VIA
10
13.3536
20
18.4336
40
0.1500
0
CIRCLE
8
VIA
10
72.8277
20
18.3996
40
0.1500
0
CIRCLE
8
VIA
10
80.0147
20
18.2632
40
0.1500
0
CIRCLE
8
VIA
10
86.9133
20
18.4951
40
0.1500
0
CIRCLE
8
VIA
10
116.7795
20
18.9230
40
0.1500
0
CIRCLE
8
VIA
10
124.3668
20
18.6710
40
0.1500
0
CIRCLE
8
VIA
10
131.7104
20
18.3649
40
0.1500
0
CIRCLE
8
VIA
10
160.6986
20
18.3091
40
0.1500
0
CIRCLE
8
VIA
10
168.2739
20
18.1641
40
0.1500
0
CIRCLE
8
VIA
10
175.6191
20
18.6072
40
0.1500
0
CIRCLE
8
VIA
10
183.1685
20
18.2083
40
0.1500
0
CIRCLE
8
VIA
10
191.0102
20
18.2304
40
0.1500
0
CIRCLE
8
VIA
10
197.6849
20
18.3904
40
0.1500
0
CIRCLE
8
VIA
10
205.2437
20
18.7343
40
0.1500
0
CIRCLE
8
VIA
10
213.0299
20
18.1406
40
0.1500
0
CIRCLE
8
VIA
10
219.7875
20
18.8057
40
0.1500
0
CIRCLE
8
VIA
10
227.8552
20
18.3238
40
0.1500
0
CIRCLE
8
VIA
10
235.2641
20
18.8096
40
0.1500
0
CIRCLE
8
VIA
10
242.1312
20
18.5696
40
0.1500
0
CIRCLE
8
VIA
10
249.7999
20
18.6336
40
0.1500
0
CIRCLE
8
VIA
10
256.8308
20
18.3711
40
0.1500
0
CIRCLE
8
VIA
10
279.6207
20
18.7586
40
0.1500
0
CIRCLE
8
VIA
10
286.3236
20
18.8400
40
0.1500
0
CIRCLE
8
VIA
10
293.7494
20
18.3691
40
0.1500
0
CIRCLE
8
VIA
10
6.0480
20
31.1116
40
0.1500
0
CIRCLE
8
VIA
10
13.5546
20
30.7642
40
0.1500
0
CIRCLE
8
VIA
10
20.8478
20
30.9798
40
0.1500
0
CIRCLE
8
VIA
10
28.4586
20
31.0226
40
0.1500
0
CIRCLE
8
VIA
10
35.4170
20
31.4377
40
0.1500
0
CIRCLE
8
VIA
10
42.8940
20
31.1011
40
0.1500
0
CIRCLE
8
VIA
10
50.6659
20
31.3149
40
0.1500
0
CIRCLE
8
VIA
10
57.3950
20
30.7525
40
0.1500
0
CIRCLE
8
VIA
10
64.6792
20
30.8122
40
0.1500
0
CIRCLE
8
VIA
10
72.8138
20
31.2427
40
0.1500
0
CIRCLE
8
VIA
10
79.7694
20
31.1393
40
0.1500
0
CIRCLE
8
VIA
10
87.1508
20
30.7666
40
0.1500
0
CIRCLE
8
VIA
10
102.3124
20
30.8048
40
0.1500
0
CIRCLE
8
VIA
10
116.8620
20
31.4206
40
0.1500
0
CIRCLE
8
VIA
10
124.4117
20
31.2645
40
0.1500
0
CIRCLE
8
VIA
10
131.3629
20
30.9384
40
0.1500
0
CIRCLE
8
VIA
10
153.8238
20
30.8183
40
0.1500
0
CIRCLE
8
VIA
10
160.8986
20
30.8495
40
0.1500
0
CIRCLE
8
VIA
10
168.7284
20
31.1787
40
0.1500
0
CIRCLE
8
VIA
10
175.5116
20
31.0031
40
0.1500
0
CIRCLE
8
VIA
10
183.4749
20
31.3707
40
0.1500
0
CIRCLE
8
VIA
10
190.8384
20
31.4294
40
0.1500
0
CIRCLE
8
VIA
10
198.3545
20
31.0400
40
0.1500
0
CIRCLE
8
VIA
10
205.6972
20
31.4420
40
0.1500
0
CIRCLE
8
VIA
10
212.4942
20
31.1367
40
0.1500
0
CIRCLE
8
VIA
10
219.9228
20
31.1741
40
0.1500
0
CIRCLE
8
VIA
10
227.5392
20
31.2333
40
0.1500
0
CIRCLE
8
VIA
10
234.6119
20
31.3115
40
0.1500
0
CIRCLE
8
VIA
10
242.1860
20
31.0836
40
0.1500
0
CIRCLE
8
VIA
10
249.8689
20
30.8270
40
0.1500
0
CIRCLE
8
VIA
10
257.1008
20
31.2976
40
0.1500
0
CIRCLE
8
VIA
10
264.5269
20
30.8255
40
0.1500
0
CIRCLE
8
VIA
10
272.1939
20
30.7085
40
0.1500
0
CIRCLE
8
VIA
10
278.8753
20
30.8382
40
0.1500
0
CIRCLE
8
VIA
10
286.4663
20
30.8039
40
0.1500
0
CIRCLE
8
VIA
10
293.8331
20
30.8832
40
0.1500
0
CIRCLE
8
VIA
10
6.3056
20
43.5760
40
0.1500
0
CIRCLE
8
VIA
10
13.2786
20
43.5630
40
0.1500
0
CIRCLE
8
VIA
10
20.9800
20
43.7301
40
0.1500
0
CIRCLE
8
VIA
10
28.5533
20
43.4846
40
0.1500
0
CIRCLE
8
VIA
10
35.8237
20
43.4491
40
0.1500
0
CIRCLE
8
VIA
10
42.6699
20
43.9505
40
0.1500
0
CIRCLE
8
VIA
10
50.3821
20
43.6903
40
0.1500
0
CIRCLE
8
VIA
10
57.6020
20
43.9649
40
0.1500
0
CIRCLE
8
VIA
10
64.7397
20
43.5769
40
0.1500
0
CIRCLE
8
VIA
10
72.7661
20
43.4499
40
0.1500
0
CIRCLE
8
VIA
10
80.1816
20
43.9051
40
0.1500
0
CIRCLE
8
VIA
10
87.5433
20
43.2132
40
0.1500
0
CIRCLE
8
VIA
10
94.4541
20
43.6642
40
0.1500
0
CIRCLE
8
VIA
10
101.6149
20
43.9126
40
0.1500
0
CIRCLE
8
VIA
10
109.3134
20
43.7411
40
0.1500
0
CIRCLE
8
VIA
10
116.8936
20
43.9877
40
0.1500
0
CIRCLE
8
VIA
10
123.9908
20
43.9525
40
0.1500
0
CIRCLE
8
VIA
10
131.7402
20
43.2247
40
0.1500
0
CIRCLE
8
VIA
10
138.7957
20
43.7258
40
0.1500
0
CIRCLE
8
VIA
10
145.9418
20
43.7482
40
0.1500
0
CIRCLE
8
VIA
10
153.7098
20
43.4920
40
0.1500
0
CIRCLE
8
VIA
10
160.9520
20
43.3748
40
0.1500
0
CIRCLE
8
VIA
10
168.5456
20
43.7149
40
0.1500
0
CIRCLE
8
VIA
10
175.9306
20
43.4575
40
0.1500
0
CIRCLE
8
VIA
10
183.3629
20
43.2796
40
0.1500
0
CIRCLE
8
VIA
10
190.3241
20
43.8740
40
0.1500
0
CIRCLE
8
VIA
10
197.8327
20
43.9831
40
0.1500
0
CIRCLE
8
VIA
10
205.2657
20
43.2005
40
0.1500
0
CIRCLE
8
VIA
10
212.8327
20
43.4808
40
0.1500
0
CIRCLE
8
VIA
10
219.8782
20
43.3465
40
0.1500
0
CIRCLE
8
VIA
10
227.6536
20
43.2868
40
0.1500
0
CIRCLE
8
VIA
10
235.2789
20
43.3442
40
0.1500
0
CIRCLE
8
VIA
10
242.4323
20
43.3591
40
0.1500
0
CIRCLE
8
VIA
10
249.8058
20
43.7220
40
0.1500
0
CIRCLE
8
VIA
10
257.3654
20
43.4850
40
0.1500
0
CIRCLE
8
VIA
10
264.5538
20
43.5370
40
0.1500
0
CIRCLE
8
VIA
10
271.7890
20
43.3563
40
0.1500
0
CIRCLE
8
VIA
10
279.4632
20
43.6435
40
0.1500
0
CIRCLE
8
VIA
10
286.6454
20
43.7377
40
0.1500
0
CIRCLE
8
VIA
10
293.9291
20
43.7237
40
0.1500
0
CIRCLE
8
VIA
10
6.3798
20
56.2907
40
0.1500
0
CIRCLE
8
VIA
10
13.1651
20
55.9824
40
0.1500
0
CIRCLE
8
VIA
10
87.1998
20
55.9805
40
0.1500
0
CIRCLE
8
VIA
10
94.6028
20
56.3050
40
0.1500
0
CIRCLE
8
VIA
10
101.9312
20
55.8098
40
0.1500
0
CIRCLE
8
VIA
10
109.1353
20
56.3709
40
0.1500
0
CIRCLE
8
VIA
10
116.7397
20
56.4591
40
0.1500
0
CIRCLE
8
VIA
10
124.5055
20
56.1339
40
0.1500
0
CIRCLE
8
VIA
10
131.3052
20
56.4911
40
0.1500
0
CIRCLE
8
VIA
10
139.2294
20
56.2401
40
0.1500
0
CIRCLE
8
VIA
10
146.4196
20
56.4076
40
0.1500
0
CIRCLE
8
VIA
10
153.6963
20
55.9930
40
0.1500
0
CIRCLE
8
VIA
10
160.7275
20
55.8206
40
0.1500
0
CIRCLE
8
VIA
10
168.7853
20
56.2337
40
0.1500
0
CIRCLE
8
VIA
10
176.1817
20
56.1886
40
0.1500
0
CIRCLE
8
VIA
10
182.9540
20
56.0351
40
0.1500
0
CIRCLE
8
VIA
10
190.3228
20
56.0324
40
0.1500
0
CIRCLE
8
VIA
10
197.6876
20
55.7374
40
0.1500
0
CIRCLE
8
VIA
10
205.5069
20
55.7507
40
0.1500
0
CIRCLE
8
VIA
10
212.5576
20
56.4666
40
0.1500
0
CIRCLE
8
VIA
10
220.4155
20
56.3940
40
0.1500
0
CIRCLE
8
VIA
10
227.4576
20
56.2119
40
0.1500
0
CIRCLE
8
VIA
10
234.6262
20
56.3672
40
0.1500
0
CIRCLE
8
VIA
10
242.1384
20
56.1688
40
0.1500
0
CIRCLE
8
VIA
10
249.3325
20
55.7342
40
0.1500
0
CIRCLE
8
VIA
10
257.1977
20
55.8086
40
0.1500
0
CIRCLE
8
VIA
10
264.4859
20
56.3627
40
0.1500
0
CIRCLE
8
VIA
10
271.8652
20
56.3093
40
0.1500
0
CIRCLE
8
VIA
10
279.5518
20
56.2751
40
0.1500
0
CIRCLE
8
VIA
10
286.9272
20
56.0151
40
0.1500
0
CIRCLE
8
VIA
10
293.9234
20
56.4203
40
0.1500
0
CIRCLE
8
VIA
10
6.2361
20
68.9426
40
0.1500
0
CIRCLE
8
VIA
10
13.7378
20
68.9156
40
0.1500
0
CIRCLE
8
VIA
10
20.8994
20
68.3381
40
0.1500
0
CIRCLE
8
VIA
10
28.3920
20
69.0143
40
0.1500
0
CIRCLE
8
VIA
10
35.8168
20
68.4160
40
0.1500
0
CIRCLE
8
VIA
10
43.0925
20
69.0397
40
0.1500
0
CIRCLE
8
VIA
10
50.5527
20
68.9179
40
0.1500
0
CIRCLE
8
VIA
10
57.6474
20
68.9921
40
0.1500
0
CIRCLE
8
VIA
10
64.8335
20
68.4834
40
0.1500
0
CIRCLE
8
VIA
10
72.7180
20
68.5550
40
0.1500
0
CIRCLE
8
VIA
10
79.9064
20
69.0014
40
0.1500
0
CIRCLE
8
VIA
10
87.5652
20
68.3146
40
0.1500
0
CIRCLE
8
VIA
10
94.8928
20
68.5447
40
0.1500
0
CIRCLE
8
VIA
10
102.2801
20
68.5783
40
0.1500
0
CIRCLE
8
VIA
10
109.0677
20
69.0472
40
0.1500
0
CIRCLE
8
VIA
10
116.4747
20
68.9732
40
0.1500
0
CIRCLE
8
VIA
10
124.1637
20
69.0414
40
0.1500
0
CIRCLE
8
VIA
10
131.1630
20
68.7099
40
0.1500
0
CIRCLE
8
VIA
10
139.0485
20
68.5208
40
0.1500
0
CIRCLE
8
VIA
10
146.0114
20
68.4260
40
0.1500
0
CIRCLE
8
VIA
10
153.8896
20
68.3592
40
0.1500
0
CIRCLE
8
VIA
10
160.7994
20
68.6381
40
0.1500
0
CIRCLE
8
VIA
10
168.3674
20
68.7179
40
0.1500
0
CIRCLE
8
VIA
10
176.2305
20
68.8345
40
0.1500
0
CIRCLE
8
VIA
10
183.0516
20
69.0622
40
0.1500
0
CIRCLE
8
VIA
10
190.6006
20
68.7618
40
0.1500
0
CIRCLE
8
VIA
10
198.0253
20
68.3018
40
0.1500
0
CIRCLE
8
VIA
10
205.2113
20
68.9680
40
0.1500
0
CIRCLE
8
VIA
10
213.1107
20
68.9720
40
0.1500
0
CIRCLE
8
VIA
10
220.5254
20
68.5188
40
0.1500
0
CIRCLE
8
VIA
10
227.3298
20
68.5932
40
0.1500
0
CIRCLE
8
VIA
10
235.1877
20
68.9645
40
0.1500
0
CIRCLE
8
VIA
10
241.9515
20
68.9296
40
0.1500
0
CIRCLE
8
VIA
10
249.6555
20
68.9370
40
0.1500
0
CIRCLE
8
VIA
10
257.3036
20
68.9785
40
0.1500
0
CIRCLE
8
VIA
10
264.2616
20
68.9691
40
0.1500
0
CIRCLE
8
VIA
10
271.5591
20
68.7638
40
0.1500
0
CIRCLE
8
VIA
10
279.3218
20
68.6344
40
0.1500
0
CIRCLE
8
VIA
10
286.8276
20
68.6297
40
0.1500
0
CIRCLE
8
VIA
10
294.1421
20
68.4928
40
0.1500
0
CIRCLE
8
VIA
10
5.8937
20
80.9122
40
0.1500
0
CIRCLE
8
VIA
10
13.0754
20
80.8875
40
0.1500
0
CIRCLE
8
VIA
10
20.7646
20
81.2104
40
0.1500
0
CIRCLE
8
VIA
10
28.0351
20
81.1748
40
0.1500
0
CIRCLE
8
VIA
10
35.6865
20
80.9231
40
0.1500
0
CIRCLE
8
VIA
10
43.0248
20
81.4200
40
0.1500
0
CIRCLE
8
VIA
10
50.1903
20
81.4516
40
0.1500
0
CIRCLE
8
VIA
10
58.0603
20
81.0708
40
0.1500
0
CIRCLE
8
VIA
10
64.9048
20
81.0247
40
0.1500
0
CIRCLE
8
VIA
10
72.3891
20
81.2429
40
0.1500
0
CIRCLE
8
VIA
10
79.5343
20
80.9140
40
0.1500
0
CIRCLE
8
VIA
10
87.5719
20
81.1090
40
0.1500
0
CIRCLE
8
VIA
10
94.8109
20
81.2827
40
0.1500
0
CIRCLE
8
VIA
10
101.9822
20
81.5282
40
0.1500
0
CIRCLE
8
VIA
10
109.3287
20
81.4590
40
0.1500
0
CIRCLE
8
VIA
10
116.4584
20
81.1784
40
0.1500
0
CIRCLE
8
VIA
10
123.9171
20
81.3454
40
0.1500
0
CIRCLE
8
VIA
10
131.8969
20
80.8791
40
0.1500
0
CIRCLE
8
VIA
10
138.7588
20
81.3771
40
0.1500
0
CIRCLE
8
VIA
10
146.2101
20
81.2335
40
0.1500
0
CIRCLE
8
VIA
10
153.6740
20
81.5884
40
0.1500
0
CIRCLE
8
VIA
10
160.7992
20
81.3036
40
0.1500
0
CIRCLE
8
VIA
10
168.2716
20
81.1800
40
0.1500
0
CIRCLE
8
VIA
10
175.8660
20
81.0614
40
0.1500
0
CIRCLE
8
VIA
10
183.3598
20
81.0202
40
0.1500
0
CIRCLE
8
VIA
10
190.3552
20
81.1875
40
0.1500
0
CIRCLE
8
VIA
10
197.6354
20
80.8991
40
0.1500
0
CIRCLE
8
VIA
10
205.1227
20
80.9797
40
0.1500
0
CIRCLE
8
VIA
10
212.5404
20
81.3818
40
0.1500
0
CIRCLE
8
VIA
10
220.0459
20
81.5126
40
0.1500
0
CIRCLE
8
VIA
10
227.1667
20
81.1531
40
0.1500
0
CIRCLE
8
VIA
10
234.5538
20
81.4891
40
0.1500
0
CIRCLE
8
VIA
10
241.9417
20
80.9233
40
0.1500
0
CIRCLE
8
VIA
10
249.7491
20
81.3372
40
0.1500
0
CIRCLE
8
VIA
10
257.3700
20
81.4889
40
0.1500
0
CIRCLE
8
VIA
10
264.0966
20
81.2508
40
0.1500
0
CIRCLE
8
VIA
10
272.1685
20
81.4941
40
0.1500
0
CIRCLE
8
VIA
10
278.8920
20
80.8998
40
0.1500
0
CIRCLE
8
VIA
10
287.0071
20
81.0375
40
0.1500
0
CIRCLE
8
VIA
10
293.6989
20
81.0155
40
0.1500
0
CIRCLE
8
VIA
10
5.6628
20
93.4541
40
0.1500
0
CIRCLE
8
VIA
10
13.1837
20
93.4572
40
0.1500
0
CIRCLE
8
VIA
10
20.8883
20
93.8350
40
0.1500
0
CIRCLE
8
VIA
10
28.0968
20
93.3975
40
0.1500
0
CIRCLE
8
VIA
10
35.5457
20
93.9121
40
0.1500
0
CIRCLE
8
VIA
10
43.2311
20
93.7872
40
0.1500
0
CIRCLE
8
VIA
10
50.1928
20
93.7231
40
0.1500
0
CIRCLE
8
VIA
10
57.6976
20
93.3619
40
0.1500
0
CIRCLE
8
VIA
10
65.4346
20
93.5666
40
0.1500
0
CIRCLE
8
VIA
10
72.5311
20
93.4201
40
0.1500
0
CIRCLE
8
VIA
10
80.1694
20
94.0160
40
0.1500
0
CIRCLE
8
VIA
10
87.1991
20
93.9735
40
0.1500
0
CIRCLE
8
VIA
10
94.4006
20
93.8223
40
0.1500
0
CIRCLE
8
VIA
10
102.0652
20
93.4747
40
0.1500
0
CIRCLE
8
VIA
10
109.0225
20
93.3717
40
0.1500
0
CIRCLE
8
VIA
10
116.5572
20
94.0669
40
0.1500
0
CIRCLE
8
VIA
10
124.2368
20
93.4099
40
0.1500
0
CIRCLE
8
VIA
10
131.7883
20
94.0408
40
0.1500
0
CIRCLE
8
VIA
10
138.6770
20
94.0402
40
0.1500
0
CIRCLE
8
VIA
10
146.0776
20
93.6656
40
0.1500
0
CIRCLE
8
VIA
10
153.8726
20
93.7259
40
0.1500
0
CIRCLE
8
VIA
10
160.8069
20
93.4477
40
0.1500
0
CIRCLE
8
VIA
10
168.8425
20
93.7145
40
0.1500
0
CIRCLE
8
VIA
10
175.6119
20
93.6659
40
0.1500
0
CIRCLE
8
VIA
10
183.1196
20
93.3660
40
0.1500
0
CIRCLE
8
VIA
10
190.3575
20
93.8917
40
0.1500
0
CIRCLE
8
VIA
10
198.1679
20
93.3455
40
0.1500
0
CIRCLE
8
VIA
10
205.2768
20
93.5135
40
0.1500
0
CIRCLE
8
VIA
10
212.9216
20
93.6923
40
0.1500
0
CIRCLE
8
VIA
10
220.4925
20
93.3634
40
0.1500
0
CIRCLE
8
VIA
10
227.1750
20
93.5350
40
0.1500
0
CIRCLE
8
VIA
10
234.5494
20
93.7023
40
0.1500
0
CIRCLE
8
VIA
10
242.2985
20
94.1077
40
0.1500
0
CIRCLE
8
VIA
10
250.0632
20
93.5419
40
0.1500
0
CIRCLE
8
VIA
10
257.2169
20
93.8312
40
0.1500
0
CIRCLE
8
VIA
10
264.7362
20
93.3842
40
0.1500
0
CIRCLE
8
VIA
10
271.5095
20
93.4706
40
0.1500
0
CIRCLE
8
VIA
10
279.1372
20
93.6640
40
0.1500
0
CIRCLE
8
VIA
10
286.7681
20
93.5873
40
0.1500
0
CIRCLE
8
VIA
10
294.2592
20
93.9374
40
0.1500
0
CIRCLE
8
VIA
10
5.9233
20
105.9993
40
0.1500
0
CIRCLE
8
VIA
10
13.6371
20
105.8718
40
0.1500
0
CIRCLE
8
VIA
10
21.0655
20
106.2963
40
0.1500
0
CIRCLE
8
VIA
10
27.9195
20
106.3375
40
0.1500
0
CIRCLE
8
VIA
10
35.7228
20
106.3363
40
0.1500
0
CIRCLE
8
VIA
10
42.6781
20
106.4617
40
0.1500
0
CIRCLE
8
VIA
10
50.6759
20
106.0065
40
0.1500
0
CIRCLE
8
VIA
10
57.5881
20
106.2453
40
0.1500
0
CIRCLE
8
VIA
10
65.0432
20
106.4277
40
0.1500
0
CIRCLE
8
VIA
10
72.5851
20
105.8732
40
0.1500
0
CIRCLE
8
VIA
10
79.8564
20
106.6239
40
0.1500
0
CIRCLE
8
VIA
10
87.4233
20
106.4577
40
0.1500
0
CIRCLE
8
VIA
10
94.3734
20
105.9579
40
0.1500
0
CIRCLE
8
VIA
10
102.0951
20
106.2973
40
0.1500
0
CIRCLE
8
VIA
10
109.4903
20
106.6282
40
0.1500
0
CIRCLE
8
VIA
10
116.7967
20
106.1651
40
0.1500
0
CIRCLE
8
VIA
10
124.2536
20
106.0013
40
0.1500
0
CIRCLE
8
VIA
10
131.6453
20
106.5705
40
0.1500
0
CIRCLE
8
VIA
10
138.8723
20
105.8878
40
0.1500
0
CIRCLE
8
VIA
10
146.3804
20
106.6278
40
0.1500
0
CIRCLE
8
VIA
10
153.9010
20
106.1668
40
0.1500
0
CIRCLE
8
VIA
10
161.1011
20
105.9370
40
0.1500
0
CIRCLE
8
VIA
10
168.4043
20
105.9463
40
0.1500
0
CIRCLE
8
VIA
10
175.5288
20
106.5901
40
0.1500
0
CIRCLE
8
VIA
10
183.4723
20
106.5944
40
0.1500
0
CIRCLE
8
VIA
10
190.9798
20
106.6584
40
0.1500
0
CIRCLE
8
VIA
10
198.1304
20
106.5193
40
0.1500
0
CIRCLE
8
VIA
10
205.1784
20
106.2327
40
0.1500
0
CIRCLE
8
VIA
10
212.7093
20
105.9282
40
0.1500
0
CIRCLE
8
VIA
10
220.4010
20
106.4716
40
0.1500
0
CIRCLE
8
VIA
10
227.8730
20
106.4018
40
0.1500
0
CIRCLE
8
VIA
10
235.2882
20
106.4895
40
0.1500
0
CIRCLE
8
VIA
10
241.9499
20
106.5233
40
0.1500
0
CIRCLE
8
VIA
10
249.3875
20
106.5002
40
0.1500
0
CIRCLE
8
VIA
10
257.1100
20
106.2586
40
0.1500
0
CIRCLE
8
VIA
10
264.0910
20
106.2117
40
0.1500
0
CIRCLE
8
VIA
10
271.5344
20
106.4291
40
0.1500
0
CIRCLE
8
VIA
10
279.0287
20
105.9768
40
0.1500
0
CIRCLE
8
VIA
10
286.5484
20
106.3889
40
0.1500
0
CIRCLE
8
VIA
10
293.8482
20
105.9451
40
0.1500
0
CIRCLE
8
VIA
10
5.6086
20
118.9716
40
0.1500
0
CIRCLE
8
VIA
10
13.5737
20
118.9780
40
0.1500
0
CIRCLE
8
VIA
10
21.1663
20
118.8357
40
0.1500
0
CIRCLE
8
VIA
10
28.3218
20
119.0472
40
0.1500
0
CIRCLE
8
VIA
10
35.8793
20
118.5408
40
0.1500
0
CIRCLE
8
VIA
10
42.8868
20
118.6877
40
0.1500
0
CIRCLE
8
VIA
10
50.0817
20
119.0677
40
0.1500
0
CIRCLE
8
VIA
10
57.3189
20
118.4736
40
0.1500
0
CIRCLE
8
VIA
10
65.0119
20
119.0014
40
0.1500
0
CIRCLE
8
VIA
10
72.0896
20
118.8862
40
0.1500
0
CIRCLE
8
VIA
10
80.2306
20
118.6491
40
0.1500
0
CIRCLE
8
VIA
10
87.1212
20
118.6496
40
0.1500
0
CIRCLE
8
VIA
10
94.9137
20
118.8194
40
0.1500
0
CIRCLE
8
VIA
10
102.3035
20
119.1680
40
0.1500
0
CIRCLE
8
VIA
10
109.4393
20
118.4837
40
0.1500
0
CIRCLE
8
VIA
10
116.4023
20
119.0179
40
0.1500
0
CIRCLE
8
VIA
10
124.3671
20
118.9687
40
0.1500
0
CIRCLE
8
VIA
10
131.7349
20
118.5629
40
0.1500
0
CIRCLE
8
VIA
10
139.2690
20
118.5871
40
0.1500
0
CIRCLE
8
VIA
10
146.5335
20
118.8065
40
0.1500
0
CIRCLE
8
VIA
10
153.3810
20
118.6481
40
0.1500
0
CIRCLE
8
VIA
10
161.3696
20
118.6922
40
0.1500
0
CIRCLE
8
VIA
10
168.0897
20
118.9418
40
0.1500
0
CIRCLE
8
VIA
10
175.6172
20
118.6205
40
0.1500
0
CIRCLE
8
VIA
10
183.3666
20
118.5243
40
0.1500
0
CIRCLE
8
VIA
10
190.7905
20
118.9316
40
0.1500
0
CIRCLE
8
VIA
10
198.0941
20
118.9621
40
0.1500
0
CIRCLE
8
VIA
10
205.0786
20
118.9594
40
0.1500
0
CIRCLE
8
VIA
10
212.6504
20
118.7395
40
0.1500
0
CIRCLE
8
VIA
10
220.4335
20
118.7777
40
0.1500
0
CIRCLE
8
VIA
10
227.6707
20
118.9999
40
0.1500
0
CIRCLE
8
VIA
10
234.7155
20
119.0572
40
0.1500
0
CIRCLE
8
VIA
10
242.0154
20
118.9459
40
0.1500
0
CIRCLE
8
VIA
10
249.7667
20
118.8053
40
0.1500
0
CIRCLE
8
VIA
10
256.7483
20
119.0637
40
0.1500
0
CIRCLE
8
VIA
10
264.1892
20
118.5479
40
0.1500
0
CIRCLE
8
VIA
10
272.2217
20
118.8216
40
0.1500
0
CIRCLE
8
VIA
10
279.2283
20
118.9363
40
0.1500
0
CIRCLE
8
VIA
10
286.5718
20
119.1982
40
0.1500
0
CIRCLE
8
VIA
10
293.8214
20
118.5565
40
0.1500
0
CIRCLE
8
VIA
10
5.8484
20
131.4163
40
0.1500
0
CIRCLE
8
VIA
10
13.2168
20
131.2637
40
0.1500
0
CIRCLE
8
VIA
10
20.6778
20
131.2347
40
0.1500
0
CIRCLE
8
VIA
10
27.8776
20
130.9846
40
0.1500
0
CIRCLE
8
VIA
10
35.6132
20
130.9703
40
0.1500
0
CIRCLE
8
VIA
10
43.2048
20
131.3398
40
0.1500
0
CIRCLE
8
VIA
10
50.2151
20
131.1815
40
0.1500
0
CIRCLE
8
VIA
10
57.9665
20
131.2221
40
0.1500
0
CIRCLE
8
VIA
10
64.7325
20
130.9688
40
0.1500
0
CIRCLE
8
VIA
10
72.2460
20
131.2156
40
0.1500
0
CIRCLE
8
VIA
10
79.5135
20
131.4990
40
0.1500
0
CIRCLE
8
VIA
10
86.9799
20
131.6055
40
0.1500
0
CIRCLE
8
VIA
10
95.0121
20
131.3606
40
0.1500
0
CIRCLE
8
VIA
10
102.1561
20
131.0058
40
0.1500
0
CIRCLE
8
VIA
10
109.1492
20
131.2910
40
0.1500
0
CIRCLE
8
VIA
10
116.5722
20
131.2163
40
0.1500
0
CIRCLE
8
VIA
10
123.8720
20
131.4565
40
0.1500
0
CIRCLE
8
VIA
10
131.2678
20
130.9826
40
0.1500
0
CIRCLE
8
VIA
10
138.8908
20
131.5954
40
0.1500
0
CIRCLE
8
VIA
10
146.2563
20
131.5397
40
0.1500
0
CIRCLE
8
VIA
10
153.7145
20
131.3565
40
0.1500
0
CIRCLE
8
VIA
10
161.4075
20
130.9677
40
0.1500
0
CIRCLE
8
VIA
10
168.8434
20
131.4545
40
0.1500
0
CIRCLE
8
VIA
10
176.0866
20
131.4607
40
0.1500
0
CIRCLE
8
VIA
10
183.3782
20
131.0421
40
0.1500
0
CIRCLE
8
VIA
10
190.6961
20
131.2543
40
0.1500
0
CIRCLE
8
VIA
10
198.2137
20
131.6725
40
0.1500
0
CIRCLE
8
VIA
10
205.0738
20
131.4160
40
0.1500
0
CIRCLE
8
VIA
10
212.7030
20
131.2934
40
0.1500
0
CIRCLE
8
VIA
10
220.0875
20
131.6147
40
0.1500
0
CIRCLE
8
VIA
10
227.6838
20
130.9846
40
0.1500
0
CIRCLE
8
VIA
10
235.2097
20
131.0505
40
0.1500
0
CIRCLE
8
VIA
10
242.5417
20
131.3321
40
0.1500
0
CIRCLE
8
VIA
10
249.5806
20
131.5176
40
0.1500
0
CIRCLE
8
VIA
10
256.7958
20
131.5583
40
0.1500
0
CIRCLE
8
VIA
10
264.7825
20
131.1269
40
0.1500
0
CIRCLE
8
VIA
10
271.9330
20
131.3115
40
0.1500
0
CIRCLE
8
VIA
10
279.4908
20
131.3775
40
0.1500
0
CIRCLE
8
VIA
10
286.8505
20
131.0481
40
0.1500
0
CIRCLE
8
VIA
10
294.2903
20
131.2089
40
0.1500
0
CIRCLE
8
VIA
10
6.1868
20
143.4953
40
0.1500
0
CIRCLE
8
VIA
10
13.3097
20
143.5225
40
0.1500
0
CIRCLE
8
VIA
10
21.0461
20
144.1487
40
0.1500
0
CIRCLE
8
VIA
10
28.2231
20
143.6456
40
0.1500
0
CIRCLE
8
VIA
10
35.5725
20
143.9133
40
0.1500
0
CIRCLE
8
VIA
10
87.2393
20
144.1892
40
0.1500
0
CIRCLE
8
VIA
10
94.4031
20
143.7539
40
0.1500
0
CIRCLE
8
VIA
10
102.2341
20
143.7022
40
0.1500
0
CIRCLE
8
VIA
10
109.0637
20
143.9116
40
0.1500
0
CIRCLE
8
VIA
10
117.0167
20
143.6857
40
0.1500
0
CIRCLE
8
VIA
10
124.2236
20
143.5248
40
0.1500
0
CIRCLE
8
VIA
10
176.1112
20
143.4863
40
0.1500
0
CIRCLE
8
VIA
10
183.1479
20
143.7558
40
0.1500
0
CIRCLE
8
VIA
10
190.9230
20
143.4884
40
0.1500
0
CIRCLE
8
VIA
10
198.3143
20
143.7739
40
0.1500
0
CIRCLE
8
VIA
10
205.0272
20
143.9972
40
0.1500
0
CIRCLE
8
VIA
10
212.7893
20
143.8693
40
0.1500
0
CIRCLE
8
VIA
10
264.7063
20
144.1724
40
0.1500
0
CIRCLE
8
VIA
10
271.8193
20
143.7152
40
0.1500
0
CIRCLE
8
VIA
10
279.2843
20
143.5903
40
0.1500
0
CIRCLE
8
VIA
10
286.9215
20
144.2031
40
0.1500
0
CIRCLE
8
VIA
10
294.2131
20
143.7411
40
0.1500
0
CIRCLE
8
VIA
10
6.0221
20
156.6145
40
0.1500
0
CIRCLE
8
VIA
10
13.7030
20
156.5900
40
0.1500
0
CIRCLE
8
VIA
10
20.9066
20
156.6257
40
0.1500
0
CIRCLE
8
VIA
10
28.0586
20
156.1626
40
0.1500
0
CIRCLE
8
VIA
10
35.1540
20
156.3640
40
0.1500
0
CIRCLE
8
VIA
10
87.2776
20
156.7727
40
0.1500
0
CIRCLE
8
VIA
10
94.6597
20
156.0019
40
0.1500
0
CIRCLE
8
VIA
10
102.0486
20
156.4658
40
0.1500
0
CIRCLE
8
VIA
10
109.6382
20
156.7190
40
0.1500
0
CIRCLE
8
VIA
10
116.9937
20
156.4837
40
0.1500
0
CIRCLE
8
VIA
10
124.3434
20
156.3937
40
0.1500
0
CIRCLE
8
VIA
10
176.1891
20
156.5226
40
0.1500
0
CIRCLE
8
VIA
10
183.1754
20
156.7578
40
0.1500
0
CIRCLE
8
VIA
10
190.3296
20
156.5450
40
0.1500
0
CIRCLE
8
VIA
10
197.6634
20
156.0001
40
0.1500
0
CIRCLE
8
VIA
10
205.6836
20
156.0273
40
0.1500
0
CIRCLE
8
VIA
10
212.5368
20
156.7456
40
0.1500
0
CIRCLE
8
VIA
10
264.2419
20
156.4995
40
0.1500
0
CIRCLE
8
VIA
10
272.1555
20
156.6995
40
0.1500
0
CIRCLE
8
VIA
10
279.4521
20
156.2000
40
0.1500
0
CIRCLE
8
VIA
10
286.3554
20
156.4382
40
0.1500
0
CIRCLE
8
VIA
10
294.1249
20
156.7231
40
0.1500
0
CIRCLE
8
VIA
10
5.6589
20
169.2594
40
0.1500
0
CIRCLE
8
VIA
10
13.1058
20
169.2291
40
0.1500
0
CIRCLE
8
VIA
10
20.9741
20
168.6128
40
0.1500
0
CIRCLE
8
VIA
10
28.1741
20
169.1228
40
0.1500
0
CIRCLE
8
VIA
10
35.6331
20
169.2735
40
0.1500
0
CIRCLE
8
VIA
10
79.6334
20
168.9072
40
0.1500
0
CIRCLE
8
VIA
10
87.4703
20
169.2076
40
0.1500
0
CIRCLE
8
VIA
10
94.7929
20
168.9480
40
0.1500
0
CIRCLE
8
VIA
10
102.2357
20
168.6973
40
0.1500
0
CIRCLE
8
VIA
10
109.1633
20
169.0323
40
0.1500
0
CIRCLE
8
VIA
10
117.0566
20
169.0627
40
0.1500
0
CIRCLE
8
VIA
10
123.9746
20
168.7559
40
0.1500
0
CIRCLE
8
VIA
10
168.4660
20
169.1440
40
0.1500
0
CIRCLE
8
VIA
10
175.7814
20
168.7263
40
0.1500
0
CIRCLE
8
VIA
10
182.9339
20
169.0020
40
0.1500
0
CIRCLE
8
VIA
10
190.5490
20
169.3150
40
0.1500
0
CIRCLE
8
VIA
10
197.7691
20
169.2232
40
0.1500
0
CIRCLE
8
VIA
10
205.5205
20
169.0184
40
0.1500
0
CIRCLE
8
VIA
10
212.4558
20
168.7803
40
0.1500
0
CIRCLE
8
VIA
10
219.8722
20
168.7235
40
0.1500
0
CIRCLE
8
VIA
10
264.4964
20
168.7866
40
0.1500
0
CIRCLE
8
VIA
10
272.1129
20
169.1422
40
0.1500
0
CIRCLE
8
VIA
10
279.4732
20
168.9760
40
0.1500
0
CIRCLE
8
VIA
10
286.7149
20
169.2300
40
0.1500
0
CIRCLE
8
VIA
10
293.8698
20
169.3002
40
0.1500
0
CIRCLE
8
VIA
10
5.6795
20
181.5093
40
0.1500
0
CIRCLE
8
VIA
10
13.0455
20
181.5767
40
0.1500
0
CIRCLE
8
VIA
10
20.5346
20
181.7724
40
0.1500
0
CIRCLE
8
VIA
10
28.1141
20
181.3976
40
0.1500
0
CIRCLE
8
VIA
10
35.6252
20
181.8582
40
0.1500
0
CIRCLE
8
VIA
10
42.6876
20
181.3376
40
0.1500
0
CIRCLE
8
VIA
10
50.2026
20
181.1680
40
0.1500
0
CIRCLE
8
VIA
10
57.5088
20
181.6029
40
0.1500
0
CIRCLE
8
VIA
10
64.8108
20
181.7454
40
0.1500
0
CIRCLE
8
VIA
10
72.7516
20
181.1345
40
0.1500
0
CIRCLE
8
VIA
10
79.9078
20
181.4602
40
0.1500
0
CIRCLE
8
VIA
10
86.9840
20
181.6245
40
0.1500
0
CIRCLE
8
VIA
10
94.2493
20
181.1471
40
0.1500
0
CIRCLE
8
VIA
10
101.7149
20
181.4269
40
0.1500
0
CIRCLE
8
VIA
10
109.0320
20
181.1599
40
0.1500
0
CIRCLE
8
VIA
10
117.1548
20
181.2566
40
0.1500
0
CIRCLE
8
VIA
10
124.5310
20
181.2181
40
0.1500
0
CIRCLE
8
VIA
10
131.2492
20
181.6677
40
0.1500
0
CIRCLE
8
VIA
10
138.7185
20
181.7674
40
0.1500
0
CIRCLE
8
VIA
10
146.5380
20
181.2138
40
0.1500
0
CIRCLE
8
VIA
10
154.0686
20
181.6847
40
0.1500
0
CIRCLE
8
VIA
10
160.9319
20
181.1150
40
0.1500
0
CIRCLE
8
VIA
10
168.2423
20
181.2306
40
0.1500
0
CIRCLE
8
VIA
10
176.2045
20
181.6321
40
0.1500
0
CIRCLE
8
VIA
10
183.2232
20
181.1729
40
0.1500
0
CIRCLE
8
VIA
10
190.5242
20
181.6874
40
0.1500
0
CIRCLE
8
VIA
10
197.6066
20
181.2686
40
0.1500
0
CIRCLE
8
VIA
10
205.2898
20
181.5526
40
0.1500
0
CIRCLE
8
VIA
10
212.6587
20
181.3697
40
0.1500
0
CIRCLE
8
VIA
10
220.2300
20
181.1516
40
0.1500
0
CIRCLE
8
VIA
10
227.7293
20
181.0667
40
0.1500
0
CIRCLE
8
VIA
10
234.8066
20
181.4601
40
0.1500
0
CIRCLE
8
VIA
10
241.9136
20
181.8413
40
0.1500
0
CIRCLE
8
VIA
10
249.5861
20
181.2101
40
0.1500
0
CIRCLE
8
VIA
10
257.4676
20
181.4821
40
0.1500
0
CIRCLE
8
VIA
10
264.4023
20
181.2998
40
0.1500
0
CIRCLE
8
VIA
10
271.4946
20
181.6095
40
0.1500
0
CIRCLE
8
VIA
10
278.9223
20
181.7103
40
0.1500
0
CIRCLE
8
VIA
10
286.3539
20
181.1716
40
0.1500
0
CIRCLE
8
VIA
10
293.9770
20
181.7366
40
0.1500
0
CIRCLE
8
VIA
10
20.9537
20
193.7649
40
0.1500
0
CIRCLE
8
VIA
10
27.9371
20
194.1752
40
0.1500
0
CIRCLE
8
VIA
10
35.7848
20
194.0248
40
0.1500
0
CIRCLE
8
VIA
10
42.8347
20
194.2924
40
0.1500
0
CIRCLE
8
VIA
10
50.1323
20
194.1453
40
0.1500
0
CIRCLE
8
VIA
10
57.6486
20
194.3762
40
0.1500
0
CIRCLE
8
VIA
10
65.0114
20
194.2615
40
0.1500
0
CIRCLE
8
VIA
10
72.1039
20
193.8062
40
0.1500
0
CIRCLE
8
VIA
10
80.1163
20
194.2150
40
0.1500
0
CIRCLE
8
VIA
10
87.4055
20
194.3770
40
0.1500
0
CIRCLE
8
VIA
10
94.7808
20
193.6757
40
0.1500
0
CIRCLE
8
VIA
10
102.1722
20
193.8638
40
0.1500
0
CIRCLE
8
VIA
10
109.0950
20
194.0615
40
0.1500
0
CIRCLE
8
VIA
10
116.7167
20
193.7846
40
0.1500
0
CIRCLE
8
VIA
10
124.4799
20
194.2062
40
0.1500
0
CIRCLE
8
VIA
10
131.9014
20
193.8413
40
0.1500
0
CIRCLE
8
VIA
10
138.5553
20
193.9424
40
0.1500
0
CIRCLE
8
VIA
10
146.5167
20
194.2411
40
0.1500
0
CIRCLE
8
VIA
10
153.8836
20
194.1186
40
0.1500
0
CIRCLE
8
VIA
10
160.9740
20
193.9659
40
0.1500
0
CIRCLE
8
VIA
10
168.1654
20
194.0484
40
0.1500
0
CIRCLE
8
VIA
10
175.4547
20
193.9031
40
0.1500
0
CIRCLE
8
VIA
10
183.0173
20
193.7153
40
0.1500
0
CIRCLE
8
VIA
10
190.5245
20
193.8770
40
0.1500
0
CIRCLE
8
VIA
10
197.6625
20
193.7708
40
0.1500
0
CIRCLE
8
VIA
10
205.7844
20
193.9071
40
0.1500
0
CIRCLE
8
VIA
10
212.9440
20
194.3908
40
0.1500
0
CIRCLE
8
VIA
10
219.9296
20
194.1088
40
0.1500
0
CIRCLE
8
VIA
10
227.5311
20
194.3195
40
0.1500
0
CIRCLE
8
VIA
10
234.9879
20
193.7848
40
0.1500
0
CIRCLE
8
VIA
10
241.9850
20
193.7270
40
0.1500
0
CIRCLE
8
VIA
10
250.0587
20
194.0184
40
0.1500
0
CIRCLE
8
VIA
10
257.2594
20
193.7150
40
0.1500
0
CIRCLE
8
VIA
10
264.8055
20
194.3921
40
0.1500
0
CIRCLE
8
VIA
10
271.4987
20
193.8013
40
0.1500
0
CIRCLE
8
VIA
10
279.2457
20
193.7516
40
0.1500
0
ENDSEC
0
EOF
