999
PCB drill test sample - 6 diameters, generated by gen-drill-sample.ps1
0
SECTION
2
ENTITIES
0
CIRCLE
8
MOUNT
10
5.0000
20
5.0000
40
1.6000
0
CIRCLE
8
MOUNT
10
95.0000
20
5.0000
40
1.6000
0
CIRCLE
8
MOUNT
10
5.0000
20
75.0000
40
1.6000
0
CIRCLE
8
MOUNT
10
95.0000
20
75.0000
40
1.6000
0
CIRCLE
8
PWR
10
88.0000
20
12.0000
40
0.7500
0
CIRCLE
8
PWR
10
88.0000
20
18.0000
40
0.7500
0
CIRCLE
8
PWR
10
92.0000
20
12.0000
40
0.7500
0
CIRCLE
8
PWR
10
92.0000
20
18.0000
40
0.7500
0
CIRCLE
8
CONN
10
12.0000
20
8.0000
40
0.5000
0
CIRCLE
8
CONN
10
12.0000
20
10.5400
40
0.5000
0
CIRCLE
8
CONN
10
14.5400
20
8.0000
40
0.5000
0
CIRCLE
8
CONN
10
14.5400
20
10.5400
40
0.5000
0
CIRCLE
8
CONN
10
17.0800
20
8.0000
40
0.5000
0
CIRCLE
8
CONN
10
17.0800
20
10.5400
40
0.5000
0
CIRCLE
8
CONN
10
19.6200
20
8.0000
40
0.5000
0
CIRCLE
8
CONN
10
19.6200
20
10.5400
40
0.5000
0
CIRCLE
8
CONN
10
22.1600
20
8.0000
40
0.5000
0
CIRCLE
8
CONN
10
22.1600
20
10.5400
40
0.5000
0
CIRCLE
8
CONN
10
24.7000
20
8.0000
40
0.5000
0
CIRCLE
8
CONN
10
24.7000
20
10.5400
40
0.5000
0
CIRCLE
8
CONN
10
27.2400
20
8.0000
40
0.5000
0
CIRCLE
8
CONN
10
27.2400
20
10.5400
40
0.5000
0
CIRCLE
8
CONN
10
29.7800
20
8.0000
40
0.5000
0
CIRCLE
8
CONN
10
29.7800
20
10.5400
40
0.5000
0
CIRCLE
8
CONN
10
32.3200
20
8.0000
40
0.5000
0
CIRCLE
8
CONN
10
32.3200
20
10.5400
40
0.5000
0
CIRCLE
8
CONN
10
34.8600
20
8.0000
40
0.5000
0
CIRCLE
8
CONN
10
34.8600
20
10.5400
40
0.5000
0
CIRCLE
8
CONN
10
37.4000
20
8.0000
40
0.5000
0
CIRCLE
8
CONN
10
37.4000
20
10.5400
40
0.5000
0
CIRCLE
8
CONN
10
39.9400
20
8.0000
40
0.5000
0
CIRCLE
8
CONN
10
39.9400
20
10.5400
40
0.5000
0
CIRCLE
8
CONN
10
42.4800
20
8.0000
40
0.5000
0
CIRCLE
8
CONN
10
42.4800
20
10.5400
40
0.5000
0
CIRCLE
8
CONN
10
45.0200
20
8.0000
40
0.5000
0
CIRCLE
8
CONN
10
45.0200
20
10.5400
40
0.5000
0
CIRCLE
8
CONN
10
47.5600
20
8.0000
40
0.5000
0
CIRCLE
8
CONN
10
47.5600
20
10.5400
40
0.5000
0
CIRCLE
8
CONN
10
50.1000
20
8.0000
40
0.5000
0
CIRCLE
8
CONN
10
50.1000
20
10.5400
40
0.5000
0
CIRCLE
8
CONN
10
52.6400
20
8.0000
40
0.5000
0
CIRCLE
8
CONN
10
52.6400
20
10.5400
40
0.5000
0
CIRCLE
8
CONN
10
55.1800
20
8.0000
40
0.5000
0
CIRCLE
8
CONN
10
55.1800
20
10.5400
40
0.5000
0
CIRCLE
8
CONN
10
57.7200
20
8.0000
40
0.5000
0
CIRCLE
8
CONN
10
57.7200
20
10.5400
40
0.5000
0
CIRCLE
8
CONN
10
60.2600
20
8.0000
40
0.5000
0
CIRCLE
8
CONN
10
60.2600
20
10.5400
40
0.5000
0
CIRCLE
8
IC
10
18.0000
20
24.0000
40
0.4000
0
CIRCLE
8
IC
10
18.0000
20
31.6200
40
0.4000
0
CIRCLE
8
IC
10
20.5400
20
24.0000
40
0.4000
0
CIRCLE
8
IC
10
20.5400
20
31.6200
40
0.4000
0
CIRCLE
8
IC
10
23.0800
20
24.0000
40
0.4000
0
CIRCLE
8
IC
10
23.0800
20
31.6200
40
0.4000
0
CIRCLE
8
IC
10
25.6200
20
24.0000
40
0.4000
0
CIRCLE
8
IC
10
25.6200
20
31.6200
40
0.4000
0
CIRCLE
8
IC
10
28.1600
20
24.0000
40
0.4000
0
CIRCLE
8
IC
10
28.1600
20
31.6200
40
0.4000
0
CIRCLE
8
IC
10
30.7000
20
24.0000
40
0.4000
0
CIRCLE
8
IC
10
30.7000
20
31.6200
40
0.4000
0
CIRCLE
8
IC
10
33.2400
20
24.0000
40
0.4000
0
CIRCLE
8
IC
10
33.2400
20
31.6200
40
0.4000
0
CIRCLE
8
IC
10
35.7800
20
24.0000
40
0.4000
0
CIRCLE
8
IC
10
35.7800
20
31.6200
40
0.4000
0
CIRCLE
8
IC
10
43.0000
20
24.0000
40
0.4000
0
CIRCLE
8
IC
10
43.0000
20
31.6200
40
0.4000
0
CIRCLE
8
IC
10
45.5400
20
24.0000
40
0.4000
0
CIRCLE
8
IC
10
45.5400
20
31.6200
40
0.4000
0
CIRCLE
8
IC
10
48.0800
20
24.0000
40
0.4000
0
CIRCLE
8
IC
10
48.0800
20
31.6200
40
0.4000
0
CIRCLE
8
IC
10
50.6200
20
24.0000
40
0.4000
0
CIRCLE
8
IC
10
50.6200
20
31.6200
40
0.4000
0
CIRCLE
8
IC
10
53.1600
20
24.0000
40
0.4000
0
CIRCLE
8
IC
10
53.1600
20
31.6200
40
0.4000
0
CIRCLE
8
IC
10
55.7000
20
24.0000
40
0.4000
0
CIRCLE
8
IC
10
55.7000
20
31.6200
40
0.4000
0
CIRCLE
8
IC
10
58.2400
20
24.0000
40
0.4000
0
CIRCLE
8
IC
10
58.2400
20
31.6200
40
0.4000
0
CIRCLE
8
IC
10
60.7800
20
24.0000
40
0.4000
0
CIRCLE
8
IC
10
60.7800
20
31.6200
40
0.4000
0
CIRCLE
8
IC
10
68.0000
20
24.0000
40
0.4000
0
CIRCLE
8
IC
10
68.0000
20
31.6200
40
0.4000
0
CIRCLE
8
IC
10
70.5400
20
24.0000
40
0.4000
0
CIRCLE
8
IC
10
70.5400
20
31.6200
40
0.4000
0
CIRCLE
8
IC
10
73.0800
20
24.0000
40
0.4000
0
CIRCLE
8
IC
10
73.0800
20
31.6200
40
0.4000
0
CIRCLE
8
IC
10
75.6200
20
24.0000
40
0.4000
0
CIRCLE
8
IC
10
75.6200
20
31.6200
40
0.4000
0
CIRCLE
8
IC
10
78.1600
20
24.0000
40
0.4000
0
CIRCLE
8
IC
10
78.1600
20
31.6200
40
0.4000
0
CIRCLE
8
IC
10
80.7000
20
24.0000
40
0.4000
0
CIRCLE
8
IC
10
80.7000
20
31.6200
40
0.4000
0
CIRCLE
8
IC
10
83.2400
20
24.0000
40
0.4000
0
CIRCLE
8
IC
10
83.2400
20
31.6200
40
0.4000
0
CIRCLE
8
IC
10
85.7800
20
24.0000
40
0.4000
0
CIRCLE
8
IC
10
85.7800
20
31.6200
40
0.4000
0
CIRCLE
8
IC
10
18.0000
20
42.0000
40
0.4000
0
CIRCLE
8
IC
10
18.0000
20
49.6200
40
0.4000
0
CIRCLE
8
IC
10
20.5400
20
42.0000
40
0.4000
0
CIRCLE
8
IC
10
20.5400
20
49.6200
40
0.4000
0
CIRCLE
8
IC
10
23.0800
20
42.0000
40
0.4000
0
CIRCLE
8
IC
10
23.0800
20
49.6200
40
0.4000
0
CIRCLE
8
IC
10
25.6200
20
42.0000
40
0.4000
0
CIRCLE
8
IC
10
25.6200
20
49.6200
40
0.4000
0
CIRCLE
8
IC
10
28.1600
20
42.0000
40
0.4000
0
CIRCLE
8
IC
10
28.1600
20
49.6200
40
0.4000
0
CIRCLE
8
IC
10
30.7000
20
42.0000
40
0.4000
0
CIRCLE
8
IC
10
30.7000
20
49.6200
40
0.4000
0
CIRCLE
8
IC
10
33.2400
20
42.0000
40
0.4000
0
CIRCLE
8
IC
10
33.2400
20
49.6200
40
0.4000
0
CIRCLE
8
IC
10
35.7800
20
42.0000
40
0.4000
0
CIRCLE
8
IC
10
35.7800
20
49.6200
40
0.4000
0
CIRCLE
8
IC
10
43.0000
20
42.0000
40
0.4000
0
CIRCLE
8
IC
10
43.0000
20
49.6200
40
0.4000
0
CIRCLE
8
IC
10
45.5400
20
42.0000
40
0.4000
0
CIRCLE
8
IC
10
45.5400
20
49.6200
40
0.4000
0
CIRCLE
8
IC
10
48.0800
20
42.0000
40
0.4000
0
CIRCLE
8
IC
10
48.0800
20
49.6200
40
0.4000
0
CIRCLE
8
IC
10
50.6200
20
42.0000
40
0.4000
0
CIRCLE
8
IC
10
50.6200
20
49.6200
40
0.4000
0
CIRCLE
8
IC
10
53.1600
20
42.0000
40
0.4000
0
CIRCLE
8
IC
10
53.1600
20
49.6200
40
0.4000
0
CIRCLE
8
IC
10
55.7000
20
42.0000
40
0.4000
0
CIRCLE
8
IC
10
55.7000
20
49.6200
40
0.4000
0
CIRCLE
8
IC
10
58.2400
20
42.0000
40
0.4000
0
CIRCLE
8
IC
10
58.2400
20
49.6200
40
0.4000
0
CIRCLE
8
IC
10
60.7800
20
42.0000
40
0.4000
0
CIRCLE
8
IC
10
60.7800
20
49.6200
40
0.4000
0
CIRCLE
8
IC
10
68.0000
20
42.0000
40
0.4000
0
CIRCLE
8
IC
10
68.0000
20
49.6200
40
0.4000
0
CIRCLE
8
IC
10
70.5400
20
42.0000
40
0.4000
0
CIRCLE
8
IC
10
70.5400
20
49.6200
40
0.4000
0
CIRCLE
8
IC
10
73.0800
20
42.0000
40
0.4000
0
CIRCLE
8
IC
10
73.0800
20
49.6200
40
0.4000
0
CIRCLE
8
IC
10
75.6200
20
42.0000
40
0.4000
0
CIRCLE
8
IC
10
75.6200
20
49.6200
40
0.4000
0
CIRCLE
8
IC
10
78.1600
20
42.0000
40
0.4000
0
CIRCLE
8
IC
10
78.1600
20
49.6200
40
0.4000
0
CIRCLE
8
IC
10
80.7000
20
42.0000
40
0.4000
0
CIRCLE
8
IC
10
80.7000
20
49.6200
40
0.4000
0
CIRCLE
8
IC
10
83.2400
20
42.0000
40
0.4000
0
CIRCLE
8
IC
10
83.2400
20
49.6200
40
0.4000
0
CIRCLE
8
IC
10
85.7800
20
42.0000
40
0.4000
0
CIRCLE
8
IC
10
85.7800
20
49.6200
40
0.4000
0
CIRCLE
8
PTH
10
8.0000
20
58.0000
40
0.3000
0
CIRCLE
8
PTH
10
8.0000
20
65.6200
40
0.3000
0
CIRCLE
8
PTH
10
11.0000
20
58.0000
40
0.3000
0
CIRCLE
8
PTH
10
11.0000
20
65.6200
40
0.3000
0
CIRCLE
8
PTH
10
14.0000
20
58.0000
40
0.3000
0
CIRCLE
8
PTH
10
14.0000
20
65.6200
40
0.3000
0
CIRCLE
8
PTH
10
17.0000
20
58.0000
40
0.3000
0
CIRCLE
8
PTH
10
17.0000
20
65.6200
40
0.3000
0
CIRCLE
8
PTH
10
20.0000
20
58.0000
40
0.3000
0
CIRCLE
8
PTH
10
20.0000
20
65.6200
40
0.3000
0
CIRCLE
8
PTH
10
23.0000
20
58.0000
40
0.3000
0
CIRCLE
8
PTH
10
23.0000
20
65.6200
40
0.3000
0
CIRCLE
8
PTH
10
26.0000
20
58.0000
40
0.3000
0
CIRCLE
8
PTH
10
26.0000
20
65.6200
40
0.3000
0
CIRCLE
8
PTH
10
29.0000
20
58.0000
40
0.3000
0
CIRCLE
8
PTH
10
29.0000
20
65.6200
40
0.3000
0
CIRCLE
8
PTH
10
32.0000
20
58.0000
40
0.3000
0
CIRCLE
8
PTH
10
32.0000
20
65.6200
40
0.3000
0
CIRCLE
8
PTH
10
35.0000
20
58.0000
40
0.3000
0
CIRCLE
8
PTH
10
35.0000
20
65.6200
40
0.3000
0
CIRCLE
8
PTH
10
38.0000
20
58.0000
40
0.3000
0
CIRCLE
8
PTH
10
38.0000
20
65.6200
40
0.3000
0
CIRCLE
8
PTH
10
41.0000
20
58.0000
40
0.3000
0
CIRCLE
8
PTH
10
41.0000
20
65.6200
40
0.3000
0
CIRCLE
8
PTH
10
44.0000
20
58.0000
40
0.3000
0
CIRCLE
8
PTH
10
44.0000
20
65.6200
40
0.3000
0
CIRCLE
8
PTH
10
47.0000
20
58.0000
40
0.3000
0
CIRCLE
8
PTH
10
47.0000
20
65.6200
40
0.3000
0
CIRCLE
8
PTH
10
50.0000
20
58.0000
40
0.3000
0
CIRCLE
8
PTH
10
50.0000
20
65.6200
40
0.3000
0
CIRCLE
8
PTH
10
53.0000
20
58.0000
40
0.3000
0
CIRCLE
8
PTH
10
53.0000
20
65.6200
40
0.3000
0
CIRCLE
8
PTH
10
56.0000
20
58.0000
40
0.3000
0
CIRCLE
8
PTH
10
56.0000
20
65.6200
40
0.3000
0
CIRCLE
8
PTH
10
59.0000
20
58.0000
40
0.3000
0
CIRCLE
8
PTH
10
59.0000
20
65.6200
40
0.3000
0
CIRCLE
8
PTH
10
62.0000
20
58.0000
40
0.3000
0
CIRCLE
8
PTH
10
62.0000
20
65.6200
40
0.3000
0
CIRCLE
8
PTH
10
65.0000
20
58.0000
40
0.3000
0
CIRCLE
8
PTH
10
65.0000
20
65.6200
40
0.3000
0
CIRCLE
8
PTH
10
68.0000
20
58.0000
40
0.3000
0
CIRCLE
8
PTH
10
68.0000
20
65.6200
40
0.3000
0
CIRCLE
8
PTH
10
71.0000
20
58.0000
40
0.3000
0
CIRCLE
8
PTH
10
71.0000
20
65.6200
40
0.3000
0
CIRCLE
8
PTH
10
74.0000
20
58.0000
40
0.3000
0
CIRCLE
8
PTH
10
74.0000
20
65.6200
40
0.3000
0
CIRCLE
8
PTH
10
77.0000
20
58.0000
40
0.3000
0
CIRCLE
8
PTH
10
77.0000
20
65.6200
40
0.3000
0
CIRCLE
8
PTH
10
80.0000
20
58.0000
40
0.3000
0
CIRCLE
8
PTH
10
80.0000
20
65.6200
40
0.3000
0
CIRCLE
8
PTH
10
83.0000
20
58.0000
40
0.3000
0
CIRCLE
8
PTH
10
83.0000
20
65.6200
40
0.3000
0
CIRCLE
8
PTH
10
86.0000
20
58.0000
40
0.3000
0
CIRCLE
8
PTH
10
86.0000
20
65.6200
40
0.3000
0
CIRCLE
8
PTH
10
89.0000
20
58.0000
40
0.3000
0
CIRCLE
8
PTH
10
89.0000
20
65.6200
40
0.3000
0
CIRCLE
8
PTH
10
92.0000
20
58.0000
40
0.3000
0
CIRCLE
8
PTH
10
92.0000
20
65.6200
40
0.3000
0
CIRCLE
8
PTH
10
95.0000
20
58.0000
40
0.3000
0
CIRCLE
8
PTH
10
95.0000
20
65.6200
40
0.3000
0
CIRCLE
8
VIA
10
10.0796
20
3.8101
40
0.1500
0
CIRCLE
8
VIA
10
13.6968
20
4.0103
40
0.1500
0
CIRCLE
8
VIA
10
16.4286
20
4.2090
40
0.1500
0
CIRCLE
8
VIA
10
19.6497
20
3.8059
40
0.1500
0
CIRCLE
8
VIA
10
23.0390
20
3.8562
40
0.1500
0
CIRCLE
8
VIA
10
26.1117
20
3.8082
40
0.1500
0
CIRCLE
8
VIA
10
29.3933
20
3.6283
40
0.1500
0
CIRCLE
8
VIA
10
32.8030
20
4.0618
40
0.1500
0
CIRCLE
8
VIA
10
35.6421
20
3.7218
40
0.1500
0
CIRCLE
8
VIA
10
38.5686
20
4.1641
40
0.1500
0
CIRCLE
8
VIA
10
42.3219
20
4.0320
40
0.1500
0
CIRCLE
8
VIA
10
44.8767
20
4.1689
40
0.1500
0
CIRCLE
8
VIA
10
48.1320
20
4.3250
40
0.1500
0
CIRCLE
8
VIA
10
51.7403
20
4.0131
40
0.1500
0
CIRCLE
8
VIA
10
54.5077
20
3.6332
40
0.1500
0
CIRCLE
8
VIA
10
57.7776
20
4.0665
40
0.1500
0
CIRCLE
8
VIA
10
61.3603
20
3.6032
40
0.1500
0
CIRCLE
8
VIA
10
64.3044
20
4.2441
40
0.1500
0
CIRCLE
8
VIA
10
67.6470
20
3.9077
40
0.1500
0
CIRCLE
8
VIA
10
70.3400
20
3.6211
40
0.1500
0
CIRCLE
8
VIA
10
73.4339
20
4.2253
40
0.1500
0
CIRCLE
8
VIA
10
77.0667
20
3.6921
40
0.1500
0
CIRCLE
8
VIA
10
79.9379
20
4.2179
40
0.1500
0
CIRCLE
8
VIA
10
83.1420
20
4.1185
40
0.1500
0
CIRCLE
8
VIA
10
86.1977
20
3.6356
40
0.1500
0
CIRCLE
8
VIA
10
89.7388
20
4.0127
40
0.1500
0
CIRCLE
8
VIA
10
9.9998
20
7.9640
40
0.1500
0
CIRCLE
8
VIA
10
64.6420
20
7.6557
40
0.1500
0
CIRCLE
8
VIA
10
67.6168
20
7.5194
40
0.1500
0
CIRCLE
8
VIA
10
70.3032
20
7.7512
40
0.1500
0
CIRCLE
8
VIA
10
73.6597
20
8.0104
40
0.1500
0
CIRCLE
8
VIA
10
76.6844
20
7.4972
40
0.1500
0
CIRCLE
8
VIA
10
79.9105
20
7.8628
40
0.1500
0
CIRCLE
8
VIA
10
83.3206
20
8.1791
40
0.1500
0
CIRCLE
8
VIA
10
86.6957
20
7.9271
40
0.1500
0
CIRCLE
8
VIA
10
89.8271
20
7.6211
40
0.1500
0
CIRCLE
8
VIA
10
3.8763
20
11.9222
40
0.1500
0
CIRCLE
8
VIA
10
6.7941
20
11.3547
40
0.1500
0
CIRCLE
8
VIA
10
64.0252
20
11.4148
40
0.1500
0
CIRCLE
8
VIA
10
67.4963
20
11.6239
40
0.1500
0
CIRCLE
8
VIA
10
70.7907
20
11.2765
40
0.1500
0
CIRCLE
8
VIA
10
73.8716
20
11.4921
40
0.1500
0
CIRCLE
8
VIA
10
77.2703
20
11.5349
40
0.1500
0
CIRCLE
8
VIA
10
80.0165
20
11.9500
40
0.1500
0
CIRCLE
8
VIA
10
83.2813
20
11.6134
40
0.1500
0
CIRCLE
8
VIA
10
96.3522
20
11.7550
40
0.1500
0
CIRCLE
8
VIA
10
3.9232
20
15.4411
40
0.1500
0
CIRCLE
8
VIA
10
7.0924
20
15.0684
40
0.1500
0
CIRCLE
8
VIA
10
10.6734
20
15.7395
40
0.1500
0
CIRCLE
8
VIA
10
13.8297
20
15.1065
40
0.1500
0
CIRCLE
8
VIA
10
16.5568
20
15.4022
40
0.1500
0
CIRCLE
8
VIA
10
19.9548
20
15.7224
40
0.1500
0
CIRCLE
8
VIA
10
23.2924
20
15.5663
40
0.1500
0
CIRCLE
8
VIA
10
26.0313
20
15.2402
40
0.1500
0
CIRCLE
8
VIA
10
29.3998
20
15.6119
40
0.1500
0
CIRCLE
8
VIA
10
32.3494
20
15.6788
40
0.1500
0
CIRCLE
8
VIA
10
35.8557
20
15.1201
40
0.1500
0
CIRCLE
8
VIA
10
38.7183
20
15.1512
40
0.1500
0
CIRCLE
8
VIA
10
42.3359
20
15.4804
40
0.1500
0
CIRCLE
8
VIA
10
44.9069
20
15.3048
40
0.1500
0
CIRCLE
8
VIA
10
48.6579
20
15.6725
40
0.1500
0
CIRCLE
8
VIA
10
51.8092
20
15.7311
40
0.1500
0
CIRCLE
8
VIA
10
55.1131
20
15.3417
40
0.1500
0
CIRCLE
8
VIA
10
58.2436
20
15.7438
40
0.1500
0
CIRCLE
8
VIA
10
60.8284
20
15.4384
40
0.1500
0
CIRCLE
8
VIA
10
64.0449
20
15.4758
40
0.1500
0
CIRCLE
8
VIA
10
67.4490
20
15.5351
40
0.1500
0
CIRCLE
8
VIA
10
70.3095
20
15.6132
40
0.1500
0
CIRCLE
8
VIA
10
73.6714
20
15.3854
40
0.1500
0
CIRCLE
8
VIA
10
77.1421
20
15.1288
40
0.1500
0
CIRCLE
8
VIA
10
80.1618
20
15.5993
40
0.1500
0
CIRCLE
8
VIA
10
83.3757
20
15.1273
40
0.1500
0
CIRCLE
8
VIA
10
95.8331
20
15.1849
40
0.1500
0
CIRCLE
8
VIA
10
4.3056
20
19.1339
40
0.1500
0
CIRCLE
8
VIA
10
7.0664
20
19.1209
40
0.1500
0
CIRCLE
8
VIA
10
10.5556
20
19.2879
40
0.1500
0
CIRCLE
8
VIA
10
13.9167
20
19.0425
40
0.1500
0
CIRCLE
8
VIA
10
16.9749
20
19.0069
40
0.1500
0
CIRCLE
8
VIA
10
19.6089
20
19.5083
40
0.1500
0
CIRCLE
8
VIA
10
23.1089
20
19.2482
40
0.1500
0
CIRCLE
8
VIA
10
26.1166
20
19.5228
40
0.1500
0
CIRCLE
8
VIA
10
29.0421
20
19.1348
40
0.1500
0
CIRCLE
8
VIA
10
32.8562
20
19.0078
40
0.1500
0
CIRCLE
8
VIA
10
36.0596
20
19.4630
40
0.1500
0
CIRCLE
8
VIA
10
39.2091
20
18.7711
40
0.1500
0
CIRCLE
8
VIA
10
41.9076
20
19.2221
40
0.1500
0
CIRCLE
8
VIA
10
44.8563
20
19.4705
40
0.1500
0
CIRCLE
8
VIA
10
48.3425
20
19.2990
40
0.1500
0
CIRCLE
8
VIA
10
51.7106
20
19.5456
40
0.1500
0
CIRCLE
8
VIA
10
54.5956
20
19.5104
40
0.1500
0
CIRCLE
8
VIA
10
58.1328
20
18.7826
40
0.1500
0
CIRCLE
8
VIA
10
60.9761
20
19.2837
40
0.1500
0
CIRCLE
8
VIA
10
63.9099
20
19.3061
40
0.1500
0
CIRCLE
8
VIA
10
67.4658
20
19.0499
40
0.1500
0
CIRCLE
8
VIA
10
70.4958
20
18.9327
40
0.1500
0
CIRCLE
8
VIA
10
73.8772
20
19.2728
40
0.1500
0
CIRCLE
8
VIA
10
77.0499
20
19.0154
40
0.1500
0
CIRCLE
8
VIA
10
80.2701
20
18.8375
40
0.1500
0
CIRCLE
8
VIA
10
83.0191
20
19.4319
40
0.1500
0
CIRCLE
8
VIA
10
95.7243
20
18.9044
40
0.1500
0
CIRCLE
8
VIA
10
4.1152
20
22.6342
40
0.1500
0
CIRCLE
8
VIA
10
7.5283
20
22.6916
40
0.1500
0
CIRCLE
8
VIA
10
10.4695
20
22.7064
40
0.1500
0
CIRCLE
8
VIA
10
13.6307
20
23.0693
40
0.1500
0
CIRCLE
8
VIA
10
64.3260
20
22.8724
40
0.1500
0
CIRCLE
8
VIA
10
89.4219
20
23.3052
40
0.1500
0
CIRCLE
8
VIA
10
93.1339
20
23.0541
40
0.1500
0
CIRCLE
8
VIA
10
96.1119
20
23.2216
40
0.1500
0
CIRCLE
8
VIA
10
4.0040
20
26.5965
40
0.1500
0
CIRCLE
8
VIA
10
6.8230
20
26.4241
40
0.1500
0
CIRCLE
8
VIA
10
10.6686
20
26.8373
40
0.1500
0
CIRCLE
8
VIA
10
13.8528
20
26.7921
40
0.1500
0
CIRCLE
8
VIA
10
64.1993
20
27.0238
40
0.1500
0
CIRCLE
8
VIA
10
89.6103
20
27.0623
40
0.1500
0
CIRCLE
8
VIA
10
92.5842
20
26.5535
40
0.1500
0
CIRCLE
8
VIA
10
96.2565
20
26.6251
40
0.1500
0
CIRCLE
8
VIA
10
4.0603
20
30.8611
40
0.1500
0
CIRCLE
8
VIA
10
7.5069
20
30.1742
40
0.1500
0
CIRCLE
8
VIA
10
10.6223
20
30.4043
40
0.1500
0
CIRCLE
8
VIA
10
13.7973
20
30.4380
40
0.1500
0
CIRCLE
8
VIA
10
64.6474
20
30.3785
40
0.1500
0
CIRCLE
8
VIA
10
89.7462
20
30.4941
40
0.1500
0
CIRCLE
8
VIA
10
93.0398
20
30.4893
40
0.1500
0
CIRCLE
8
VIA
10
96.1421
20
30.3525
40
0.1500
0
CIRCLE
8
VIA
10
3.8937
20
34.0280
40
0.1500
0
CIRCLE
8
VIA
10
6.8632
20
34.0033
40
0.1500
0
CIRCLE
8
VIA
10
10.3402
20
34.3262
40
0.1500
0
CIRCLE
8
VIA
10
13.3985
20
34.2906
40
0.1500
0
CIRCLE
8
VIA
10
16.8377
20
34.0389
40
0.1500
0
CIRCLE
8
VIA
10
19.9638
20
34.5358
40
0.1500
0
CIRCLE
8
VIA
10
22.9171
20
34.5674
40
0.1500
0
CIRCLE
8
VIA
10
26.5749
20
34.1866
40
0.1500
0
CIRCLE
8
VIA
10
29.2072
20
34.1405
40
0.1500
0
CIRCLE
8
VIA
10
32.4793
20
34.3587
40
0.1500
0
CIRCLE
8
VIA
10
35.4122
20
34.0298
40
0.1500
0
CIRCLE
8
VIA
10
39.2377
20
34.2248
40
0.1500
0
CIRCLE
8
VIA
10
42.2645
20
34.3985
40
0.1500
0
CIRCLE
8
VIA
10
45.2235
20
34.6440
40
0.1500
0
CIRCLE
8
VIA
10
48.3579
20
34.5747
40
0.1500
0
CIRCLE
8
VIA
10
51.2754
20
34.2942
40
0.1500
0
CIRCLE
8
VIA
10
54.5219
20
34.4611
40
0.1500
0
CIRCLE
8
VIA
10
60.9392
20
34.4929
40
0.1500
0
CIRCLE
8
VIA
10
64.1783
20
34.3493
40
0.1500
0
CIRCLE
8
VIA
10
67.4299
20
34.7041
40
0.1500
0
CIRCLE
8
VIA
10
70.3430
20
34.4194
40
0.1500
0
CIRCLE
8
VIA
10
73.6032
20
34.2958
40
0.1500
0
CIRCLE
8
VIA
10
76.9854
20
34.1772
40
0.1500
0
CIRCLE
8
VIA
10
80.2670
20
34.1360
40
0.1500
0
CIRCLE
8
VIA
10
83.0502
20
34.3033
40
0.1500
0
CIRCLE
8
VIA
10
86.1182
20
34.0149
40
0.1500
0
CIRCLE
8
VIA
10
89.3932
20
34.0955
40
0.1500
0
CIRCLE
8
VIA
10
92.5987
20
34.4976
40
0.1500
0
CIRCLE
8
VIA
10
95.8920
20
34.6284
40
0.1500
0
CIRCLE
8
VIA
10
3.6282
20
38.0583
40
0.1500
0
CIRCLE
8
VIA
10
6.8031
20
38.3943
40
0.1500
0
CIRCLE
8
VIA
10
9.9788
20
37.8286
40
0.1500
0
CIRCLE
8
VIA
10
13.5740
20
38.2425
40
0.1500
0
CIRCLE
8
VIA
10
16.9828
20
38.3942
40
0.1500
0
CIRCLE
8
VIA
10
19.4971
20
38.1561
40
0.1500
0
CIRCLE
8
VIA
10
23.3568
20
38.3994
40
0.1500
0
CIRCLE
8
VIA
10
25.8682
20
37.8050
40
0.1500
0
CIRCLE
8
VIA
10
29.7710
20
37.9428
40
0.1500
0
CIRCLE
8
VIA
10
32.2506
20
37.9207
40
0.1500
0
CIRCLE
8
VIA
10
35.3870
20
37.8260
40
0.1500
0
CIRCLE
8
VIA
10
38.6957
20
37.8291
40
0.1500
0
CIRCLE
8
VIA
10
42.1881
20
38.2069
40
0.1500
0
CIRCLE
8
VIA
10
45.1844
20
37.7694
40
0.1500
0
CIRCLE
8
VIA
10
48.4211
20
38.2840
40
0.1500
0
CIRCLE
8
VIA
10
51.8942
20
38.1591
40
0.1500
0
CIRCLE
8
VIA
10
54.6437
20
38.0951
40
0.1500
0
CIRCLE
8
VIA
10
57.9363
20
37.7339
40
0.1500
0
CIRCLE
8
VIA
10
61.4611
20
37.9385
40
0.1500
0
CIRCLE
8
VIA
10
64.3455
20
37.7920
40
0.1500
0
CIRCLE
8
VIA
10
67.7716
20
38.3879
40
0.1500
0
CIRCLE
8
VIA
10
70.5890
20
38.3454
40
0.1500
0
CIRCLE
8
VIA
10
73.5783
20
38.1943
40
0.1500
0
CIRCLE
8
VIA
10
77.0307
20
37.8466
40
0.1500
0
CIRCLE
8
VIA
10
79.7758
20
37.7436
40
0.1500
0
CIRCLE
8
VIA
10
83.0984
20
38.4389
40
0.1500
0
CIRCLE
8
VIA
10
86.5657
20
37.7818
40
0.1500
0
CIRCLE
8
VIA
10
89.9050
20
38.4127
40
0.1500
0
CIRCLE
8
VIA
10
92.5815
20
38.4121
40
0.1500
0
CIRCLE
8
VIA
10
95.7699
20
38.0376
40
0.1500
0
CIRCLE
8
VIA
10
4.1803
20
41.8873
40
0.1500
0
CIRCLE
8
VIA
10
6.9024
20
41.6091
40
0.1500
0
CIRCLE
8
VIA
10
10.7258
20
41.8759
40
0.1500
0
CIRCLE
8
VIA
10
13.2830
20
41.8273
40
0.1500
0
CIRCLE
8
VIA
10
64.5351
20
42.0988
40
0.1500
0
CIRCLE
8
VIA
10
89.5510
20
41.8734
40
0.1500
0
CIRCLE
8
VIA
10
92.7938
20
42.0557
40
0.1500
0
CIRCLE
8
VIA
10
96.1236
20
41.5013
40
0.1500
0
CIRCLE
8
VIA
10
4.0102
20
46.0414
40
0.1500
0
CIRCLE
8
VIA
10
7.3650
20
45.8752
40
0.1500
0
CIRCLE
8
VIA
10
10.1029
20
45.3755
40
0.1500
0
CIRCLE
8
VIA
10
13.6123
20
45.7148
40
0.1500
0
CIRCLE
8
VIA
10
64.5230
20
45.8892
40
0.1500
0
CIRCLE
8
VIA
10
89.4531
20
45.3943
40
0.1500
0
CIRCLE
8
VIA
10
92.7606
20
45.8064
40
0.1500
0
CIRCLE
8
VIA
10
95.8482
20
45.3626
40
0.1500
0
CIRCLE
8
VIA
10
3.6086
20
49.6453
40
0.1500
0
CIRCLE
8
VIA
10
7.3615
20
49.6517
40
0.1500
0
CIRCLE
8
VIA
10
10.7419
20
49.5094
40
0.1500
0
CIRCLE
8
VIA
10
13.6852
20
49.7208
40
0.1500
0
CIRCLE
8
VIA
10
64.5017
20
49.4802
40
0.1500
0
CIRCLE
8
VIA
10
89.3491
20
49.6331
40
0.1500
0
CIRCLE
8
VIA
10
92.7088
20
49.4132
40
0.1500
0
CIRCLE
8
VIA
10
96.2797
20
49.4513
40
0.1500
0
CIRCLE
8
VIA
10
4.1323
20
53.4631
40
0.1500
0
CIRCLE
8
VIA
10
6.9649
20
53.5203
40
0.1500
0
CIRCLE
8
VIA
10
10.0526
20
53.4091
40
0.1500
0
CIRCLE
8
VIA
10
13.5917
20
53.2685
40
0.1500
0
CIRCLE
8
VIA
10
16.3610
20
53.5268
40
0.1500
0
CIRCLE
8
VIA
10
19.5897
20
53.0110
40
0.1500
0
CIRCLE
8
VIA
10
23.4100
20
53.2848
40
0.1500
0
CIRCLE
8
VIA
10
26.2044
20
53.3995
40
0.1500
0
CIRCLE
8
VIA
10
29.3358
20
53.6614
40
0.1500
0
CIRCLE
8
VIA
10
32.3731
20
53.0197
40
0.1500
0
CIRCLE
8
VIA
10
35.5725
20
53.3461
40
0.1500
0
CIRCLE
8
VIA
10
38.7288
20
53.1935
40
0.1500
0
CIRCLE
8
VIA
10
41.9775
20
53.1646
40
0.1500
0
CIRCLE
8
VIA
10
44.9651
20
52.9144
40
0.1500
0
CIRCLE
8
VIA
10
48.4886
20
52.9001
40
0.1500
0
CIRCLE
8
VIA
10
51.8680
20
53.2696
40
0.1500
0
CIRCLE
8
VIA
10
54.6660
20
53.1113
40
0.1500
0
CIRCLE
8
VIA
10
58.2053
20
53.1519
40
0.1500
0
CIRCLE
8
VIA
10
60.7591
20
52.8987
40
0.1500
0
CIRCLE
8
VIA
10
64.0604
20
53.1454
40
0.1500
0
CIRCLE
8
VIA
10
67.1156
20
53.4289
40
0.1500
0
CIRCLE
8
VIA
10
70.3698
20
53.5353
40
0.1500
0
CIRCLE
8
VIA
10
74.1898
20
53.2904
40
0.1500
0
CIRCLE
8
VIA
10
77.1216
20
52.9357
40
0.1500
0
CIRCLE
8
VIA
10
79.9025
20
53.2208
40
0.1500
0
CIRCLE
8
VIA
10
83.1133
20
53.1461
40
0.1500
0
CIRCLE
8
VIA
10
86.2009
20
53.3864
40
0.1500
0
CIRCLE
8
VIA
10
89.3845
20
52.9125
40
0.1500
0
CIRCLE
8
VIA
10
92.7953
20
53.5252
40
0.1500
0
CIRCLE
8
VIA
10
95.9486
20
53.4695
40
0.1500
0
CIRCLE
8
VIA
10
4.0222
20
57.0758
40
0.1500
0
CIRCLE
8
VIA
10
3.8329
20
60.4983
40
0.1500
0
CIRCLE
8
VIA
10
4.0221
20
64.8460
40
0.1500
0
CIRCLE
8
VIA
10
3.7771
20
68.6601
40
0.1500
0
CIRCLE
8
VIA
10
7.0814
20
68.1175
40
0.1500
0
CIRCLE
8
VIA
10
10.4844
20
68.4339
40
0.1500
0
CIRCLE
8
VIA
10
13.4513
20
68.3901
40
0.1500
0
CIRCLE
8
VIA
10
16.9727
20
68.4914
40
0.1500
0
CIRCLE
8
VIA
10
19.6424
20
68.5205
40
0.1500
0
CIRCLE
8
VIA
10
23.3438
20
68.7205
40
0.1500
0
CIRCLE
8
VIA
10
26.4282
20
68.2211
40
0.1500
0
CIRCLE
8
VIA
10
29.1193
20
68.4592
40
0.1500
0
CIRCLE
8
VIA
10
32.6766
20
68.7441
40
0.1500
0
CIRCLE
8
VIA
10
35.3831
20
68.7471
40
0.1500
0
CIRCLE
8
VIA
10
38.6177
20
68.7168
40
0.1500
0
CIRCLE
8
VIA
10
42.2738
20
68.1005
40
0.1500
0
CIRCLE
8
VIA
10
45.2616
20
68.6105
40
0.1500
0
CIRCLE
8
VIA
10
48.5084
20
68.7613
40
0.1500
0
CIRCLE
8
VIA
10
51.2522
20
68.3908
40
0.1500
0
CIRCLE
8
VIA
10
54.5229
20
68.5374
40
0.1500
0
CIRCLE
8
VIA
10
58.1274
20
68.1737
40
0.1500
0
CIRCLE
8
VIA
10
61.3699
20
68.1794
40
0.1500
0
CIRCLE
8
VIA
10
64.1449
20
68.6561
40
0.1500
0
CIRCLE
8
VIA
10
67.2355
20
68.3950
40
0.1500
0
CIRCLE
8
VIA
10
70.8602
20
68.6953
40
0.1500
0
CIRCLE
8
VIA
10
73.9706
20
68.4357
40
0.1500
0
CIRCLE
8
VIA
10
77.2012
20
68.1850
40
0.1500
0
CIRCLE
8
VIA
10
79.9166
20
68.5200
40
0.1500
0
CIRCLE
8
VIA
10
83.5977
20
68.5504
40
0.1500
0
CIRCLE
8
VIA
10
86.3035
20
68.2436
40
0.1500
0
CIRCLE
8
VIA
10
89.7317
20
68.2721
40
0.1500
0
CIRCLE
8
VIA
10
92.9454
20
68.4342
40
0.1500
0
CIRCLE
8
VIA
10
95.8916
20
68.4812
40
0.1500
0
CIRCLE
8
VIA
10
10.3492
20
72.4212
40
0.1500
0
CIRCLE
8
VIA
10
13.4525
20
72.0035
40
0.1500
0
CIRCLE
8
VIA
10
16.3928
20
72.2792
40
0.1500
0
CIRCLE
8
VIA
10
19.7957
20
72.5922
40
0.1500
0
CIRCLE
8
VIA
10
22.8036
20
72.5004
40
0.1500
0
CIRCLE
8
VIA
10
26.3428
20
72.2955
40
0.1500
0
CIRCLE
8
VIA
10
29.0659
20
72.0575
40
0.1500
0
CIRCLE
8
VIA
10
32.2700
20
72.0007
40
0.1500
0
CIRCLE
8
VIA
10
35.5679
20
72.0668
40
0.1500
0
CIRCLE
8
VIA
10
38.9073
20
72.6062
40
0.1500
0
CIRCLE
8
VIA
10
41.7218
20
72.1471
40
0.1500
0
CIRCLE
8
VIA
10
44.9903
20
72.5522
40
0.1500
0
CIRCLE
8
VIA
10
48.0536
20
72.1558
40
0.1500
0
CIRCLE
8
VIA
10
51.6210
20
72.0638
40
0.1500
0
CIRCLE
8
VIA
10
55.0254
20
72.4194
40
0.1500
0
CIRCLE
8
VIA
10
58.1735
20
72.2531
40
0.1500
0
CIRCLE
8
VIA
10
61.2029
20
72.5072
40
0.1500
0
CIRCLE
8
VIA
10
64.1457
20
72.5774
40
0.1500
0
CIRCLE
8
VIA
10
67.1277
20
72.2532
40
0.1500
0
CIRCLE
8
VIA
10
70.2815
20
72.3205
40
0.1500
0
CIRCLE
8
VIA
10
73.5585
20
72.5162
40
0.1500
0
CIRCLE
8
VIA
10
76.9258
20
72.1415
40
0.1500
0
CIRCLE
8
VIA
10
80.2246
20
72.6020
40
0.1500
0
CIRCLE
8
VIA
10
83.0749
20
72.0814
40
0.1500
0
CIRCLE
8
VIA
10
86.3776
20
71.9119
40
0.1500
0
CIRCLE
8
VIA
10
89.4716
20
72.3468
40
0.1500
0
CIRCLE
8
VIA
10
9.9787
20
75.6804
40
0.1500
0
CIRCLE
8
VIA
10
13.2321
20
75.9602
40
0.1500
0
CIRCLE
8
VIA
10
16.3370
20
75.6933
40
0.1500
0
CIRCLE
8
VIA
10
20.2476
20
75.7899
40
0.1500
0
CIRCLE
8
VIA
10
23.4116
20
75.7515
40
0.1500
0
CIRCLE
8
VIA
10
25.9176
20
76.2010
40
0.1500
0
CIRCLE
8
VIA
10
29.1748
20
76.3007
40
0.1500
0
CIRCLE
8
VIA
10
32.7820
20
75.7471
40
0.1500
0
CIRCLE
8
VIA
10
36.1004
20
76.2180
40
0.1500
0
CIRCLE
8
VIA
10
38.7515
20
75.6483
40
0.1500
0
CIRCLE
8
VIA
10
41.8498
20
75.7639
40
0.1500
0
CIRCLE
8
VIA
10
45.5997
20
76.1654
40
0.1500
0
CIRCLE
8
VIA
10
48.4062
20
75.7062
40
0.1500
0
CIRCLE
8
VIA
10
51.4950
20
76.2207
40
0.1500
0
CIRCLE
8
VIA
10
54.3652
20
75.8019
40
0.1500
0
CIRCLE
8
VIA
10
57.8362
20
76.0860
40
0.1500
0
CIRCLE
8
VIA
10
60.9929
20
75.9030
40
0.1500
0
CIRCLE
8
VIA
10
64.3520
20
75.6850
40
0.1500
0
CIRCLE
8
VIA
10
67.6391
20
75.6000
40
0.1500
0
CIRCLE
8
VIA
10
70.5043
20
75.9935
40
0.1500
0
CIRCLE
8
VIA
10
73.3990
20
76.3746
40
0.1500
0
CIRCLE
8
VIA
10
76.8593
20
75.7434
40
0.1500
0
CIRCLE
8
VIA
10
80.5286
20
76.0154
40
0.1500
0
CIRCLE
8
VIA
10
83.2511
20
75.8331
40
0.1500
0
CIRCLE
8
VIA
10
86.1312
20
76.1429
40
0.1500
0
CIRCLE
8
VIA
10
89.3467
20
76.2436
40
0.1500
0
ENDSEC
0
EOF
