  0
SECTION
  2
HEADER
  9
$ACADVER
  1
AC1015
  9
$DWGCODEPAGE
  3
ANSI_65001
  0
ENDSEC
  0
SECTION
  2
TABLES
  0
TABLE
  2
VPORT
  5
8
 70
0
  0
VPORT
  5
30
100
AcDbSymbolTableRecord
100
AcDbViewportTableRecord
  2
*Active
 70
0
  0
ENDTAB
  0
TABLE
  2
LAYER
  5
2
 70
2
  0
LAYER
  5
0
100
AcDbSymbolTableRecord
100
AcDbLayerTableRecord
  2
L1
 70
0
 62
7
  6
CONTINUOUS
  0
LAYER
  5
1
100
AcDbSymbolTableRecord
100
AcDbLayerTableRecord
  2
USER_DRAW
 70
0
 62
7
  6
CONTINUOUS
  0
ENDTAB
  0
TABLE
  2
STYLE
  5
3
 70
1
  0
STYLE
  5
11
100
AcDbSymbolTableRecord
100
AcDbTextStyleTableRecord
  2
Standard
 70
0
 40
0
 41
1
 50
0
 71
0
 42
1
  3
Arial
  4

  0
ENDTAB
  0
ENDSEC
  0
SECTION
  2
ENTITIES
  0
ELLIPSE
  5
113209889
  8
L1
100
AcDbEntity
100
AcDbEllipse
 10
4.7683716E-07
 20
0
 30
0
 11
40
 21
0
 31
0
 40
1
 41
0
 42
6.2831853
  0
ENDSEC
  0
EOF
