  0
SECTION
  2
HEADER
  9
$ACADVER
  1
AC1015
  9
$DWGCODEPAGE
  3
ANSI_65001
  0
ENDSEC
  0
SECTION
  2
TABLES
  0
TABLE
  2
VPORT
  5
8
 70
0
  0
VPORT
  5
30
100
AcDbSymbolTableRecord
100
AcDbViewportTableRecord
  2
*Active
 70
0
  0
ENDTAB
  0
TABLE
  2
LAYER
  5
2
 70
2
  0
LAYER
  5
0
100
AcDbSymbolTableRecord
100
AcDbLayerTableRecord
  2
L1
 70
0
 62
7
  6
CONTINUOUS
  0
LAYER
  5
1
100
AcDbSymbolTableRecord
100
AcDbLayerTableRecord
  2
USER_DRAW
 70
0
 62
7
  6
CONTINUOUS
  0
ENDTAB
  0
TABLE
  2
STYLE
  5
3
 70
1
  0
STYLE
  5
11
100
AcDbSymbolTableRecord
100
AcDbTextStyleTableRecord
  2
Standard
 70
0
 40
0
 41
1
 50
0
 71
0
 42
1
  3
Arial
  4

  0
ENDTAB
  0
ENDSEC
  0
SECTION
  2
ENTITIES
  0
LWPOLYLINE
  8
L1
 90
8
 70
1
 10
-50
 20
29.49703
 42
-0.41295477
 10
-40.285713
 20
40
 42
0
 10
36.399998
 20
40
 42
-0.4129548
 10
50
 20
25.295841
 42
0
 10
50
 20
-18.994059
 42
-0.41295479
 10
30.571426
 20
-40
 42
0
 10
-34.457142
 20
-40
 42
-0.41295479
 10
-50
 20
-23.195246
 42
0
 -3

1001
DR_RECT
1002
{
1040
-50
1040
40
1040
50
1040
40
1040
50
1040
-40
1040
-50
1040
-40
1040
10.108628
1040
14.15208
1040
20.217257
1040
16.173805
1040
0
1040
0
1040
0
1040
0
1002
}
  0
ENDSEC
  0
EOF
